<?xml version="1.0" standalone="yes"?>
<svg xmlns="http://www.w3.org/2000/svg" viewBox="0 0 322 104">
   <path d="M39.41 80.31l1 0 0 -45.07 -1 0 0 45.07zm27.26 23.83l-65.96 0 0 -5.56 65.96 0 0 5.56zm-0.17 -9.41c-0.24,-0.58 -0.91,-0.87 -1.51,-0.66 -0.04,0.01 -2.57,0.81 -9.88,-2.19 5.24,0.64 10.03,0.32 10.33,0.29 0.39,-0.02 0.68,-0.37 0.65,-0.76 -0.02,-0.39 -0.37,-0.68 -0.76,-0.66 -0.09,0.02 -9.12,0.63 -15.8,-1.45 -4.15,-2.06 -7.84,-2.43 -10.98,-1.08 -2.61,1.13 -4.29,3.21 -5.28,4.92 -0.99,-1.71 -2.65,-3.79 -5.28,-4.92 -3.12,-1.34 -6.77,-0.98 -10.86,1.02 -6.69,2.15 -15.87,1.53 -15.96,1.51 -0.39,-0.02 -0.72,0.27 -0.76,0.66 -0.02,0.39 0.27,0.73 0.66,0.76 0.29,0.03 5.11,0.35 10.38,-0.29 -7.31,3 -9.85,2.21 -9.89,2.19 -0.6,-0.21 -1.28,0.08 -1.51,0.66 -0.24,0.59 0.01,1.25 0.59,1.52 0.44,0.19 4.61,1.71 17.23,-4.73 3.57,-1.83 6.65,-2.21 9.17,-1.13 3.05,1.3 4.51,4.4 5,5.61 -0.1,0.58 0.23,1.16 0.8,1.33l0.36 0.02 0.07 0.01 0.07 -0.01 0.36 -0.02c0.57,-0.17 0.91,-0.75 0.8,-1.33 0.48,-1.21 1.95,-4.31 5,-5.61 2.52,-1.08 5.61,-0.7 9.18,1.13 12.63,6.44 16.79,4.92 17.23,4.73 0.58,-0.27 0.82,-0.93 0.59,-1.52zm-58.79 -82.51l24.99 13.95 0.47 -0.83 -24.87 -13.9 -0.59 0.78zm25.29 13.02l0.47 0.83 25.6 -14.26 -0.58 -0.77 -25.49 14.2zm-0.47 -25.38l0 26.18 0.95 0 0 -26.18 -0.95 0zm-31.4 25.52l0 0.95 64.65 0 0 -0.95 -64.65 0zm-0.34 4.85l0 1.89 7.59 0 0 -1.89 -7.59 0zm19.27 0l0 1.89 7.59 0 0 -1.89 -7.59 0zm19.27 0l0 1.89 7.59 0 0 -1.89 -7.59 0zm19.26 0l0 1.89 7.61 0 0 -1.89 -7.61 0zm-57.8 53.02l0 1.9 7.59 0 0 -1.9 -7.59 0zm19.27 0l0 1.9 7.59 0 0 -1.9 -7.59 0zm19.27 0l0 1.9 7.59 0 0 -1.9 -7.59 0zm19.26 0l0 1.9 7.61 0 0 -1.9 -7.61 0zm-36.38 -2.94l-2.24 0 0 -45.07 2.24 0 0 45.07zm3.01 0l-1.01 0 0 -45.07 1.01 0 0 45.07zm2.37 0l-1 0 0 -45.07 1 0 0 45.07zm-24.65 0l-2.24 0 0 -45.07 2.24 0 0 45.07zm3 0l-0.99 0 0 -45.07 0.99 0 0 45.07zm2.39 0l-1.01 0 0 -45.07 1.01 0 0 45.07zm55.73 0l2.25 0 0 -45.07 -2.25 0 0 45.07zm-3 0l1.01 0 0 -45.07 -1.01 0 0 45.07zm-2.38 0l1 0 0 -45.07 -1 0 0 45.07zm-13.88 0l2.23 0 0 -45.07 -2.23 0 0 45.07zm-3 0l1 0 0 -45.07 -1 0 0 45.07zm-1.73 -55.99l25.78 0c-1.18,-4.13 -3.11,-7.93 -5.65,-11.24l-20.13 11.24zm-38.9 0l24.78 0 -19.41 -10.84c-2.4,3.23 -4.25,6.87 -5.37,10.84zm33.97 -2.12l22.22 -12.41c-5.73,-5.75 -13.56,-9.41 -22.22,-9.83l0 22.24zm-4.26 0l0 -22.19c-8.44,0.66 -16,4.41 -21.55,10.15l21.55 12.04zm66.22 6.71c2.23,0 4.9,-0.24 6.3,-0.8 0.63,-0.28 0.7,-0.35 0.91,-1.02 0.34,-1.19 0.77,-4.23 0.77,-4.48 0,-0.27 -0.07,-0.53 -0.24,-0.53 -0.21,0 -0.28,0.14 -0.35,0.53 -0.1,0.64 -0.56,2.17 -1.29,2.95 -1.4,1.43 -3.46,1.75 -6.09,1.75 -7.49,0 -12.64,-6.13 -12.64,-12.81 0,-3.56 0.6,-6.68 3.15,-9.13 1.23,-1.19 3.4,-2.55 8.04,-2.55 3.09,0 5.77,0.94 7,1.99 0.91,0.77 1.46,2.2 1.46,3.57 0,0.48 0.04,0.73 0.28,0.73 0.21,0 0.28,-0.2 0.31,-0.73 0.04,-0.53 0.04,-2.45 0.1,-3.6 0.07,-1.26 0.18,-1.68 0.18,-1.96 0,-0.21 -0.07,-0.35 -0.45,-0.39 -1.12,-0.06 -2.24,-0.27 -3.57,-0.53 -1.72,-0.31 -3.67,-0.41 -5.07,-0.41 -5.39,0 -8.58,1.64 -10.68,3.74 -3.11,3.11 -3.92,7.21 -3.92,9.55 0,3.32 0.84,7.31 4.24,10.35 2.78,2.49 6.31,3.78 11.56,3.78l0 0zm34.87 -16.78c0,-5.46 0,-6.44 0.07,-7.56 0.07,-1.22 0.35,-1.82 1.29,-2 0.42,-0.07 0.64,-0.1 0.88,-0.1l0.28 -0.21c0,-0.21 -0.17,-0.28 -0.56,-0.28 -1.05,0 -3.25,0.11 -3.42,0.11 -0.18,0 -2.38,-0.11 -3.96,-0.11 -0.38,0 -0.56,0.07 -0.56,0.28l0.27 0.21c0.31,0 0.91,0.03 1.19,0.1 1.15,0.24 1.43,0.81 1.5,2 0.07,1.12 0.07,2.1 0.07,7.56l0 0.73 -0.21 0.21 -14.83 0 -0.21 -0.21 0 -0.73c0,-5.46 0,-6.44 0.07,-7.56 0.07,-1.22 0.34,-1.82 1.29,-2 0.41,-0.07 0.63,-0.1 0.88,-0.1l0.27 -0.21c0,-0.21 -0.17,-0.28 -0.56,-0.28 -1.05,0 -3.26,0.11 -3.43,0.11 -0.17,0 -2.38,-0.11 -3.96,-0.11 -0.38,0 -0.55,0.07 -0.55,0.28l0.28 0.21c0.31,0 0.91,0.03 1.19,0.1 1.15,0.24 1.43,0.81 1.5,2 0.06,1.12 0.06,2.1 0.06,7.56l0 6.16c0,3.35 0,6.12 -0.17,7.59 -0.14,1.01 -0.31,1.79 -1.01,1.93 -0.32,0.06 -0.74,0.13 -1.05,0.13l-0.28 0.21c0,0.21 0.17,0.28 0.56,0.28 1.05,0 3.26,-0.11 3.43,-0.11 0.17,0 2.38,0.11 4.3,0.11 0.39,0 0.57,-0.11 0.57,-0.28l-0.28 -0.21c-0.31,0 -1.08,-0.07 -1.57,-0.13 -1.05,-0.14 -1.25,-0.92 -1.36,-1.93 -0.17,-1.47 -0.17,-4.24 -0.17,-7.59l0 -3.67 0.21 -0.21 14.83 0 0.21 0.21 0 3.67c0,3.35 0,6.12 -0.17,7.59 -0.14,1.01 -0.31,1.79 -1.02,1.93 -0.31,0.06 -0.74,0.13 -1.05,0.13l-0.27 0.21c0,0.21 0.17,0.28 0.56,0.28 1.05,0 3.25,-0.11 3.43,-0.11 0.17,0 2.37,0.11 4.3,0.11 0.38,0 0.56,-0.11 0.56,-0.28 0,-0.1 -0.07,-0.21 -0.28,-0.21 -0.31,0 -1.09,-0.07 -1.57,-0.13 -1.05,-0.14 -1.26,-0.92 -1.36,-1.93 -0.18,-1.47 -0.18,-4.24 -0.18,-7.59l0 -6.16 -0.01 0zm8.71 12.45c-0.63,1.75 -1.32,3.08 -2.94,3.28 -0.27,0.04 -0.77,0.07 -1.01,0.07l-0.31 0.21c0,0.21 0.2,0.28 0.66,0.28 1.64,0 3.57,-0.11 3.96,-0.11 0.38,0 1.89,0.11 2.74,0.11 0.31,0 0.52,-0.07 0.52,-0.28 0,-0.14 -0.11,-0.21 -0.35,-0.21l-0.35 0c-0.6,0 -1.32,-0.31 -1.32,-1.01 0,-0.64 0.17,-1.47 0.48,-2.34l2.1 -6.2 0.35 -0.28 7.52 0 0.31 0.21 3.25 8.61c0.21,0.56 0,0.87 -0.2,0.94l-0.25 0.25c0,0.2 0.39,0.2 1.05,0.24 2.42,0.07 4.98,0.07 5.5,0.07 0.38,0 0.7,-0.07 0.7,-0.28 0,-0.17 -0.14,-0.21 -0.35,-0.21 -0.34,0 -0.87,-0.03 -1.39,-0.21 -0.74,-0.2 -1.76,-0.77 -3.01,-3.88 -2.14,-5.32 -7.63,-19.77 -8.16,-21.09 -0.41,-1.09 -0.55,-1.26 -0.77,-1.26 -0.21,0 -0.35,0.21 -0.77,1.36l-7.96 21.73 0 0zm4.9 -7.74l-0.11 -0.24 3.08 -9.45c0.18,-0.53 0.35,-0.53 0.53,0l3.33 9.45 -0.14 0.24 -6.69 0 0 0zm21.35 1.44c0,3.35 0,6.12 -0.17,7.59 -0.14,1.01 -0.31,1.79 -1.02,1.92 -0.32,0.07 -0.73,0.14 -1.05,0.14l-0.27 0.21c0,0.21 0.17,0.28 0.56,0.28 1.05,0 3.26,-0.11 3.29,-0.11 0.17,0 2.38,0.11 4.3,0.11 0.39,0 0.56,-0.11 0.56,-0.28l-0.28 -0.21c-0.31,0 -1.08,-0.07 -1.58,-0.14 -1.05,-0.13 -1.26,-0.91 -1.36,-1.92 -0.17,-1.47 -0.17,-4.24 -0.17,-7.59l0 -0.85 0.24 -0.27 4.3 0.07 0.45 0.2c0.71,0.91 2.34,3.26 3.81,5.18 2,2.62 3.22,4.34 4.73,5.15 0.91,0.48 1.79,0.67 3.74,0.67l2.48 0c0.63,0 0.84,-0.07 0.84,-0.28l-0.31 -0.21c-0.21,0 -0.7,0 -1.36,-0.1 -0.88,-0.14 -2.38,-0.53 -4.27,-2.52 -2.03,-2.16 -4.41,-5.28 -7.27,-8.95 3.15,-2.91 4.24,-5.49 4.24,-8.08 0,-2.41 -1.54,-4.13 -2.42,-4.75 -1.85,-1.33 -4.2,-1.53 -6.4,-1.53 -1.08,0 -3.74,0.1 -4.13,0.1 -0.17,0 -2.38,-0.1 -3.96,-0.1 -0.38,0 -0.56,0.07 -0.56,0.27l0.28 0.21c0.32,0 0.92,0.04 1.19,0.1 1.16,0.25 1.43,0.81 1.5,2 0.07,1.12 0.07,2.1 0.07,7.56l0 6.13 0 0zm2.81 -14.55c0,-0.21 0.1,-0.35 0.27,-0.42 0.35,-0.1 1.3,-0.21 2.35,-0.21 3.73,0 6.05,2.62 6.05,6.99 0,2.66 -0.91,4.55 -2.13,5.39 -0.81,0.57 -1.79,0.67 -2.62,0.67 -1.54,0 -3.15,-0.24 -3.67,-0.56l-0.24 -0.42 0 -11.44 -0.01 0zm26.39 8.4c0,-5.46 0,-6.44 0.07,-7.56 0.07,-1.22 0.35,-1.82 1.36,-2 0.42,-0.07 0.92,-0.1 1.16,-0.1l0.27 -0.21c0,-0.21 -0.17,-0.28 -0.56,-0.28 -1.05,0 -3.6,0.11 -3.78,0.11 -0.18,0 -2.38,-0.11 -3.96,-0.11 -0.38,0 -0.57,0.07 -0.57,0.28l0.28 0.21c0.31,0 0.91,0.03 1.19,0.1 1.15,0.24 1.43,0.81 1.51,2 0.07,1.12 0.07,2.1 0.07,7.56l0 6.16c0,3.35 0,6.12 -0.17,7.59 -0.14,1.01 -0.32,1.79 -1.02,1.93 -0.31,0.06 -0.74,0.13 -1.05,0.13l-0.28 0.21c0,0.21 0.18,0.28 0.57,0.28 0.53,0 1.29,-0.04 1.99,-0.07 0.7,0 1.3,-0.04 1.44,-0.04 2.03,0 4.33,0.21 9.38,0.21 1.85,0 1.96,-0.14 2.2,-0.94 0.28,-1.02 0.53,-3.12 0.53,-3.5 0,-0.38 -0.03,-0.53 -0.21,-0.53 -0.21,0 -0.27,0.17 -0.31,0.46 -0.1,0.67 -0.45,1.54 -0.91,2.1 -0.84,1.02 -2.38,1.05 -4.24,1.05 -2.72,0 -3.63,-0.24 -4.2,-0.81 -0.63,-0.63 -0.77,-2.87 -0.77,-8l0 -6.23 0.01 0zm15.29 6.15c0,3.35 0,6.12 -0.17,7.59 -0.14,1.01 -0.32,1.79 -1.02,1.92 -0.31,0.07 -0.73,0.14 -1.05,0.14l-0.27 0.21c0,0.21 0.17,0.28 0.55,0.28 0.53,0 1.33,-0.04 2.03,-0.07 0.74,0 1.33,-0.04 1.41,-0.04 1.01,0 3.36,0.21 8.64,0.21 1.36,0 1.64,0 1.89,-0.91 0.17,-0.74 0.45,-3.12 0.45,-3.39 0,-0.24 0,-0.53 -0.21,-0.53 -0.17,0 -0.24,0.14 -0.31,0.53 -0.24,1.43 -0.67,2.13 -1.58,2.51 -0.91,0.38 -2.44,0.38 -3.36,0.38 -3.42,0 -3.95,-0.46 -4.06,-2.87 -0.03,-0.74 0,-4.8 0,-5.99l0 -3.08 0.25 -0.24c0.6,0 4.06,0.07 5,0.17 1.36,0.14 1.69,0.74 1.83,1.23 0.13,0.45 0.13,0.8 0.13,1.15l0.25 0.31c0.24,0 0.24,-0.38 0.24,-0.67 0,-0.24 0.07,-1.53 0.14,-2.24 0.1,-1.15 0.27,-1.75 0.27,-1.96l-0.17 -0.28c-0.14,0 -0.28,0.18 -0.53,0.47 -0.31,0.34 -0.81,0.41 -1.64,0.48 -0.8,0.07 -5.11,0.07 -5.56,0.07 -0.17,0 -0.21,-0.1 -0.21,-0.35l0 -9.65c0,-0.25 0.07,-0.35 0.21,-0.35 0.39,0 4.2,0.04 4.79,0.1 1.89,0.21 2.24,0.64 2.48,1.19 0.17,0.42 0.21,1.02 0.21,1.26 0,0.28 0.07,0.45 0.27,0.45l0.25 -0.38c0.07,-0.42 0.14,-1.96 0.17,-2.31 0.1,-0.98 0.28,-1.39 0.28,-1.64l-0.14 -0.31 -0.5 0.18c-0.27,0.06 -0.84,0.13 -1.5,0.17 -0.8,0.03 -7.76,0.03 -8,0.03 -0.18,0 -2.38,-0.1 -3.96,-0.1 -0.38,0 -0.57,0.07 -0.57,0.28l0.28 0.2c0.31,0 0.91,0.04 1.19,0.11 1.15,0.24 1.43,0.81 1.5,1.99 0.07,1.12 0.07,2.1 0.07,7.56l0 6.19 0.03 0zm20.8 10.63c1.9,0 3.78,-0.41 5.29,-1.46 2.41,-1.72 2.97,-4.37 2.97,-5.81 0,-2.8 -0.98,-4.97 -5.11,-8.22l-0.98 -0.78c-3.29,-2.7 -4.27,-3.88 -4.27,-5.87 0,-2.55 1.9,-4.06 4.31,-4.06 3.22,0 4.16,1.47 4.37,1.86 0.21,0.38 0.43,1.33 0.46,1.75 0.04,0.28 0.07,0.46 0.28,0.46 0.17,0 0.24,-0.24 0.24,-0.8 0,-2.38 0.14,-3.53 0.14,-3.71 0,-0.17 -0.07,-0.24 -0.35,-0.24 -0.27,0 -0.56,-0.03 -1.22,-0.17 -0.88,-0.21 -1.89,-0.35 -3.25,-0.35 -4.45,0 -7.25,2.55 -7.25,6.3 0,2.38 0.84,4.55 4.55,7.59l1.58 1.29c3.01,2.49 4.02,3.89 4.02,6.3 0,2.24 -1.65,4.65 -5,4.65 -2.35,0 -4.65,-0.98 -5.18,-3.56 -0.11,-0.49 -0.11,-0.98 -0.11,-1.29 0,-0.28 -0.03,-0.38 -0.24,-0.38 -0.17,0 -0.24,0.17 -0.28,0.55 -0.03,0.57 -0.17,1.96 -0.17,3.7 0,0.95 0.04,1.09 0.53,1.33 1.42,0.68 3.03,0.92 4.67,0.92l0 0zm22.77 -25.43l4.4 0.07c3.36,0.07 4.17,0.88 4.31,1.93l0.03 0.38c0.04,0.48 0.11,0.6 0.28,0.6 0.14,0 0.24,-0.14 0.24,-0.45 0,-0.38 0.11,-2.8 0.11,-3.85l-0.18 -0.42c-0.14,0 -0.45,0.07 -0.98,0.17 -0.55,0.07 -1.36,0.18 -2.48,0.18l-13.1 0c-0.42,0 -1.76,-0.07 -2.77,-0.18 -0.95,-0.06 -1.3,-0.41 -1.54,-0.41l-0.34 0.67c-0.07,0.28 -0.78,3.29 -0.78,3.63 0,0.21 0.07,0.31 0.18,0.31 0.13,0 0.24,-0.07 0.34,-0.34 0.11,-0.24 0.21,-0.49 0.6,-1.09 0.56,-0.84 1.4,-1.08 3.57,-1.12l5.18 -0.06 0 14.8c0,3.36 0,6.12 -0.18,7.59 -0.13,1.02 -0.31,1.79 -1.01,1.93 -0.31,0.07 -0.73,0.14 -1.05,0.14l-0.28 0.2c0,0.21 0.17,0.28 0.56,0.28 1.05,0 3.25,-0.1 3.42,-0.1 0.18,0 2.38,0.1 4.31,0.1 0.38,0 0.56,-0.1 0.56,-0.28l-0.28 -0.2c-0.31,0 -1.08,-0.07 -1.57,-0.14 -1.05,-0.14 -1.25,-0.91 -1.36,-1.93 -0.17,-1.46 -0.17,-4.23 -0.17,-7.59l0 -14.82 -0.02 0zm9.73 11.68c0,6.3 4,13.75 13.59,13.75 8.42,0 13.95,-6.47 13.95,-14.3 0,-8.16 -5.87,-13.12 -13.75,-13.12 -9.67,0 -13.79,8 -13.79,13.67l0 0zm3.33 -0.97c0,-7.66 4.37,-11.51 10.21,-11.51 5.53,0 10.64,4.51 10.64,12.91 0,10.17 -6.51,12 -9.66,12 -6.3,0 -11.19,-5.25 -11.19,-13.4l0 0zm30.2 -7.28c1.12,1.26 5.08,5.67 9.14,10.04 3.7,3.99 8.75,9.12 9.13,9.48 1.85,1.86 2.27,2.24 2.55,2.24 0.24,0 0.31,-0.17 0.31,-2.48l0.07 -20.5c0,-2.1 0.14,-2.88 1.29,-3.12 0.43,-0.1 0.67,-0.1 0.84,-0.1 0.24,0 0.38,-0.1 0.38,-0.24 0,-0.21 -0.24,-0.25 -0.62,-0.25 -1.43,0 -2.6,0.11 -2.98,0.11 -0.38,0 -2.06,-0.11 -3.63,-0.11 -0.43,0 -0.7,0.04 -0.7,0.25 0,0.14 0.03,0.24 0.27,0.24 0.28,0 1.09,0.03 1.72,0.17 1.09,0.28 1.33,1.05 1.36,3.32l0.38 17.77c-1.12,-1.15 -4.93,-5.42 -8.4,-9.12 -5.38,-5.77 -10.6,-11.41 -11.12,-12 -0.35,-0.35 -0.95,-1.12 -1.22,-1.12 -0.28,0 -0.38,0.38 -0.38,1.75l-0.04 20.04c0,3.19 -0.17,4.2 -1.05,4.44 -0.52,0.18 -1.15,0.21 -1.43,0.21l-0.27 0.21c0,0.24 0.2,0.28 0.55,0.28 1.58,0 3.04,-0.11 3.36,-0.11 0.31,0 1.72,0.11 3.7,0.11 0.42,0 0.63,-0.07 0.63,-0.28l-0.27 -0.21c-0.31,0 -1.09,-0.03 -1.76,-0.21 -0.94,-0.27 -1.29,-1.18 -1.36,-4.06l-0.45 -16.75zm-210.5 59.33c1.89,0 3.77,-0.42 5.28,-1.47 2.42,-1.72 2.98,-4.37 2.98,-5.8 0,-2.81 -0.98,-4.97 -5.11,-8.23l-0.98 -0.77c-3.29,-2.7 -4.27,-3.89 -4.27,-5.87 0,-2.55 1.89,-4.07 4.3,-4.07 3.22,0 4.17,1.47 4.38,1.86 0.2,0.38 0.41,1.33 0.45,1.76 0.03,0.27 0.07,0.45 0.27,0.45 0.18,0 0.25,-0.25 0.25,-0.81 0,-2.38 0.13,-3.53 0.13,-3.7 0,-0.18 -0.06,-0.25 -0.34,-0.25 -0.28,0 -0.57,-0.03 -1.22,-0.17 -0.88,-0.21 -1.9,-0.35 -3.26,-0.35 -4.44,0 -7.24,2.55 -7.24,6.3 0,2.38 0.84,4.55 4.54,7.6l1.57 1.29c3.01,2.48 4.03,3.89 4.03,6.3 0,2.24 -1.64,4.65 -5.01,4.65 -2.34,0 -4.65,-0.98 -5.18,-3.57 -0.1,-0.48 -0.1,-0.98 -0.1,-1.29 0,-0.28 -0.04,-0.38 -0.24,-0.38 -0.18,0 -0.25,0.17 -0.28,0.55 -0.04,0.56 -0.17,1.96 -0.17,3.71 0,0.94 0.03,1.08 0.53,1.32 1.44,0.68 3.05,0.94 4.69,0.94l0 0zm10.61 -13.76c0,6.3 4,13.76 13.58,13.76 8.44,0 13.96,-6.48 13.96,-14.31 0,-8.15 -5.87,-13.12 -13.75,-13.12 -9.65,-0.01 -13.79,8.01 -13.79,13.67l0 0zm3.33 -0.98c0,-7.66 4.37,-11.51 10.21,-11.51 5.53,0 10.64,4.51 10.64,12.91 0,10.18 -6.51,12 -9.66,12 -6.29,0 -11.19,-5.25 -11.19,-13.4l0 0zm27.88 3.05c0,5.11 1.33,7.56 3.05,9.19 2.48,2.35 6.02,2.49 7.21,2.49 2.07,0 4.69,-0.35 7.21,-2.59 2.81,-2.48 3.22,-6.68 3.22,-10.46l0 -3.74c0,-5.46 0,-6.44 0.07,-7.56 0.07,-1.22 0.35,-1.82 1.29,-2 0.42,-0.1 0.64,-0.1 0.88,-0.1l0.28 -0.21c0,-0.2 -0.18,-0.27 -0.56,-0.27 -1.05,0 -2.7,0.1 -2.94,0.1 -0.21,0 -2.13,-0.1 -3.7,-0.1 -0.38,0 -0.57,0.07 -0.57,0.27l0.28 0.21c0.31,0 0.91,0.04 1.19,0.1 1.15,0.25 1.43,0.81 1.5,2 0.07,1.12 0.07,2.1 0.07,7.56l0 4.37c0,3.6 -0.42,6.58 -2.03,8.57 -1.26,1.5 -3.36,2.52 -5.5,2.52 -1.99,0 -3.56,-0.31 -5.28,-1.93 -1.5,-1.43 -2.62,-3.6 -2.62,-8.64l0 -4.89c0,-5.46 0,-6.44 0.07,-7.56 0.07,-1.22 0.34,-1.86 1.29,-2 0.42,-0.06 0.62,-0.1 0.88,-0.1l0.27 -0.21c0,-0.2 -0.17,-0.27 -0.55,-0.27 -1.05,0 -3.15,0.1 -3.46,0.1 -0.31,0 -2.45,-0.1 -4.03,-0.1 -0.38,0 -0.56,0.07 -0.56,0.27l0.27 0.21c0.32,0 0.92,0.04 1.19,0.1 1.16,0.25 1.43,0.81 1.5,2 0.07,1.12 0.07,2.1 0.07,7.56l0 5.11 0.01 0zm37.05 -13.75l4.41 0.07c3.36,0.06 4.16,0.87 4.3,1.92l0.04 0.38c0.03,0.49 0.1,0.6 0.27,0.6 0.14,0 0.25,-0.14 0.25,-0.46 0,-0.38 0.1,-2.8 0.1,-3.84l-0.17 -0.42c-0.14,0 -0.46,0.07 -0.98,0.18 -0.56,0.07 -1.37,0.17 -2.48,0.17l-13.12 0c-0.42,0 -1.76,-0.07 -2.77,-0.17 -0.95,-0.07 -1.29,-0.42 -1.55,-0.42l-0.34 0.67c-0.07,0.28 -0.78,3.29 -0.78,3.64 0,0.2 0.07,0.31 0.18,0.31 0.13,0 0.24,-0.07 0.34,-0.35 0.11,-0.24 0.21,-0.48 0.59,-1.08 0.57,-0.85 1.4,-1.09 3.57,-1.12l5.18 -0.07 0 14.8c0,3.36 0,6.13 -0.18,7.59 -0.14,1.02 -0.31,1.79 -1.01,1.93 -0.31,0.07 -0.74,0.14 -1.05,0.14l-0.28 0.21c0,0.2 0.17,0.27 0.57,0.27 1.05,0 3.25,-0.1 3.42,-0.1 0.18,0 2.38,0.1 4.31,0.1 0.38,0 0.55,-0.1 0.55,-0.27l-0.28 -0.21c-0.31,0 -1.08,-0.07 -1.57,-0.14 -1.05,-0.14 -1.25,-0.91 -1.36,-1.93 -0.17,-1.46 -0.17,-4.23 -0.17,-7.59l0 -14.81 0.01 0zm35.81 8.64c0,-5.46 0,-6.44 0.07,-7.56 0.07,-1.22 0.35,-1.82 1.29,-2 0.42,-0.06 0.64,-0.1 0.88,-0.1l0.28 -0.21c0,-0.2 -0.17,-0.27 -0.57,-0.27 -1.05,0 -3.25,0.1 -3.42,0.1 -0.18,0 -2.38,-0.1 -3.96,-0.1 -0.38,0 -0.55,0.07 -0.55,0.27l0.27 0.21c0.33,0 0.91,0.04 1.19,0.1 1.15,0.25 1.43,0.81 1.5,2 0.07,1.12 0.07,2.1 0.07,7.56l0 0.74 -0.21 0.2 -14.83 0 -0.21 -0.2 0 -0.74c0,-5.46 0,-6.44 0.07,-7.56 0.07,-1.22 0.34,-1.82 1.29,-2 0.43,-0.06 0.63,-0.1 0.88,-0.1l0.27 -0.21c0,-0.2 -0.17,-0.27 -0.56,-0.27 -1.05,0 -3.26,0.1 -3.43,0.1 -0.17,0 -2.38,-0.1 -3.96,-0.1 -0.38,0 -0.55,0.07 -0.55,0.27l0.28 0.21c0.31,0 0.91,0.04 1.19,0.1 1.15,0.25 1.43,0.81 1.49,2 0.07,1.12 0.07,2.1 0.07,7.56l0 6.16c0,3.36 0,6.13 -0.17,7.59 -0.14,1.02 -0.31,1.79 -1.01,1.93 -0.32,0.07 -0.74,0.14 -1.05,0.14l-0.28 0.2c0,0.21 0.17,0.28 0.56,0.28 1.05,0 3.26,-0.1 3.43,-0.1 0.17,0 2.38,0.1 4.3,0.1 0.38,0 0.56,-0.1 0.56,-0.28l-0.28 -0.2c-0.31,0 -1.08,-0.07 -1.58,-0.14 -1.05,-0.14 -1.26,-0.91 -1.36,-1.93 -0.17,-1.46 -0.17,-4.23 -0.17,-7.59l0 -3.67 0.2 -0.21 14.84 0 0.21 0.21 0 3.67c0,3.36 0,6.13 -0.18,7.59 -0.13,1.02 -0.31,1.79 -1.01,1.93 -0.31,0.07 -0.74,0.14 -1.05,0.14l-0.28 0.2c0,0.21 0.18,0.28 0.57,0.28 1.05,0 3.25,-0.1 3.42,-0.1 0.18,0 2.38,0.1 4.31,0.1 0.38,0 0.56,-0.1 0.56,-0.28 0,-0.1 -0.07,-0.2 -0.27,-0.2 -0.31,0 -1.09,-0.07 -1.58,-0.14 -1.05,-0.14 -1.26,-0.91 -1.37,-1.93 -0.17,-1.46 -0.17,-4.23 -0.17,-7.59l0 -6.16 0.01 0zm9.28 6.16c0,3.36 0,6.13 -0.17,7.59 -0.14,1.02 -0.31,1.79 -1.02,1.93 -0.31,0.07 -0.74,0.14 -1.05,0.14l-0.28 0.2c0,0.21 0.18,0.28 0.56,0.28 0.53,0 1.33,-0.03 2.03,-0.07 0.74,0 1.33,-0.03 1.4,-0.03 1.01,0 3.35,0.2 8.64,0.2 1.36,0 1.65,0 1.89,-0.91 0.17,-0.74 0.45,-3.11 0.45,-3.39 0,-0.24 0,-0.53 -0.21,-0.53 -0.17,0 -0.24,0.14 -0.31,0.53 -0.24,1.43 -0.67,2.14 -1.58,2.52 -0.91,0.38 -2.45,0.38 -3.36,0.38 -3.42,0 -3.96,-0.46 -4.06,-2.88 -0.03,-0.73 0,-4.78 0,-5.98l0 -3.06 0.24 -0.24c0.6,0 4.06,0.07 5.01,0.17 1.36,0.14 1.68,0.74 1.81,1.22 0.14,0.45 0.14,0.81 0.14,1.16l0.24 0.31c0.24,0 0.24,-0.38 0.24,-0.67 0,-0.24 0.07,-1.54 0.14,-2.24 0.11,-1.15 0.28,-1.75 0.28,-1.96l-0.17 -0.28c-0.14,0 -0.28,0.18 -0.53,0.45 -0.32,0.35 -0.81,0.42 -1.65,0.49 -0.81,0.07 -5.1,0.07 -5.56,0.07 -0.18,0 -0.21,-0.11 -0.21,-0.35l0 -9.66c0,-0.24 0.07,-0.34 0.21,-0.34 0.38,0 4.2,0.03 4.78,0.1 1.9,0.21 2.24,0.63 2.48,1.19 0.18,0.41 0.21,1.01 0.21,1.26 0,0.27 0.07,0.45 0.28,0.45l0.24 -0.38c0.07,-0.42 0.14,-1.97 0.17,-2.31 0.11,-0.98 0.28,-1.4 0.28,-1.65l-0.14 -0.31 -0.49 0.17c-0.28,0.07 -0.85,0.14 -1.5,0.17 -0.81,0.04 -7.77,0.04 -8.01,0.04 -0.17,0 -2.38,-0.11 -3.96,-0.11 -0.38,0 -0.56,0.07 -0.56,0.28l0.27 0.21c0.31,0 0.92,0.03 1.19,0.1 1.16,0.24 1.43,0.81 1.5,2 0.07,1.12 0.07,2.1 0.07,7.56l0 6.18 0.07 0zm18.1 0c0,3.36 0,6.13 -0.17,7.59 -0.14,1.02 -0.31,1.79 -1.02,1.93 -0.31,0.07 -0.73,0.14 -1.05,0.14l-0.27 0.2c0,0.21 0.17,0.28 0.56,0.28 1.05,0 3.26,-0.1 3.29,-0.1 0.17,0 2.38,0.1 4.3,0.1 0.38,0 0.56,-0.1 0.56,-0.28l-0.28 -0.2c-0.31,0 -1.08,-0.07 -1.58,-0.14 -1.05,-0.14 -1.26,-0.91 -1.36,-1.93 -0.17,-1.46 -0.17,-4.23 -0.17,-7.59l0 -0.84 0.24 -0.28 4.3 0.07 0.46 0.21c0.7,0.91 2.35,3.25 3.81,5.18 2,2.62 3.22,4.34 4.72,5.14 0.91,0.5 1.78,0.67 3.74,0.67l2.48 0c0.63,0 0.84,-0.07 0.84,-0.28l-0.31 -0.2c-0.21,0 -0.7,0 -1.36,-0.11 -0.88,-0.13 -2.38,-0.52 -4.27,-2.51 -2.03,-2.17 -4.41,-5.29 -7.28,-8.95 3.15,-2.91 4.23,-5.5 4.23,-8.08 0,-2.41 -1.53,-4.13 -2.41,-4.75 -1.86,-1.33 -4.2,-1.54 -6.4,-1.54 -1.09,0 -3.74,0.1 -4.13,0.1 -0.18,0 -2.38,-0.1 -3.96,-0.1 -0.39,0 -0.56,0.07 -0.56,0.28l0.27 0.21c0.31,0 0.91,0.03 1.19,0.1 1.15,0.24 1.43,0.81 1.5,2 0.07,1.11 0.07,2.1 0.07,7.55l0 6.13 0.02 0zm2.81 -14.56c0,-0.21 0.1,-0.35 0.27,-0.42 0.35,-0.1 1.29,-0.2 2.34,-0.2 3.74,0 6.06,2.63 6.06,7 0,2.66 -0.91,4.55 -2.13,5.39 -0.81,0.55 -1.79,0.67 -2.62,0.67 -1.54,0 -3.15,-0.25 -3.67,-0.57l-0.24 -0.41 0 -11.46 -0.01 0zm24.64 3.18c1.12,1.26 5.08,5.67 9.13,10.04 3.7,3.99 8.74,9.13 9.12,9.48 1.86,1.86 2.28,2.24 2.55,2.24 0.25,0 0.31,-0.17 0.31,-2.48l0.07 -20.5c0,-2.1 0.14,-2.87 1.3,-3.12 0.41,-0.1 0.67,-0.1 0.84,-0.1 0.24,0 0.38,-0.1 0.38,-0.24 0,-0.21 -0.24,-0.24 -0.62,-0.24 -1.43,0 -2.6,0.1 -2.98,0.1 -0.38,0 -2.07,-0.1 -3.64,-0.1 -0.42,0 -0.7,0.03 -0.7,0.24 0,0.14 0.03,0.24 0.28,0.24 0.27,0 1.08,0.04 1.72,0.17 1.08,0.28 1.32,1.05 1.36,3.33l0.38 17.77c-1.12,-1.16 -4.94,-5.43 -8.4,-9.13 -5.39,-5.77 -10.6,-11.41 -11.12,-12 -0.35,-0.35 -0.95,-1.12 -1.23,-1.12 -0.27,0 -0.38,0.38 -0.38,1.75l-0.03 20.05c0,3.18 -0.17,4.19 -1.05,4.44 -0.52,0.17 -1.16,0.2 -1.43,0.2l-0.28 0.21c0,0.24 0.21,0.28 0.55,0.28 1.57,0 3.05,-0.1 3.36,-0.1 0.31,0 1.72,0.1 3.72,0.1 0.41,0 0.62,-0.07 0.62,-0.28l-0.28 -0.21c-0.31,0 -1.08,-0.03 -1.75,-0.2 -0.95,-0.28 -1.29,-1.19 -1.36,-4.06l-0.44 -16.76zm-173.99 47.64c0,5.11 1.33,7.56 3.05,9.21 2.48,2.34 6.02,2.48 7.21,2.48 2.07,0 4.68,-0.35 7.21,-2.59 2.79,-2.48 3.22,-6.68 3.22,-10.46l0 -3.75c0,-5.46 0,-6.44 0.07,-7.56 0.07,-1.22 0.35,-1.82 1.29,-1.99 0.42,-0.11 0.64,-0.11 0.88,-0.11l0.28 -0.2c0,-0.21 -0.18,-0.28 -0.57,-0.28 -1.05,0 -2.69,0.1 -2.94,0.1 -0.21,0 -2.14,-0.1 -3.71,-0.1 -0.38,0 -0.55,0.07 -0.55,0.28l0.28 0.2c0.31,0 0.91,0.04 1.19,0.11 1.15,0.24 1.43,0.8 1.5,1.99 0.07,1.12 0.07,2.1 0.07,7.56l0 4.37c0,3.6 -0.42,6.58 -2.04,8.58 -1.25,1.5 -3.35,2.51 -5.49,2.51 -1.99,0 -3.56,-0.32 -5.28,-1.93 -1.5,-1.44 -2.62,-3.6 -2.62,-8.64l0 -4.9c0,-5.46 0,-6.44 0.07,-7.56 0.07,-1.22 0.34,-1.86 1.29,-1.99 0.42,-0.07 0.64,-0.11 0.88,-0.11l0.27 -0.21c0,-0.2 -0.17,-0.27 -0.56,-0.27 -1.05,0 -3.15,0.1 -3.46,0.1 -0.31,0 -2.45,-0.1 -4.03,-0.1 -0.38,0 -0.55,0.07 -0.55,0.27l0.27 0.21c0.32,0 0.92,0.04 1.19,0.11 1.16,0.24 1.43,0.8 1.5,1.99 0.07,1.12 0.07,2.1 0.07,7.56l0 5.12 0.01 0zm28.25 -10.31c1.12,1.25 5.07,5.66 9.12,10.03 3.71,4 8.75,9.13 9.13,9.49 1.86,1.86 2.27,2.24 2.55,2.24 0.24,0 0.31,-0.18 0.31,-2.48l0.07 -20.51c0,-2.1 0.14,-2.87 1.29,-3.11 0.42,-0.11 0.67,-0.11 0.84,-0.11 0.25,0 0.39,-0.1 0.39,-0.24 0,-0.21 -0.25,-0.24 -0.63,-0.24 -1.43,0 -2.59,0.1 -2.97,0.1 -0.39,0 -2.07,-0.1 -3.64,-0.1 -0.41,0 -0.7,0.03 -0.7,0.24 0,0.14 0.03,0.24 0.27,0.24 0.28,0 1.09,0.04 1.72,0.18 1.09,0.27 1.33,1.05 1.36,3.32l0.39 17.77c-1.12,-1.15 -4.94,-5.42 -8.4,-9.13 -5.39,-5.77 -10.61,-11.41 -11.13,-12 -0.34,-0.34 -0.94,-1.12 -1.22,-1.12 -0.27,0 -0.38,0.38 -0.38,1.75l-0.03 20.05c0,3.18 -0.18,4.2 -1.05,4.44 -0.52,0.17 -1.16,0.21 -1.43,0.21l-0.28 0.21c0,0.24 0.21,0.27 0.55,0.27 1.57,0 3.05,-0.1 3.36,-0.1 0.31,0 1.72,0.1 3.7,0.1 0.42,0 0.64,-0.07 0.64,-0.27l-0.28 -0.21c-0.31,0 -1.08,-0.04 -1.75,-0.21 -0.95,-0.28 -1.29,-1.19 -1.36,-4.06l-0.44 -16.75 0 0zm32.52 5.2c0,-5.46 0,-6.44 0.07,-7.56 0.07,-1.22 0.35,-1.82 1.29,-1.99 0.42,-0.07 0.64,-0.11 0.88,-0.11l0.28 -0.2c0,-0.21 -0.18,-0.28 -0.56,-0.28 -1.05,0 -3.25,0.1 -3.42,0.1 -0.18,0 -2.38,-0.1 -3.53,-0.1 -0.38,0 -0.56,0.07 -0.56,0.28l0.28 0.2c0.24,0 0.7,0.04 1.08,0.14 0.78,0.17 1.12,0.77 1.19,1.96 0.07,1.12 0.07,2.1 0.07,7.56l0 6.16c0,3.36 0,6.13 -0.17,7.59 -0.14,1.02 -0.31,1.79 -1.02,1.93 -0.31,0.07 -0.74,0.14 -1.05,0.14l-0.27 0.21c0,0.2 0.17,0.27 0.55,0.27 1.05,0 3.25,-0.1 3.43,-0.1 0.17,0 2.37,0.1 4.3,0.1 0.38,0 0.55,-0.1 0.55,-0.27l-0.27 -0.21c-0.31,0 -1.09,-0.07 -1.57,-0.14 -1.05,-0.14 -1.26,-0.91 -1.36,-1.93 -0.18,-1.46 -0.18,-4.23 -0.18,-7.59l0 -6.16 -0.01 0zm12.04 -5.87c-0.52,-1.36 -0.95,-2.45 -0.95,-2.91 0,-0.24 0.07,-0.53 0.45,-0.7 0.31,-0.14 0.95,-0.18 1.33,-0.18 0.24,0 0.34,-0.07 0.34,-0.24 0,-0.17 -0.31,-0.24 -0.94,-0.24 -1.33,0 -2.91,0.1 -3.26,0.1 -0.41,0 -2.41,-0.1 -4.09,-0.1 -0.57,0 -0.91,0.03 -0.91,0.24 0,0.14 0.07,0.24 0.27,0.24 0.21,0 0.81,0 1.33,0.14 1.22,0.35 1.75,0.74 2.51,2.69l8.58 21.45c0.67,1.68 0.84,2.17 1.25,2.17 0.35,0 0.49,-0.56 1.47,-2.66 0.81,-1.72 2.38,-5.49 4.51,-10.6 1.78,-4.3 3.53,-8.5 3.92,-9.48 0.95,-2.38 1.47,-2.98 1.93,-3.29 0.67,-0.43 1.43,-0.43 1.67,-0.43 0.28,0 0.43,-0.07 0.43,-0.24 0,-0.17 -0.21,-0.24 -0.59,-0.24 -1.01,0 -2.51,0.1 -2.73,0.1 -0.42,0 -2.03,-0.1 -3.43,-0.1 -0.56,0 -0.77,0.07 -0.77,0.27l0.38 0.21c0.38,0 0.91,0 1.33,0.14 0.34,0.17 0.46,0.52 0.46,0.81 0,0.31 -0.14,0.81 -0.33,1.32 -0.77,2.52 -5.45,14.73 -7.48,19.42l-6.68 -17.89 0 0zm24.09 12.03c0,3.36 0,6.13 -0.18,7.59 -0.13,1.02 -0.31,1.79 -1.01,1.93 -0.31,0.07 -0.74,0.14 -1.05,0.14l-0.28 0.21c0,0.2 0.17,0.27 0.57,0.27 0.52,0 1.32,-0.03 2.03,-0.07 0.74,0 1.32,-0.03 1.39,-0.03 1.02,0 3.36,0.21 8.64,0.21 1.37,0 1.65,0 1.9,-0.91 0.17,-0.74 0.45,-3.12 0.45,-3.4 0,-0.24 0,-0.52 -0.21,-0.52 -0.17,0 -0.24,0.14 -0.31,0.52 -0.24,1.45 -0.67,2.14 -1.57,2.52 -0.91,0.38 -2.45,0.38 -3.36,0.38 -3.43,0 -3.96,-0.45 -4.06,-2.87 -0.03,-0.74 0,-4.79 0,-5.98l0 -3.08 0.24 -0.24c0.6,0 4.06,0.07 5.01,0.17 1.36,0.14 1.68,0.74 1.82,1.22 0.14,0.45 0.14,0.81 0.14,1.16l0.24 0.31c0.25,0 0.25,-0.38 0.25,-0.67 0,-0.24 0.06,-1.55 0.13,-2.24 0.11,-1.15 0.28,-1.75 0.28,-1.96l-0.17 -0.28c-0.14,0 -0.28,0.18 -0.52,0.45 -0.32,0.35 -0.81,0.42 -1.65,0.49 -0.81,0.07 -5.11,0.07 -5.56,0.07 -0.17,0 -0.21,-0.11 -0.21,-0.36l0 -9.66c0,-0.24 0.07,-0.34 0.21,-0.34 0.38,0 4.2,0.03 4.79,0.1 1.89,0.21 2.23,0.62 2.48,1.19 0.17,0.41 0.2,1.01 0.2,1.26 0,0.27 0.07,0.45 0.28,0.45l0.24 -0.39c0.07,-0.41 0.14,-1.96 0.18,-2.3 0.1,-0.98 0.27,-1.4 0.27,-1.64l-0.14 -0.32 -0.48 0.17c-0.28,0.07 -0.84,0.14 -1.5,0.17 -0.81,0.04 -7.76,0.04 -8.02,0.04 -0.17,0 -2.37,-0.11 -3.96,-0.11 -0.39,0 -0.55,0.07 -0.55,0.28l0.28 0.21c0.31,0 0.91,0.03 1.19,0.1 1.15,0.24 1.43,0.81 1.5,2 0.07,1.12 0.07,2.1 0.07,7.55l0 6.21 0.01 0zm18.11 0c0,3.36 0,6.13 -0.17,7.59 -0.14,1.02 -0.31,1.79 -1.02,1.93 -0.31,0.07 -0.74,0.14 -1.05,0.14l-0.28 0.21c0,0.2 0.18,0.27 0.56,0.27 1.05,0 3.25,-0.1 3.29,-0.1 0.17,0 2.37,0.1 4.3,0.1 0.38,0 0.57,-0.1 0.57,-0.27l-0.28 -0.21c-0.31,0 -1.09,-0.07 -1.57,-0.14 -1.05,-0.14 -1.26,-0.91 -1.36,-1.93 -0.18,-1.46 -0.18,-4.23 -0.18,-7.59l0 -0.84 0.25 -0.28 4.3 0.07 0.45 0.21c0.7,0.91 2.34,3.25 3.82,5.18 2,2.62 3.22,4.34 4.72,5.14 0.91,0.49 1.79,0.67 3.75,0.67l2.48 0c0.63,0 0.84,-0.07 0.84,-0.27l-0.31 -0.21c-0.21,0 -0.7,0 -1.36,-0.1 -0.88,-0.14 -2.38,-0.52 -4.27,-2.52 -2.03,-2.17 -4.41,-5.28 -7.28,-8.95 3.15,-2.91 4.23,-5.49 4.23,-8.09 0,-2.41 -1.53,-4.13 -2.41,-4.75 -1.86,-1.33 -4.2,-1.54 -6.4,-1.54 -1.09,0 -3.75,0.11 -4.13,0.11 -0.18,0 -2.38,-0.11 -3.95,-0.11 -0.38,0 -0.56,0.07 -0.56,0.28l0.27 0.21c0.32,0 0.92,0.03 1.19,0.1 1.16,0.24 1.44,0.81 1.5,2 0.07,1.12 0.07,2.1 0.07,7.55l0 6.14 -0.01 0zm2.79 -14.55c0,-0.21 0.11,-0.34 0.28,-0.41 0.34,-0.11 1.29,-0.21 2.34,-0.21 3.75,0 6.06,2.62 6.06,7 0,2.66 -0.91,4.55 -2.14,5.39 -0.8,0.57 -1.78,0.67 -2.62,0.67 -1.53,0 -3.15,-0.24 -3.66,-0.56l-0.25 -0.42 0 -11.46 -0.01 0zm25.98 25.19c1.9,0 3.78,-0.42 5.29,-1.47 2.41,-1.72 2.98,-4.37 2.98,-5.81 0,-2.79 -0.99,-4.96 -5.12,-8.22l-0.98 -0.77c-3.28,-2.69 -4.26,-3.89 -4.26,-5.87 0,-2.56 1.89,-4.06 4.3,-4.06 3.22,0 4.16,1.46 4.37,1.85 0.21,0.39 0.42,1.33 0.46,1.76 0.04,0.28 0.07,0.46 0.28,0.46 0.17,0 0.24,-0.24 0.24,-0.81 0,-2.37 0.14,-3.53 0.14,-3.7 0,-0.17 -0.07,-0.24 -0.35,-0.24 -0.27,0 -0.55,-0.04 -1.22,-0.18 -0.88,-0.2 -1.89,-0.34 -3.25,-0.34 -4.44,0 -7.25,2.55 -7.25,6.3 0,2.37 0.85,4.54 4.55,7.59l1.58 1.29c3.01,2.48 4.03,3.89 4.03,6.3 0,2.24 -1.65,4.65 -5.01,4.65 -2.34,0 -4.65,-0.98 -5.18,-3.56 -0.11,-0.49 -0.11,-0.98 -0.11,-1.3 0,-0.27 -0.03,-0.38 -0.24,-0.38 -0.17,0 -0.24,0.18 -0.27,0.57 -0.04,0.55 -0.18,1.96 -0.18,3.7 0,0.95 0.04,1.09 0.52,1.33 1.43,0.67 3.03,0.91 4.68,0.91l0 0zm16.95 -16.8c0,-5.46 0,-6.44 0.07,-7.56 0.07,-1.22 0.35,-1.82 1.3,-1.99 0.41,-0.07 0.62,-0.11 0.87,-0.11l0.28 -0.2c0,-0.21 -0.17,-0.28 -0.57,-0.28 -1.05,0 -3.25,0.1 -3.42,0.1 -0.18,0 -2.38,-0.1 -3.53,-0.1 -0.38,0 -0.57,0.07 -0.57,0.28l0.28 0.2c0.24,0 0.7,0.04 1.08,0.14 0.76,0.17 1.12,0.77 1.19,1.96 0.07,1.12 0.07,2.1 0.07,7.56l0 6.16c0,3.36 0,6.13 -0.17,7.59 -0.14,1.02 -0.31,1.79 -1.02,1.93 -0.31,0.07 -0.73,0.14 -1.05,0.14l-0.28 0.21c0,0.2 0.18,0.27 0.56,0.27 1.05,0 3.25,-0.1 3.43,-0.1 0.17,0 2.37,0.1 4.3,0.1 0.38,0 0.55,-0.1 0.55,-0.27l-0.27 -0.21c-0.32,0 -1.09,-0.07 -1.57,-0.14 -1.05,-0.14 -1.26,-0.91 -1.36,-1.93 -0.18,-1.46 -0.18,-4.23 -0.18,-7.59l0 -6.16 0.01 0zm17.39 -8.63l4.41 0.07c3.35,0.07 4.16,0.88 4.3,1.93l0.04 0.39c0.03,0.48 0.1,0.59 0.27,0.59 0.14,0 0.24,-0.14 0.24,-0.45 0,-0.38 0.11,-2.81 0.11,-3.85l-0.17 -0.41c-0.14,0 -0.45,0.07 -0.99,0.17 -0.55,0.07 -1.36,0.18 -2.48,0.18l-13.11 0c-0.43,0 -1.76,-0.07 -2.77,-0.18 -0.95,-0.07 -1.29,-0.41 -1.54,-0.41l-0.34 0.67c-0.07,0.27 -0.78,3.28 -0.78,3.63 0,0.21 0.07,0.31 0.18,0.31 0.14,0 0.24,-0.07 0.34,-0.34 0.11,-0.25 0.21,-0.49 0.6,-1.09 0.57,-0.84 1.4,-1.08 3.57,-1.12l5.18 -0.07 0 14.81c0,3.35 0,6.12 -0.17,7.59 -0.14,1.01 -0.33,1.79 -1.02,1.92 -0.31,0.07 -0.74,0.14 -1.05,0.14l-0.28 0.21c0,0.21 0.18,0.28 0.56,0.28 1.05,0 3.25,-0.11 3.42,-0.11 0.18,0 2.38,0.11 4.31,0.11 0.38,0 0.55,-0.11 0.55,-0.28l-0.28 -0.21c-0.31,0 -1.08,-0.07 -1.57,-0.14 -1.05,-0.13 -1.25,-0.91 -1.37,-1.92 -0.17,-1.47 -0.17,-4.24 -0.17,-7.59l0 -14.83 0.01 0zm20.71 18.89c0,0.56 0,2.03 -0.1,3.49 -0.07,1.02 -0.38,1.79 -1.09,1.93 -0.31,0.07 -0.74,0.14 -1.05,0.14l-0.27 0.21c0,0.2 0.17,0.27 0.55,0.27 1.05,0 3.25,-0.1 3.43,-0.1 0.17,0 2.37,0.1 4.3,0.1 0.38,0 0.56,-0.1 0.56,-0.27l-0.27 -0.21c-0.31,0 -1.09,-0.07 -1.58,-0.14 -1.05,-0.14 -1.36,-0.91 -1.43,-1.93 -0.11,-1.46 -0.11,-2.94 -0.11,-3.49l0 -3.01c0,-1.16 0,-2.24 0.53,-3.5 0.64,-1.5 5.53,-9.73 6.68,-11.12 0.78,-0.95 1.16,-1.36 1.86,-1.79 0.57,-0.35 1.22,-0.49 1.62,-0.49 0.27,0 0.46,-0.1 0.46,-0.27 0,-0.14 -0.21,-0.21 -0.46,-0.21 -0.66,0 -3.19,0.1 -3.4,0.1 -0.27,0 -1.39,-0.1 -2.3,-0.1 -0.35,0 -0.56,0.07 -0.56,0.21 0,0.17 0.21,0.24 0.53,0.34 0.42,0.11 0.56,0.49 0.56,0.98 0,0.45 -0.14,1.05 -0.6,1.79 -0.71,1.16 -5.15,8.82 -5.81,10.29 -0.63,-1.01 -5.87,-10.03 -6.43,-11.05 -0.28,-0.52 -0.45,-0.94 -0.45,-1.36 0,-0.28 0.17,-0.48 0.45,-0.62 0.32,-0.14 0.53,-0.18 0.53,-0.31 0,-0.14 -0.07,-0.25 -0.45,-0.25 -1.36,0 -2.69,0.11 -2.94,0.11 -0.18,0 -2.81,-0.11 -3.47,-0.11 -0.31,0 -0.45,0.11 -0.45,0.25l0.35 0.24c0.31,0 0.98,0.21 1.5,0.56 0.62,0.42 1.5,1.3 2.38,2.59 1.22,1.82 5.9,9.52 6.16,10.07 0.45,1.01 0.8,1.79 0.8,3.67l0.01 2.99 -0.04 0zm0 0l0 0 0 0z"/>
</svg>