<?xml version="1.0" encoding="UTF-8"?>
<svg xmlns="http://www.w3.org/2000/svg" xmlns:xlink="http://www.w3.org/1999/xlink" width="467.665" height="135.016" viewBox="0 0 374.132 108.013">
  <style>
	.themed-fill {
		fill: black;
	}
	.themed-stroke {
		stroke: black;
	}
  </style>
<defs>
<g>
<g id="glyph-0-0">
<path d="M 2.71875 -5.71875 L 2.71875 -4.671875 L 3.703125 -4.671875 C 4.390625 -4.65625 4.90625 -4.484375 5.28125 -4.171875 C 5.640625 -3.859375 5.828125 -3.40625 5.828125 -2.8125 C 5.828125 -2.1875 5.65625 -1.71875 5.328125 -1.40625 C 4.984375 -1.078125 4.5 -0.921875 3.890625 -0.921875 C 3.296875 -0.921875 2.828125 -1.078125 2.484375 -1.40625 C 2.140625 -1.71875 1.96875 -2.15625 1.96875 -2.703125 L 0.65625 -2.703125 C 0.65625 -1.84375 0.953125 -1.15625 1.546875 -0.625 C 2.15625 -0.109375 2.921875 0.140625 3.890625 0.140625 C 4.84375 0.140625 5.625 -0.109375 6.21875 -0.65625 C 6.828125 -1.1875 7.125 -1.921875 7.125 -2.84375 C 7.125 -3.421875 6.96875 -3.9375 6.671875 -4.34375 C 6.359375 -4.75 5.921875 -5.046875 5.359375 -5.234375 C 5.859375 -5.4375 6.25 -5.734375 6.546875 -6.171875 C 6.828125 -6.578125 6.96875 -7.015625 6.96875 -7.453125 C 6.96875 -8.34375 6.703125 -9.046875 6.15625 -9.5625 C 5.609375 -10.078125 4.84375 -10.34375 3.890625 -10.34375 C 2.96875 -10.34375 2.21875 -10.0625 1.640625 -9.53125 C 1.03125 -8.984375 0.75 -8.3125 0.75 -7.515625 L 2.046875 -7.515625 C 2.046875 -8.046875 2.203125 -8.484375 2.53125 -8.796875 C 2.875 -9.109375 3.3125 -9.265625 3.890625 -9.265625 C 5.078125 -9.265625 5.6875 -8.65625 5.6875 -7.46875 C 5.6875 -6.9375 5.5 -6.53125 5.15625 -6.203125 C 4.796875 -5.890625 4.296875 -5.71875 3.703125 -5.71875 Z M 2.71875 -5.71875 "/>
</g>
<g id="glyph-0-1">
<path d="M 4.515625 0 L 4.515625 -10.234375 L 4.3125 -10.234375 L 0.609375 -8.84375 L 0.609375 -7.671875 L 3.21875 -8.640625 L 3.21875 0 Z M 4.515625 0 "/>
</g>
<g id="glyph-0-2">
<path d="M 7.53125 0 L 7.53125 -1.0625 L 2.40625 -1.0625 L 5.140625 -4.015625 C 6.40625 -5.390625 7.0625 -6.59375 7.0625 -7.609375 C 7.0625 -8.4375 6.765625 -9.09375 6.21875 -9.59375 C 5.6875 -10.078125 4.9375 -10.34375 3.984375 -10.34375 C 2.96875 -10.34375 2.15625 -10.046875 1.546875 -9.46875 C 0.953125 -8.875 0.640625 -8.125 0.640625 -7.1875 L 1.953125 -7.1875 C 1.953125 -7.84375 2.125 -8.34375 2.484375 -8.71875 C 2.84375 -9.078125 3.34375 -9.265625 3.984375 -9.265625 C 4.515625 -9.265625 4.953125 -9.09375 5.265625 -8.765625 C 5.578125 -8.421875 5.75 -7.984375 5.75 -7.453125 C 5.75 -7.0625 5.65625 -6.671875 5.453125 -6.296875 C 5.25 -5.921875 4.890625 -5.4375 4.375 -4.84375 L 0.84375 -0.9375 L 0.84375 0 Z M 7.53125 0 "/>
</g>
<g id="glyph-0-3">
<path d="M 4.640625 -6.40625 L 4.640625 -7.609375 C 4.5 -7.671875 4.3125 -7.71875 4.078125 -7.71875 C 3.28125 -7.71875 2.6875 -7.375 2.265625 -6.703125 L 2.234375 -7.578125 L 0.96875 -7.578125 L 0.96875 0 L 2.28125 0 L 2.28125 -5.375 C 2.5625 -6.09375 3.140625 -6.46875 4 -6.46875 C 4.234375 -6.453125 4.453125 -6.4375 4.640625 -6.40625 Z M 4.640625 -6.40625 "/>
</g>
<g id="glyph-0-4">
<path d="M 0.625 -3.859375 L 0.625 -3.765625 C 0.625 -2.59375 0.953125 -1.65625 1.59375 -0.9375 C 2.21875 -0.21875 3.0625 0.140625 4.09375 0.140625 C 4.765625 0.140625 5.359375 -0.015625 5.890625 -0.34375 C 6.40625 -0.671875 6.8125 -1.140625 7.09375 -1.71875 C 7.390625 -2.296875 7.53125 -2.953125 7.53125 -3.703125 L 7.53125 -3.796875 C 7.53125 -4.984375 7.203125 -5.921875 6.5625 -6.640625 C 5.9375 -7.359375 5.109375 -7.71875 4.078125 -7.71875 C 3.40625 -7.71875 2.796875 -7.546875 2.28125 -7.234375 C 1.765625 -6.90625 1.34375 -6.453125 1.0625 -5.859375 C 0.78125 -5.265625 0.625 -4.609375 0.625 -3.859375 Z M 1.9375 -3.703125 C 1.9375 -4.640625 2.125 -5.359375 2.53125 -5.875 C 2.90625 -6.390625 3.421875 -6.65625 4.078125 -6.65625 C 4.734375 -6.65625 5.25 -6.390625 5.65625 -5.875 C 6.03125 -5.359375 6.234375 -4.6875 6.234375 -3.859375 C 6.234375 -2.921875 6.03125 -2.203125 5.65625 -1.6875 C 5.265625 -1.171875 4.75 -0.921875 4.09375 -0.921875 C 3.421875 -0.921875 2.90625 -1.15625 2.53125 -1.671875 C 2.125 -2.1875 1.9375 -2.859375 1.9375 -3.703125 Z M 1.9375 -3.703125 "/>
</g>
<g id="glyph-0-5">
<path d="M 2.734375 -9.40625 L 1.453125 -9.40625 L 1.453125 -7.578125 L 0.0625 -7.578125 L 0.0625 -6.5625 L 1.453125 -6.5625 L 1.453125 -1.875 C 1.453125 -1.21875 1.59375 -0.71875 1.875 -0.375 C 2.171875 -0.03125 2.609375 0.140625 3.203125 0.140625 C 3.515625 0.140625 3.84375 0.09375 4.1875 0 L 4.1875 -1.046875 C 3.9375 -0.984375 3.71875 -0.96875 3.578125 -0.96875 C 3.25 -0.96875 3.046875 -1.03125 2.921875 -1.1875 C 2.796875 -1.328125 2.734375 -1.5625 2.734375 -1.875 L 2.734375 -6.5625 L 4.15625 -6.5625 L 4.15625 -7.578125 L 2.734375 -7.578125 Z M 2.734375 -9.40625 "/>
</g>
<g id="glyph-0-6">
<path d="M 5.671875 0 L 7.015625 0 L 7.015625 -0.109375 C 6.84375 -0.515625 6.75 -1.078125 6.75 -1.78125 L 6.75 -5.265625 C 6.734375 -6.03125 6.46875 -6.625 5.984375 -7.0625 C 5.484375 -7.484375 4.796875 -7.71875 3.9375 -7.71875 C 3.375 -7.71875 2.875 -7.609375 2.40625 -7.40625 C 1.953125 -7.203125 1.578125 -6.90625 1.3125 -6.5625 C 1.046875 -6.21875 0.921875 -5.859375 0.921875 -5.484375 L 2.21875 -5.484375 C 2.21875 -5.8125 2.375 -6.09375 2.703125 -6.328125 C 3.015625 -6.5625 3.40625 -6.671875 3.859375 -6.671875 C 4.375 -6.671875 4.78125 -6.53125 5.046875 -6.265625 C 5.3125 -6 5.453125 -5.640625 5.453125 -5.1875 L 5.453125 -4.59375 L 4.1875 -4.59375 C 3.09375 -4.59375 2.265625 -4.359375 1.65625 -3.9375 C 1.0625 -3.5 0.765625 -2.890625 0.765625 -2.09375 C 0.765625 -1.453125 0.984375 -0.921875 1.484375 -0.484375 C 1.953125 -0.0625 2.5625 0.140625 3.3125 0.140625 C 4.140625 0.140625 4.875 -0.171875 5.484375 -0.796875 C 5.515625 -0.421875 5.578125 -0.140625 5.671875 0 Z M 3.515625 -0.984375 C 3.078125 -0.984375 2.734375 -1.109375 2.46875 -1.328125 C 2.1875 -1.5625 2.0625 -1.875 2.0625 -2.28125 C 2.0625 -3.203125 2.859375 -3.671875 4.453125 -3.671875 L 5.453125 -3.671875 L 5.453125 -2.125 C 5.28125 -1.78125 5.015625 -1.5 4.65625 -1.3125 C 4.28125 -1.09375 3.921875 -0.984375 3.515625 -0.984375 Z M 3.515625 -0.984375 "/>
</g>
<g id="glyph-0-7">
<path d="M 4.125 0.140625 C 5.390625 0.140625 6.359375 -0.34375 6.984375 -1.3125 L 6.203125 -1.9375 C 5.953125 -1.625 5.671875 -1.375 5.34375 -1.1875 C 5.03125 -1 4.640625 -0.921875 4.1875 -0.921875 C 3.546875 -0.921875 3.015625 -1.140625 2.59375 -1.609375 C 2.1875 -2.0625 1.96875 -2.671875 1.953125 -3.40625 L 7.078125 -3.40625 L 7.078125 -3.953125 C 7.078125 -5.15625 6.796875 -6.078125 6.25 -6.734375 C 5.703125 -7.390625 4.9375 -7.71875 3.953125 -7.71875 C 3.359375 -7.71875 2.796875 -7.546875 2.28125 -7.21875 C 1.765625 -6.875 1.359375 -6.40625 1.078125 -5.828125 C 0.78125 -5.234375 0.640625 -4.5625 0.640625 -3.8125 L 0.640625 -3.578125 C 0.640625 -2.4375 0.96875 -1.53125 1.625 -0.859375 C 2.265625 -0.1875 3.09375 0.140625 4.125 0.140625 Z M 3.953125 -6.65625 C 4.5 -6.65625 4.9375 -6.46875 5.25 -6.109375 C 5.5625 -5.734375 5.734375 -5.234375 5.78125 -4.578125 L 5.78125 -4.46875 L 2 -4.46875 C 2.0625 -5.15625 2.28125 -5.6875 2.640625 -6.078125 C 2.984375 -6.453125 3.421875 -6.65625 3.953125 -6.65625 Z M 3.953125 -6.65625 "/>
</g>
</g>
<clipPath id="clip-0">
<path clip-rule="nonzero" d="M 57 64 L 113 64 L 113 108.011719 L 57 108.011719 Z M 57 64 "/>
</clipPath>
<clipPath id="clip-1">
<path clip-rule="nonzero" d="M 159 64 L 215 64 L 215 108.011719 L 159 108.011719 Z M 159 64 "/>
</clipPath>
<clipPath id="clip-2">
<path clip-rule="nonzero" d="M 335 24 L 374.132812 24 L 374.132812 80 L 335 80 Z M 335 24 "/>
</clipPath>
<clipPath id="clip-3">
<path clip-rule="nonzero" d="M 332 4 L 374.132812 4 L 374.132812 58 L 332 58 Z M 332 4 "/>
</clipPath>
</defs>
<path fill-rule="nonzero" fill="rgb(36.863708%, 71.372986%, 80.39093%)" fill-opacity="1" stroke-width="1.19553" stroke-linecap="butt" stroke-linejoin="miter" class="themed-stroke" stroke-opacity="1" stroke-miterlimit="10" d="M 10.779125 5.072844 C 10.779125 11.025969 5.951 15.850188 0.00178125 15.850188 C -5.951344 15.850188 -10.779469 11.025969 -10.779469 5.072844 C -10.779469 -0.880281 -5.951344 -5.708406 0.00178125 -5.708406 C 5.951 -5.708406 10.779125 -0.880281 10.779125 5.072844 Z M 10.779125 5.072844 " transform="matrix(1, 0, 0, -1, 93.924, 16.483)"/>
<g fill="rgb(0%, 0%, 0%)" fill-opacity="1">
<use xlink:href="#glyph-0-0" x="89.9" y="16.483"/>
</g>
<path fill-rule="nonzero" fill="rgb(36.863708%, 71.372986%, 80.39093%)" fill-opacity="1" stroke-width="1.19553" stroke-linecap="butt" stroke-linejoin="miter" class="themed-stroke" stroke-opacity="1" stroke-miterlimit="10" d="M 10.761625 5.125813 C 10.761625 11.067219 5.941313 15.883625 -0.00009375 15.883625 C -5.9415 15.883625 -10.757906 11.067219 -10.757906 5.125813 C -10.757906 -0.815594 -5.9415 -5.635906 -0.00009375 -5.635906 C 5.941313 -5.635906 10.761625 -0.815594 10.761625 5.125813 Z M 10.761625 5.125813 " transform="matrix(1, 0, 0, -1, 66.254, 56.868)"/>
<g fill="rgb(0%, 0%, 0%)" fill-opacity="1">
<use xlink:href="#glyph-0-1" x="63.141" y="56.868"/>
</g>
<path fill-rule="nonzero" fill="rgb(36.863708%, 71.372986%, 80.39093%)" fill-opacity="1" d="M 95.457031 92.128906 C 95.457031 86.183594 90.640625 81.367188 84.699219 81.367188 C 78.757812 81.367188 73.9375 86.183594 73.9375 92.128906 C 73.9375 98.070312 78.757812 102.886719 84.699219 102.886719 C 90.640625 102.886719 95.457031 98.070312 95.457031 92.128906 Z M 95.457031 92.128906 "/>
<g clip-path="url(#clip-0)">
<path fill="none" stroke-width="1.19553" stroke-linecap="butt" stroke-linejoin="miter" class="themed-stroke" stroke-opacity="1" stroke-miterlimit="10" d="M 10.758031 5.124094 C 10.758031 11.069406 5.941625 15.885813 0.00021875 15.885813 C -5.941187 15.885813 -10.7615 11.069406 -10.7615 5.124094 C -10.7615 -0.817312 -5.941187 -5.633719 0.00021875 -5.633719 C 5.941625 -5.633719 10.758031 -0.817312 10.758031 5.124094 Z M 10.758031 5.124094 " transform="matrix(1, 0, 0, -1, 84.699, 97.253)"/>
</g>
<g fill="rgb(0%, 0%, 0%)" fill-opacity="1">
<use xlink:href="#glyph-0-2" x="80.675" y="97.253"/>
</g>
<path fill-rule="nonzero" fill="rgb(36.863708%, 71.372986%, 80.39093%)" fill-opacity="1" stroke-width="1.19553" stroke-linecap="butt" stroke-linejoin="miter" class="themed-stroke" stroke-opacity="1" stroke-miterlimit="10" d="M 10.777656 5.072844 C 10.777656 11.025969 5.953438 15.850188 0.0003125 15.850188 C -5.952812 15.850188 -10.777031 11.025969 -10.777031 5.072844 C -10.777031 -0.880281 -5.952812 -5.708406 0.0003125 -5.708406 C 5.953438 -5.708406 10.777656 -0.880281 10.777656 5.072844 Z M 10.777656 5.072844 " transform="matrix(1, 0, 0, -1, 232.945, 16.483)"/>
<g fill="rgb(0%, 0%, 0%)" fill-opacity="1">
<use xlink:href="#glyph-0-0" x="228.921" y="16.483"/>
</g>
<path fill-rule="nonzero" fill="rgb(36.863708%, 71.372986%, 80.39093%)" fill-opacity="1" stroke-width="1.19553" stroke-linecap="butt" stroke-linejoin="miter" class="themed-stroke" stroke-opacity="1" stroke-miterlimit="10" d="M 10.760156 5.125813 C 10.760156 11.067219 5.94375 15.883625 -0.0015625 15.883625 C -5.942969 15.883625 -10.759375 11.067219 -10.759375 5.125813 C -10.759375 -0.815594 -5.942969 -5.635906 -0.0015625 -5.635906 C 5.94375 -5.635906 10.760156 -0.815594 10.760156 5.125813 Z M 10.760156 5.125813 " transform="matrix(1, 0, 0, -1, 205.275, 56.868)"/>
<g fill="rgb(0%, 0%, 0%)" fill-opacity="1">
<use xlink:href="#glyph-0-2" x="201.25" y="56.868"/>
</g>
<path fill-rule="nonzero" fill="rgb(36.863708%, 71.372986%, 80.39093%)" fill-opacity="1" d="M 197.589844 92.128906 C 197.589844 86.183594 192.773438 81.367188 186.828125 81.367188 C 180.886719 81.367188 176.070312 86.183594 176.070312 92.128906 C 176.070312 98.070312 180.886719 102.886719 186.828125 102.886719 C 192.773438 102.886719 197.589844 98.070312 197.589844 92.128906 Z M 197.589844 92.128906 "/>
<g clip-path="url(#clip-1)">
<path fill="none" stroke-width="1.19553" stroke-linecap="butt" stroke-linejoin="miter" class="themed-stroke" stroke-opacity="1" stroke-miterlimit="10" d="M 10.760844 5.124094 C 10.760844 11.069406 5.944438 15.885813 -0.000875 15.885813 C -5.942281 15.885813 -10.758687 11.069406 -10.758687 5.124094 C -10.758687 -0.817312 -5.942281 -5.633719 -0.000875 -5.633719 C 5.944438 -5.633719 10.760844 -0.817312 10.760844 5.124094 Z M 10.760844 5.124094 " transform="matrix(1, 0, 0, -1, 186.829, 97.253)"/>
</g>
<g fill="rgb(0%, 0%, 0%)" fill-opacity="1">
<use xlink:href="#glyph-0-1" x="183.716" y="97.253"/>
</g>
<path fill-rule="nonzero" fill="rgb(36.863708%, 71.372986%, 80.39093%)" fill-opacity="1" stroke-width="1.19553" stroke-linecap="butt" stroke-linejoin="miter" class="themed-stroke" stroke-opacity="1" stroke-miterlimit="10" d="M 10.7595 5.123625 C 10.7595 11.068938 5.943094 15.885344 0.0016875 15.885344 C -5.943625 15.885344 -10.760031 11.068938 -10.760031 5.123625 C -10.760031 -0.817781 -5.943625 -5.634187 0.0016875 -5.634187 C 5.943094 -5.634187 10.7595 -0.817781 10.7595 5.123625 Z M 10.7595 5.123625 " transform="matrix(1, 0, 0, -1, 344.303, 16.483)"/>
<g fill="rgb(0%, 0%, 0%)" fill-opacity="1">
<use xlink:href="#glyph-0-2" x="340.279" y="16.483"/>
</g>
<path fill-rule="nonzero" fill="rgb(36.863708%, 71.372986%, 80.39093%)" fill-opacity="1" stroke-width="1.19553" stroke-linecap="butt" stroke-linejoin="miter" class="themed-stroke" stroke-opacity="1" stroke-miterlimit="10" d="M 10.759375 5.125813 C 10.759375 11.067219 5.942969 15.883625 0.0015625 15.883625 C -5.94375 15.883625 -10.760156 11.067219 -10.760156 5.125813 C -10.760156 -0.815594 -5.94375 -5.635906 0.0015625 -5.635906 C 5.942969 -5.635906 10.759375 -0.815594 10.759375 5.125813 Z M 10.759375 5.125813 " transform="matrix(1, 0, 0, -1, 325.85, 56.868)"/>
<g fill="rgb(0%, 0%, 0%)" fill-opacity="1">
<use xlink:href="#glyph-0-1" x="322.737" y="56.868"/>
</g>
<path fill-rule="nonzero" fill="rgb(36.863708%, 71.372986%, 80.39093%)" fill-opacity="1" d="M 373.535156 51.796875 C 373.535156 45.84375 368.707031 41.019531 362.757812 41.019531 C 356.804688 41.019531 351.976562 45.84375 351.976562 51.796875 C 351.976562 57.75 356.804688 62.574219 362.757812 62.574219 C 368.707031 62.574219 373.535156 57.75 373.535156 51.796875 Z M 373.535156 51.796875 "/>
<g clip-path="url(#clip-2)">
<path fill="none" stroke-width="1.19553" stroke-linecap="butt" stroke-linejoin="miter" class="themed-stroke" stroke-opacity="1" stroke-miterlimit="10" d="M 10.779156 5.071125 C 10.779156 11.02425 5.951031 15.848469 0.0018125 15.848469 C -5.951312 15.848469 -10.779437 11.02425 -10.779437 5.071125 C -10.779437 -0.882 -5.951312 -5.706219 0.0018125 -5.706219 C 5.951031 -5.706219 10.779156 -0.882 10.779156 5.071125 Z M 10.779156 5.071125 " transform="matrix(1, 0, 0, -1, 362.756, 56.868)"/>
</g>
<g fill="rgb(0%, 0%, 0%)" fill-opacity="1">
<use xlink:href="#glyph-0-0" x="358.732" y="56.868"/>
</g>
<path fill="none" stroke-width="1.19553" stroke-linecap="butt" stroke-linejoin="miter" class="themed-stroke" stroke-opacity="1" stroke-miterlimit="10" d="M -131.625719 -44.695969 L -145.89525 -65.492844 " transform="matrix(1, 0, 0, -1, 219.114, -23.903)"/>
<path fill="none" stroke-width="0.9564" stroke-linecap="round" stroke-linejoin="round" class="themed-stroke" stroke-opacity="1" stroke-miterlimit="10" d="M -1.911108 2.55033 C -1.752089 1.593492 -0.0014769 0.160486 0.477414 0.00107554 C 0.000625247 -0.160221 -1.75298 -1.59545 -1.913658 -2.548958 " transform="matrix(-0.56569, 0.82454, 0.82454, 0.56569, 73.2184, 41.59012)"/>
<path fill="none" stroke-width="1.19553" stroke-linecap="butt" stroke-linejoin="miter" class="themed-stroke" stroke-opacity="1" stroke-miterlimit="10" d="M -148.14525 -85.977219 L -139.531969 -104.832687 " transform="matrix(1, 0, 0, -1, 219.114, -23.903)"/>
<path fill="none" stroke-width="0.9564" stroke-linecap="round" stroke-linejoin="round" class="themed-stroke" stroke-opacity="1" stroke-miterlimit="10" d="M -1.91289 2.552177 C -1.753291 1.594584 -0.0000175173 0.158208 0.477541 0.000219644 C 0.000701168 -0.159925 -1.752903 -1.59223 -1.911437 -2.550542 " transform="matrix(0.41542, 0.90956, 0.90956, -0.41542, 79.58267, 80.92902)"/>
<path fill="none" stroke-width="1.19553" stroke-linecap="butt" stroke-linejoin="miter" class="themed-stroke" stroke-opacity="1" stroke-miterlimit="10" d="M 7.397719 -44.695969 L -6.871812 -65.492844 " transform="matrix(1, 0, 0, -1, 219.114, -23.903)"/>
<path fill="none" stroke-width="0.9564" stroke-linecap="round" stroke-linejoin="round" class="themed-stroke" stroke-opacity="1" stroke-miterlimit="10" d="M -1.91178 2.551309 C -1.752761 1.594472 0.0000612694 0.158244 0.478952 -0.00116647 C -0.000046596 -0.159242 -1.753652 -1.594471 -1.912119 -2.5512 " transform="matrix(-0.56569, 0.82454, 0.82454, 0.56569, 212.24065, 41.59012)"/>
<path fill="none" stroke-width="1.19553" stroke-linecap="butt" stroke-linejoin="miter" class="themed-stroke" stroke-opacity="1" stroke-miterlimit="10" d="M -18.559312 -85.977219 L -27.168687 -104.832687 " transform="matrix(1, 0, 0, -1, 219.114, -23.903)"/>
<path fill="none" stroke-width="0.9564" stroke-linecap="round" stroke-linejoin="round" class="themed-stroke" stroke-opacity="1" stroke-miterlimit="10" d="M -1.911451 2.550573 C -1.752917 1.592261 0.000687145 0.159956 0.477527 -0.000188943 C -0.0000315395 -0.158177 -1.753305 -1.594553 -1.912904 -2.552146 " transform="matrix(-0.41542, 0.90956, 0.90956, 0.41542, 191.94464, 80.92902)"/>
<path fill="none" stroke-width="1.19553" stroke-linecap="butt" stroke-linejoin="miter" class="themed-stroke" stroke-opacity="1" stroke-miterlimit="10" d="M 120.471938 -45.5905 L 111.85475 -64.445969 " transform="matrix(1, 0, 0, -1, 219.114, -23.903)"/>
<path fill="none" stroke-width="0.9564" stroke-linecap="round" stroke-linejoin="round" class="themed-stroke" stroke-opacity="1" stroke-miterlimit="10" d="M -1.913049 2.548956 C -1.752433 1.595854 -0.000540684 0.158666 0.479875 0.00022298 C -0.00120802 -0.159465 -1.754236 -1.596112 -1.91175 -2.548547 " transform="matrix(-0.41557, 0.9095, 0.9095, 0.41557, 330.96875, 40.54393)"/>
<g clip-path="url(#clip-3)">
<path fill="none" stroke-width="1.19553" stroke-linecap="butt" stroke-linejoin="miter" class="themed-stroke" stroke-opacity="1" stroke-miterlimit="10" d="M 129.905531 -45.594406 L 138.526625 -64.481125 " transform="matrix(1, 0, 0, -1, 219.114, -23.903)"/>
</g>
<path fill="none" stroke-width="0.9564" stroke-linecap="round" stroke-linejoin="round" class="themed-stroke" stroke-opacity="1" stroke-miterlimit="10" d="M -1.911678 2.54892 C -1.755313 1.593014 0.0000426125 0.160797 0.476027 -0.000583514 C -0.000753798 -0.160886 -1.753857 -1.593762 -1.912067 -2.552116 " transform="matrix(0.41512, 0.90971, 0.90971, -0.41512, 357.63886, 40.57843)"/>
<path fill="none" stroke-width="1.19553" stroke-linecap="butt" stroke-linejoin="miter" class="themed-stroke" stroke-opacity="1" stroke-dasharray="1.19553 1.99255" stroke-miterlimit="10" d="M -173.008531 -108.961594 C -174.461656 -98.531906 -170.879625 -89.692062 -161.817125 -82.629562 " transform="matrix(1, 0, 0, -1, 219.114, -23.903)"/>
<path fill="none" stroke-width="0.9564" stroke-linecap="round" stroke-linejoin="round" class="themed-stroke" stroke-opacity="1" stroke-miterlimit="10" d="M -1.912633 2.549125 C -1.75418 1.592277 -0.00144416 0.160717 0.47696 -0.000644567 C 0.00128841 -0.159137 -1.752858 -1.594751 -1.91372 -2.550463 " transform="matrix(0.13809, 0.9904, 0.9904, -0.13809, 46.10665, 85.05878)"/>
<g class="themed-fill" fill-opacity="1">
<use xlink:href="#glyph-0-3" x="4.782" y="75.399"/>
<use xlink:href="#glyph-0-4" x="9.487554" y="75.399"/>
<use xlink:href="#glyph-0-5" x="17.664888" y="75.399"/>
<use xlink:href="#glyph-0-6" x="22.341749" y="75.399"/>
<use xlink:href="#glyph-0-5" x="30.131735" y="75.399"/>
<use xlink:href="#glyph-0-7" x="34.808597" y="75.399"/>
</g>
<path fill="none" stroke-width="1.19553" stroke-linecap="butt" stroke-linejoin="miter" class="themed-stroke" stroke-opacity="1" stroke-dasharray="1.19553 1.99255" stroke-miterlimit="10" d="M -133.336656 -104.727219 C -132.418687 -95.094406 -135.727281 -87.844406 -142.83275 -82.789719 " transform="matrix(1, 0, 0, -1, 219.114, -23.903)"/>
<path fill="none" stroke-width="0.9564" stroke-linecap="round" stroke-linejoin="round" class="themed-stroke" stroke-opacity="1" stroke-miterlimit="10" d="M -1.915083 2.550964 C -1.751183 1.593449 -0.000844104 0.159066 0.476654 0.000336203 C 0.00141378 -0.160635 -1.754928 -1.593531 -1.912995 -2.550122 " transform="matrix(-0.81454, -0.58002, -0.58002, 0.81454, 76.28298, 58.88557)"/>
<g class="themed-fill" fill-opacity="1">
<use xlink:href="#glyph-0-3" x="89.321" y="72.721"/>
<use xlink:href="#glyph-0-4" x="94.026554" y="72.721"/>
<use xlink:href="#glyph-0-5" x="102.203888" y="72.721"/>
<use xlink:href="#glyph-0-6" x="106.880749" y="72.721"/>
<use xlink:href="#glyph-0-5" x="114.670735" y="72.721"/>
<use xlink:href="#glyph-0-7" x="119.347597" y="72.721"/>
</g>
<path fill="none" stroke-width="1.19553" stroke-linecap="butt" stroke-linejoin="miter" class="themed-stroke" stroke-opacity="1" stroke-dasharray="1.19553 1.99255" stroke-miterlimit="10" d="M -12.95775 -64.324875 C -12.071031 -52.910812 -6.758531 -45.160812 2.706313 -40.633469 " transform="matrix(1, 0, 0, -1, 219.114, -23.903)"/>
<path fill="none" stroke-width="0.9564" stroke-linecap="round" stroke-linejoin="round" class="themed-stroke" stroke-opacity="1" stroke-miterlimit="10" d="M -1.914105 2.551378 C -1.752364 1.594936 -0.000944477 0.159559 0.477107 0.00017247 C -0.00234508 -0.160222 -1.754264 -1.59567 -1.912304 -2.550711 " transform="matrix(0.90205, -0.43149, -0.43149, -0.90205, 221.8197, 16.72946)"/>
<g class="themed-fill" fill-opacity="1">
<use xlink:href="#glyph-0-3" x="167.883" y="30.593"/>
<use xlink:href="#glyph-0-4" x="172.588554" y="30.593"/>
<use xlink:href="#glyph-0-5" x="180.765888" y="30.593"/>
<use xlink:href="#glyph-0-6" x="185.442749" y="30.593"/>
<use xlink:href="#glyph-0-5" x="193.232735" y="30.593"/>
<use xlink:href="#glyph-0-7" x="197.909597" y="30.593"/>
</g>
<path fill="none" stroke-width="1.19553" stroke-linecap="butt" stroke-linejoin="miter" class="themed-stroke" stroke-opacity="1" stroke-dasharray="1.19553 1.99255" stroke-miterlimit="10" d="M 41.218031 -68.461594 C 40.936781 -56.313156 35.311781 -47.063156 23.811781 -40.770187 " transform="matrix(1, 0, 0, -1, 219.114, -23.903)"/>
<path fill="none" stroke-width="0.9564" stroke-linecap="round" stroke-linejoin="round" class="themed-stroke" stroke-opacity="1" stroke-miterlimit="10" d="M -1.910984 2.549552 C -1.753184 1.592523 -0.000305759 0.161293 0.476652 0.00187569 C 0.00016287 -0.159126 -1.752045 -1.595959 -1.914575 -2.549552 " transform="matrix(0.02292, 0.9997, 0.9997, -0.02292, 260.33095, 44.55869)"/>
<g class="themed-fill" fill-opacity="1">
<use xlink:href="#glyph-0-3" x="261.218" y="33.288"/>
<use xlink:href="#glyph-0-4" x="265.923554" y="33.288"/>
<use xlink:href="#glyph-0-5" x="274.100888" y="33.288"/>
<use xlink:href="#glyph-0-6" x="278.777749" y="33.288"/>
<use xlink:href="#glyph-0-5" x="286.567735" y="33.288"/>
<use xlink:href="#glyph-0-7" x="291.244597" y="33.288"/>
</g>
</svg>
