<?xml version="1.0" encoding="UTF-8"?>
<svg xmlns="http://www.w3.org/2000/svg" xmlns:xlink="http://www.w3.org/1999/xlink" width="515.855" height="278.127" viewBox="0 0 412.684 222.502">
  <style>
	.circle {
		fill: rgb(36.863708%, 71.372986%, 80.39093%);
		fill-rule=nonzero;
		stroke: black;
		fill-opacity:1;
		stroke-width:1.19553;
		stroke-linecap: butt;
		stroke-linejoin: miter;
		stroke-opacity: 1;
		stroke-miterlimit: 10;
	}
	.themed-fill {
		fill: black;
	}
	.themed-dark-fill {
		fill: black;
	}
	.themed-stroke {
		stroke: black;
	}
  </style>
<defs>
<g>
<g id="glyph-0-0">
<path d="M 4.390625 -7.25 C 4.5 -7.703125 4.53125 -7.8125 5.578125 -7.8125 C 5.90625 -7.8125 5.984375 -7.8125 5.984375 -8.046875 C 5.984375 -8.15625 5.859375 -8.15625 5.8125 -8.15625 C 5.5625 -8.15625 5.296875 -8.140625 5.0625 -8.140625 L 3.453125 -8.140625 C 3.234375 -8.140625 2.96875 -8.15625 2.734375 -8.15625 C 2.640625 -8.15625 2.515625 -8.15625 2.515625 -7.9375 C 2.515625 -7.8125 2.625 -7.8125 2.796875 -7.8125 C 3.53125 -7.8125 3.53125 -7.71875 3.53125 -7.59375 C 3.53125 -7.5625 3.53125 -7.5 3.484375 -7.3125 L 1.859375 -0.890625 C 1.75 -0.46875 1.734375 -0.34375 0.890625 -0.34375 C 0.671875 -0.34375 0.546875 -0.34375 0.546875 -0.125 C 0.546875 0 0.625 0 0.859375 0 L 6.21875 0 C 6.484375 0 6.484375 -0.015625 6.578125 -0.234375 L 7.5 -2.765625 C 7.515625 -2.828125 7.546875 -2.90625 7.546875 -2.9375 C 7.546875 -3.015625 7.484375 -3.0625 7.421875 -3.0625 C 7.40625 -3.0625 7.34375 -3.0625 7.328125 -3.015625 C 7.296875 -3 7.296875 -2.96875 7.203125 -2.75 C 6.828125 -1.703125 6.28125 -0.34375 4.265625 -0.34375 L 3.125 -0.34375 C 2.953125 -0.34375 2.921875 -0.34375 2.859375 -0.359375 C 2.71875 -0.375 2.71875 -0.390625 2.71875 -0.484375 C 2.71875 -0.578125 2.734375 -0.640625 2.765625 -0.75 Z M 4.390625 -7.25 "/>
</g>
<g id="glyph-0-1">
<path d="M 2.328125 0.046875 C 2.328125 -0.640625 2.109375 -1.15625 1.609375 -1.15625 C 1.234375 -1.15625 1.046875 -0.84375 1.046875 -0.578125 C 1.046875 -0.328125 1.21875 0 1.625 0 C 1.78125 0 1.90625 -0.046875 2.015625 -0.15625 C 2.046875 -0.171875 2.0625 -0.171875 2.0625 -0.171875 C 2.09375 -0.171875 2.09375 -0.015625 2.09375 0.046875 C 2.09375 0.4375 2.015625 1.21875 1.328125 2 C 1.1875 2.140625 1.1875 2.15625 1.1875 2.1875 C 1.1875 2.25 1.25 2.3125 1.3125 2.3125 C 1.40625 2.3125 2.328125 1.421875 2.328125 0.046875 Z M 2.328125 0.046875 "/>
</g>
<g id="glyph-1-0">
<path d="M 2.5 -5.078125 C 2.5 -5.296875 2.484375 -5.296875 2.265625 -5.296875 C 1.9375 -4.984375 1.515625 -4.796875 0.765625 -4.796875 L 0.765625 -4.53125 C 0.984375 -4.53125 1.40625 -4.53125 1.875 -4.734375 L 1.875 -0.65625 C 1.875 -0.359375 1.84375 -0.265625 1.09375 -0.265625 L 0.8125 -0.265625 L 0.8125 0 C 1.140625 -0.03125 1.828125 -0.03125 2.1875 -0.03125 C 2.546875 -0.03125 3.234375 -0.03125 3.5625 0 L 3.5625 -0.265625 L 3.28125 -0.265625 C 2.53125 -0.265625 2.5 -0.359375 2.5 -0.65625 Z M 2.5 -5.078125 "/>
</g>
<g id="glyph-1-1">
<path d="M 2.25 -1.625 C 2.375 -1.75 2.703125 -2.015625 2.84375 -2.125 C 3.328125 -2.578125 3.796875 -3.015625 3.796875 -3.734375 C 3.796875 -4.6875 3 -5.296875 2.015625 -5.296875 C 1.046875 -5.296875 0.421875 -4.578125 0.421875 -3.859375 C 0.421875 -3.46875 0.734375 -3.421875 0.84375 -3.421875 C 1.015625 -3.421875 1.265625 -3.53125 1.265625 -3.84375 C 1.265625 -4.25 0.859375 -4.25 0.765625 -4.25 C 1 -4.84375 1.53125 -5.03125 1.921875 -5.03125 C 2.65625 -5.03125 3.046875 -4.40625 3.046875 -3.734375 C 3.046875 -2.90625 2.46875 -2.296875 1.515625 -1.34375 L 0.515625 -0.296875 C 0.421875 -0.21875 0.421875 -0.203125 0.421875 0 L 3.5625 0 L 3.796875 -1.421875 L 3.546875 -1.421875 C 3.53125 -1.265625 3.46875 -0.875 3.375 -0.71875 C 3.328125 -0.65625 2.71875 -0.65625 2.59375 -0.65625 L 1.171875 -0.65625 Z M 2.25 -1.625 "/>
</g>
<g id="glyph-1-2">
<path d="M 2.015625 -2.65625 C 2.640625 -2.65625 3.046875 -2.203125 3.046875 -1.359375 C 3.046875 -0.359375 2.484375 -0.078125 2.0625 -0.078125 C 1.625 -0.078125 1.015625 -0.234375 0.734375 -0.65625 C 1.03125 -0.65625 1.234375 -0.84375 1.234375 -1.09375 C 1.234375 -1.359375 1.046875 -1.53125 0.78125 -1.53125 C 0.578125 -1.53125 0.34375 -1.40625 0.34375 -1.078125 C 0.34375 -0.328125 1.15625 0.171875 2.078125 0.171875 C 3.125 0.171875 3.875 -0.5625 3.875 -1.359375 C 3.875 -2.03125 3.34375 -2.625 2.53125 -2.8125 C 3.15625 -3.03125 3.640625 -3.5625 3.640625 -4.203125 C 3.640625 -4.84375 2.921875 -5.296875 2.09375 -5.296875 C 1.234375 -5.296875 0.59375 -4.84375 0.59375 -4.234375 C 0.59375 -3.9375 0.78125 -3.8125 1 -3.8125 C 1.25 -3.8125 1.40625 -3.984375 1.40625 -4.21875 C 1.40625 -4.515625 1.140625 -4.625 0.96875 -4.625 C 1.3125 -5.0625 1.921875 -5.09375 2.0625 -5.09375 C 2.265625 -5.09375 2.875 -5.03125 2.875 -4.203125 C 2.875 -3.65625 2.640625 -3.3125 2.53125 -3.1875 C 2.296875 -2.9375 2.109375 -2.921875 1.625 -2.890625 C 1.46875 -2.890625 1.40625 -2.875 1.40625 -2.765625 C 1.40625 -2.65625 1.484375 -2.65625 1.625 -2.65625 Z M 2.015625 -2.65625 "/>
</g>
<g id="glyph-2-0">
<path d="M 2.203125 -4.578125 C 2.203125 -4.90625 1.921875 -5.15625 1.625 -5.15625 C 1.28125 -5.15625 1.046875 -4.875 1.046875 -4.578125 C 1.046875 -4.21875 1.34375 -4 1.609375 -4 C 1.9375 -4 2.203125 -4.25 2.203125 -4.578125 Z M 2.203125 -0.578125 C 2.203125 -0.90625 1.921875 -1.15625 1.625 -1.15625 C 1.28125 -1.15625 1.046875 -0.890625 1.046875 -0.578125 C 1.046875 -0.234375 1.34375 0 1.609375 0 C 1.9375 0 2.203125 -0.25 2.203125 -0.578125 Z M 2.203125 -0.578125 "/>
</g>
<g id="glyph-3-0">
<path d="M 4.140625 -7.5 C 4.140625 -7.84375 4.109375 -7.84375 3.734375 -7.84375 C 2.84375 -7.078125 1.515625 -7.078125 1.25 -7.078125 L 1.03125 -7.078125 L 1.03125 -6.5625 L 1.25 -6.5625 C 1.671875 -6.5625 2.3125 -6.640625 2.78125 -6.796875 L 2.78125 -0.515625 L 1.125 -0.515625 L 1.125 0 C 1.625 -0.03125 2.875 -0.03125 3.4375 -0.03125 C 4 -0.03125 5.265625 -0.03125 5.765625 0 L 5.765625 -0.515625 L 4.140625 -0.515625 Z M 4.140625 -7.5 "/>
</g>
<g id="glyph-3-1">
<path d="M 6.03125 -2.5625 L 5.53125 -2.5625 C 5.5 -2.3125 5.421875 -1.609375 5.234375 -1.5 C 5.140625 -1.40625 4.203125 -1.40625 4.03125 -1.40625 L 2.171875 -1.40625 C 2.625 -1.796875 3.71875 -2.703125 3.890625 -2.828125 C 5.21875 -3.828125 6.03125 -4.4375 6.03125 -5.578125 C 6.03125 -7 4.75 -7.84375 3.171875 -7.84375 C 1.828125 -7.84375 0.671875 -7.078125 0.671875 -5.9375 C 0.671875 -5.3125 1.1875 -5.125 1.453125 -5.125 C 1.828125 -5.125 2.265625 -5.375 2.265625 -5.921875 C 2.265625 -6.4375 1.890625 -6.6875 1.515625 -6.734375 C 2 -7.28125 2.625 -7.328125 2.875 -7.328125 C 3.984375 -7.328125 4.5 -6.4375 4.5 -5.5625 C 4.5 -4.640625 3.875 -3.78125 3.375 -3.265625 L 0.78125 -0.546875 C 0.671875 -0.4375 0.671875 -0.421875 0.671875 -0.203125 L 0.671875 0 L 5.6875 0 Z M 6.03125 -2.5625 "/>
</g>
<g id="glyph-3-2">
<path d="M 3.125 -3.953125 C 4.453125 -3.953125 4.453125 -2.71875 4.453125 -2.140625 C 4.453125 -1.609375 4.453125 -0.328125 3.171875 -0.328125 C 2.921875 -0.328125 2.125 -0.375 1.546875 -0.78125 C 2.0625 -0.890625 2.25 -1.25 2.25 -1.609375 C 2.25 -2.109375 1.90625 -2.453125 1.40625 -2.453125 C 0.90625 -2.453125 0.5625 -2.109375 0.5625 -1.609375 C 0.5625 -0.5 1.75 0.140625 3.234375 0.140625 C 5.203125 0.140625 6.140625 -0.9375 6.140625 -2.140625 C 6.140625 -2.71875 5.84375 -3.859375 4 -4.1875 C 5.046875 -4.5 5.765625 -5.25 5.765625 -6.1875 C 5.765625 -7.09375 4.90625 -7.84375 3.25 -7.84375 C 1.90625 -7.84375 0.9375 -7.140625 0.9375 -6.171875 C 0.9375 -5.5625 1.40625 -5.375 1.703125 -5.375 C 2.0625 -5.375 2.46875 -5.609375 2.46875 -6.15625 C 2.46875 -6.4375 2.359375 -6.84375 1.796875 -6.921875 C 2.296875 -7.40625 3.109375 -7.40625 3.171875 -7.40625 C 4.25 -7.40625 4.25 -6.59375 4.25 -6.234375 C 4.25 -5.875 4.203125 -5.3125 3.8125 -4.828125 C 3.5 -4.421875 3.1875 -4.40625 2.734375 -4.375 C 2.59375 -4.359375 2.359375 -4.34375 2.3125 -4.328125 C 2.234375 -4.296875 2.234375 -4.203125 2.234375 -4.15625 C 2.234375 -3.953125 2.3125 -3.953125 2.546875 -3.953125 Z M 3.125 -3.953125 "/>
</g>
<g id="glyph-4-0">
<path d="M 8.796875 -5.078125 C 9.171875 -5.5 9.28125 -5.59375 10.390625 -4.984375 C 10.71875 -4.8125 10.8125 -4.75 10.953125 -5 C 11.015625 -5.125 10.875 -5.203125 10.828125 -5.234375 C 10.578125 -5.375 10.28125 -5.5 10.015625 -5.640625 L 8.328125 -6.5625 C 8.09375 -6.703125 7.84375 -6.875 7.59375 -7.015625 C 7.5 -7.0625 7.359375 -7.140625 7.234375 -6.90625 C 7.15625 -6.765625 7.265625 -6.703125 7.453125 -6.59375 C 8.234375 -6.171875 8.1875 -6.078125 8.109375 -5.9375 C 8.09375 -5.90625 8.046875 -5.84375 7.890625 -5.6875 L 2.46875 0.140625 C 2.109375 0.515625 2.03125 0.625 1.140625 0.140625 C 0.90625 0.015625 0.78125 -0.0625 0.65625 0.171875 C 0.578125 0.3125 0.65625 0.359375 0.90625 0.5 L 6.53125 3.59375 C 6.8125 3.75 6.8125 3.734375 7.046875 3.5625 L 9.5 1.40625 C 9.546875 1.359375 9.59375 1.3125 9.625 1.265625 C 9.65625 1.203125 9.640625 1.109375 9.578125 1.0625 C 9.5625 1.0625 9.5 1.03125 9.4375 1.078125 C 9.421875 1.0625 9.40625 1.078125 9.1875 1.28125 C 8.15625 2.15625 6.8125 3.265625 4.6875 2.09375 L 3.484375 1.4375 C 3.3125 1.328125 3.28125 1.3125 3.203125 1.25 C 3.0625 1.1875 3.0625 1.15625 3.125 1.046875 C 3.171875 0.953125 3.25 0.890625 3.34375 0.796875 Z M 8.796875 -5.078125 "/>
</g>
<g id="glyph-5-0">
<path d="M 5.640625 -4.171875 C 5.765625 -4.390625 5.78125 -4.390625 5.578125 -4.515625 C 4.71875 -4.265625 3.9375 -4.6875 3.671875 -4.84375 L 3.515625 -4.5625 C 3.6875 -4.453125 4.203125 -4.171875 4.78125 -4.171875 L 2.296875 0.359375 C 2.125 0.671875 2.046875 0.75 1.265625 0.328125 L 0.984375 0.171875 L 0.828125 0.453125 C 1.15625 0.59375 1.90625 1 2.265625 1.203125 C 2.609375 1.390625 3.375 1.8125 3.65625 2.015625 L 3.8125 1.734375 L 3.53125 1.578125 C 2.75 1.140625 2.78125 1.046875 2.953125 0.734375 Z M 5.640625 -4.171875 "/>
</g>
<g id="glyph-5-1">
<path d="M 1.484375 -0.0625 L 2.90625 -0.453125 C 4.921875 -0.921875 5.703125 -1.09375 6.1875 -1.96875 C 6.734375 -2.96875 6.34375 -4.09375 5.265625 -4.671875 C 4.28125 -5.21875 3.1875 -4.78125 2.765625 -4 C 2.5 -3.515625 2.9375 -3.265625 2.96875 -3.25 C 3.109375 -3.171875 3.46875 -3.09375 3.671875 -3.46875 C 3.796875 -3.6875 3.75 -4.015625 3.453125 -4.1875 C 3.390625 -4.21875 3.375 -4.234375 3.34375 -4.234375 C 3.84375 -4.703125 4.5 -4.75 5 -4.46875 C 5.796875 -4.03125 5.78125 -3.109375 5.390625 -2.40625 C 5 -1.703125 4.203125 -1.25 3.40625 -0.96875 L 0.71875 -0.03125 C 0.5625 0 0.546875 0.03125 0.4375 0.234375 L 3.6875 2.03125 L 4.75 0.640625 L 4.546875 0.53125 C 4.34375 0.75 4.078125 1.109375 3.90625 1.1875 C 3.828125 1.21875 3.25 0.90625 3.0625 0.796875 Z M 1.484375 -0.0625 "/>
</g>
<g id="glyph-6-0">
<path d="M 12.578125 -2.796875 C 12.765625 -2.796875 12.890625 -2.796875 12.96875 -2.9375 C 13.046875 -3.09375 13.015625 -3.265625 12.859375 -3.34375 C 12.796875 -3.375 12.65625 -3.375 12.59375 -3.390625 L 3.84375 -3.921875 C 3.5625 -3.9375 3.5 -3.875 3.4375 -3.78125 C 3.375 -3.65625 3.40625 -3.546875 3.53125 -3.34375 L 8.6875 3.71875 C 8.796875 3.90625 8.828125 3.921875 8.859375 3.9375 C 9 4.015625 9.171875 3.96875 9.25 3.828125 C 9.3125 3.71875 9.296875 3.609375 9.15625 3.390625 L 4.28125 -3.328125 Z M 7.328125 6.265625 C 7.546875 6.390625 7.765625 6.515625 7.90625 6.265625 C 8.046875 6.015625 7.796875 5.875 7.59375 5.765625 L 0.828125 2.03125 C 0.625 1.9375 0.375 1.796875 0.234375 2.046875 C 0.09375 2.296875 0.328125 2.421875 0.53125 2.53125 Z M 7.328125 6.265625 "/>
</g>
<g id="glyph-7-0">
<path d="M 7.15625 -7.21875 C 7.40625 -7.734375 7.46875 -7.84375 8.703125 -7.546875 C 9.078125 -7.453125 9.171875 -7.4375 9.234375 -7.71875 C 9.265625 -7.859375 9.125 -7.890625 9.0625 -7.90625 C 8.78125 -7.96875 8.46875 -8.015625 8.171875 -8.09375 L 6.3125 -8.53125 C 6.046875 -8.59375 5.75 -8.703125 5.46875 -8.765625 C 5.359375 -8.796875 5.21875 -8.828125 5.15625 -8.5625 C 5.125 -8.40625 5.234375 -8.375 5.453125 -8.328125 C 6.3125 -8.125 6.28125 -8.03125 6.25 -7.875 C 6.234375 -7.84375 6.21875 -7.765625 6.109375 -7.578125 L 2.421875 -0.515625 C 2.171875 -0.0625 2.109375 0.078125 1.140625 -0.15625 C 0.875 -0.21875 0.734375 -0.25 0.671875 0 C 0.640625 0.15625 0.734375 0.171875 1 0.234375 L 7.25 1.734375 C 7.5625 1.8125 7.5625 1.796875 7.734375 1.578125 L 9.53125 -1.140625 C 9.5625 -1.21875 9.609375 -1.28125 9.625 -1.328125 C 9.640625 -1.40625 9.59375 -1.484375 9.515625 -1.5 C 9.5 -1.5 9.4375 -1.515625 9.40625 -1.46875 C 9.375 -1.453125 9.359375 -1.4375 9.1875 -1.1875 C 8.4375 -0.0625 7.4375 1.359375 5.078125 0.78125 L 3.734375 0.46875 C 3.546875 0.421875 3.515625 0.40625 3.4375 0.375 C 3.28125 0.34375 3.265625 0.296875 3.296875 0.171875 C 3.3125 0.078125 3.375 0 3.4375 -0.109375 Z M 7.15625 -7.21875 "/>
</g>
<g id="glyph-8-0">
<path d="M 1.40625 -0.453125 L 2.6875 -1.203125 C 4.5 -2.171875 5.203125 -2.546875 5.4375 -3.53125 C 5.703125 -4.640625 5.03125 -5.625 3.84375 -5.90625 C 2.75 -6.171875 1.8125 -5.453125 1.609375 -4.578125 C 1.484375 -4.046875 1.96875 -3.921875 2 -3.921875 C 2.171875 -3.875 2.515625 -3.90625 2.625 -4.328125 C 2.671875 -4.5625 2.5625 -4.875 2.21875 -4.953125 C 2.140625 -4.96875 2.125 -4.96875 2.09375 -4.96875 C 2.46875 -5.53125 3.078125 -5.765625 3.640625 -5.640625 C 4.515625 -5.421875 4.75 -4.53125 4.5625 -3.75 C 4.375 -2.96875 3.734375 -2.3125 3.03125 -1.84375 L 0.6875 -0.21875 C 0.546875 -0.15625 0.53125 -0.125 0.484375 0.109375 L 4.09375 0.984375 L 4.75 -0.640625 L 4.53125 -0.703125 C 4.390625 -0.421875 4.234375 -0.015625 4.09375 0.109375 C 4 0.171875 3.359375 0.015625 3.15625 -0.03125 Z M 1.40625 -0.453125 "/>
</g>
<g id="glyph-8-1">
<path d="M 3.625 -2.75 C 4.46875 -2.8125 5.203125 -3.34375 5.390625 -4.125 C 5.578125 -4.90625 4.859375 -5.65625 3.9375 -5.875 C 2.953125 -6.109375 2.078125 -5.71875 1.90625 -4.984375 C 1.828125 -4.65625 1.984375 -4.421875 2.28125 -4.359375 C 2.5625 -4.296875 2.8125 -4.453125 2.890625 -4.75 C 3 -5.21875 2.546875 -5.328125 2.40625 -5.359375 C 2.8125 -5.765625 3.46875 -5.734375 3.828125 -5.65625 C 4.234375 -5.5625 4.71875 -5.21875 4.515625 -4.359375 C 4.484375 -4.234375 4.3125 -3.671875 3.984375 -3.3125 C 3.578125 -2.90625 3.234375 -2.953125 2.984375 -3.015625 C 2.90625 -3.015625 2.6875 -3.0625 2.609375 -3.078125 C 2.515625 -3.078125 2.453125 -3.078125 2.4375 -2.984375 C 2.40625 -2.875 2.46875 -2.859375 2.640625 -2.828125 L 3.0625 -2.71875 C 3.84375 -2.53125 4.0625 -1.78125 3.828125 -0.828125 C 3.515625 0.5 2.78125 0.59375 2.359375 0.5 C 1.9375 0.390625 1.234375 0.046875 1.03125 -0.59375 C 1.359375 -0.46875 1.71875 -0.59375 1.796875 -0.96875 C 1.890625 -1.3125 1.6875 -1.578125 1.40625 -1.640625 C 1.171875 -1.703125 0.828125 -1.640625 0.71875 -1.21875 C 0.515625 -0.328125 1.265625 0.53125 2.328125 0.78125 C 3.515625 1.078125 4.59375 0.390625 4.828125 -0.59375 C 5.03125 -1.390625 4.578125 -2.296875 3.625 -2.75 Z M 3.625 -2.75 "/>
</g>
<g id="glyph-9-0">
<path d="M 11.40625 -6.03125 C 11.578125 -6.0625 11.6875 -6.109375 11.734375 -6.265625 C 11.765625 -6.4375 11.703125 -6.578125 11.53125 -6.625 C 11.453125 -6.640625 11.3125 -6.609375 11.25 -6.59375 L 2.671875 -4.8125 C 2.40625 -4.75 2.34375 -4.65625 2.3125 -4.546875 C 2.28125 -4.40625 2.359375 -4.3125 2.515625 -4.171875 L 9.359375 1.296875 C 9.515625 1.4375 9.546875 1.453125 9.59375 1.453125 C 9.75 1.5 9.890625 1.390625 9.9375 1.234375 C 9.953125 1.109375 9.9375 1.015625 9.71875 0.859375 L 3.25 -4.328125 Z M 8.734375 4.125 C 8.984375 4.1875 9.21875 4.234375 9.28125 3.9375 C 9.34375 3.671875 9.0625 3.609375 8.84375 3.5625 L 1.328125 1.75 C 1.109375 1.703125 0.828125 1.640625 0.765625 1.90625 C 0.703125 2.203125 0.953125 2.265625 1.1875 2.3125 Z M 8.734375 4.125 "/>
</g>
<g id="glyph-10-0">
<path d="M 3.140625 -9.65625 C 3.140625 -10.21875 3.140625 -10.375 4.375 -10.65625 C 4.734375 -10.75 4.84375 -10.765625 4.78125 -11.046875 C 4.75 -11.171875 4.59375 -11.140625 4.53125 -11.125 C 4.265625 -11.0625 3.953125 -10.953125 3.671875 -10.890625 L 1.796875 -10.453125 C 1.53125 -10.390625 1.21875 -10.34375 0.9375 -10.28125 C 0.84375 -10.265625 0.6875 -10.21875 0.75 -9.96875 C 0.78125 -9.8125 0.90625 -9.84375 1.109375 -9.890625 C 1.96875 -10.09375 2 -9.984375 2.03125 -9.828125 C 2.046875 -9.8125 2.0625 -9.734375 2.046875 -9.5 L 1.921875 -1.546875 C 1.921875 -1.03125 1.921875 -0.875 0.953125 -0.65625 C 0.6875 -0.59375 0.546875 -0.5625 0.609375 -0.3125 C 0.640625 -0.15625 0.734375 -0.171875 1 -0.234375 L 7.25 -1.703125 C 7.578125 -1.78125 7.578125 -1.796875 7.625 -2.078125 L 8 -5.296875 C 8 -5.375 8.015625 -5.46875 8 -5.515625 C 7.984375 -5.59375 7.90625 -5.640625 7.828125 -5.625 C 7.8125 -5.609375 7.75 -5.59375 7.734375 -5.53125 C 7.703125 -5.515625 7.71875 -5.5 7.671875 -5.1875 C 7.5 -3.859375 7.25 -2.140625 4.890625 -1.578125 L 3.5625 -1.265625 C 3.359375 -1.21875 3.328125 -1.21875 3.234375 -1.203125 C 3.078125 -1.171875 3.046875 -1.203125 3.015625 -1.328125 C 3 -1.421875 3.015625 -1.515625 3.015625 -1.640625 Z M 3.140625 -9.65625 "/>
</g>
<g id="glyph-10-1">
<path d="M 8.453125 -5.34375 C 8.671875 -5.546875 8.671875 -5.625 8.65625 -5.71875 C 8.625 -5.8125 8.578125 -5.890625 8.3125 -5.953125 L -0.0625 -7.640625 C -0.28125 -7.6875 -0.296875 -7.703125 -0.3125 -7.6875 C -0.484375 -7.65625 -0.5625 -7.484375 -0.53125 -7.375 C -0.5 -7.203125 -0.359375 -7.1875 -0.15625 -7.140625 L 7.796875 -5.515625 L 1.375 -0.515625 C 1.125 -0.3125 1.15625 -0.203125 1.171875 -0.125 C 1.203125 0 1.34375 0.09375 1.515625 0.0625 C 1.53125 0.046875 1.53125 0.03125 1.703125 -0.109375 Z M 8.453125 -5.34375 "/>
</g>
<g id="glyph-11-0">
<path d="M 1.0625 -1.046875 L 1.859375 -2.28125 C 3.03125 -3.984375 3.5 -4.640625 3.265625 -5.609375 C 3 -6.71875 1.96875 -7.28125 0.78125 -7.015625 C -0.3125 -6.75 -0.828125 -5.671875 -0.625 -4.8125 C -0.5 -4.28125 -0.015625 -4.40625 0.015625 -4.40625 C 0.1875 -4.453125 0.5 -4.640625 0.390625 -5.046875 C 0.34375 -5.28125 0.109375 -5.5 -0.234375 -5.421875 C -0.3125 -5.40625 -0.328125 -5.40625 -0.359375 -5.375 C -0.296875 -6.0625 0.15625 -6.53125 0.71875 -6.671875 C 1.609375 -6.875 2.203125 -6.1875 2.390625 -5.390625 C 2.578125 -4.609375 2.28125 -3.75 1.875 -3.015625 L 0.5 -0.5 C 0.421875 -0.375 0.4375 -0.34375 0.484375 -0.109375 L 4.09375 -0.96875 L 3.953125 -2.71875 L 3.734375 -2.65625 C 3.734375 -2.359375 3.765625 -1.90625 3.703125 -1.75 C 3.65625 -1.65625 3.015625 -1.5 2.8125 -1.453125 Z M 1.0625 -1.046875 "/>
</g>
<g id="glyph-11-1">
<path d="M 2 -4.078125 C 2.75 -4.53125 3.140625 -5.328125 2.96875 -6.109375 C 2.78125 -6.90625 1.796875 -7.25 0.875 -7.03125 C -0.09375 -6.796875 -0.71875 -6.046875 -0.53125 -5.296875 C -0.46875 -4.984375 -0.21875 -4.84375 0.078125 -4.921875 C 0.359375 -4.984375 0.515625 -5.25 0.453125 -5.53125 C 0.328125 -6 -0.125 -5.890625 -0.265625 -5.859375 C -0.078125 -6.40625 0.53125 -6.6875 0.875 -6.765625 C 1.28125 -6.859375 1.859375 -6.78125 2.078125 -5.921875 C 2.09375 -5.796875 2.203125 -5.21875 2.0625 -4.734375 C 1.875 -4.203125 1.5625 -4.09375 1.3125 -4.03125 C 1.234375 -4 1.015625 -3.9375 0.9375 -3.921875 C 0.875 -3.875 0.8125 -3.859375 0.828125 -3.765625 C 0.859375 -3.65625 0.921875 -3.65625 1.09375 -3.703125 L 1.515625 -3.796875 C 2.3125 -3.984375 2.828125 -3.421875 3.046875 -2.46875 C 3.359375 -1.140625 2.75 -0.71875 2.328125 -0.609375 C 1.90625 -0.515625 1.140625 -0.515625 0.671875 -1 C 1.015625 -1.03125 1.265625 -1.296875 1.171875 -1.671875 C 1.09375 -2.015625 0.796875 -2.171875 0.515625 -2.09375 C 0.28125 -2.046875 0 -1.828125 0.09375 -1.40625 C 0.3125 -0.515625 1.359375 -0.09375 2.421875 -0.34375 C 3.609375 -0.625 4.28125 -1.71875 4.046875 -2.703125 C 3.859375 -3.5 3.0625 -4.109375 2 -4.078125 Z M 2 -4.078125 "/>
</g>
<g id="glyph-12-0">
<path d="M 6.625 -7.703125 C 6.828125 -8.21875 6.90625 -8.359375 8.15625 -8.140625 C 8.53125 -8.078125 8.640625 -8.0625 8.6875 -8.34375 C 8.703125 -8.46875 8.546875 -8.5 8.484375 -8.515625 C 8.203125 -8.5625 7.875 -8.578125 7.59375 -8.625 L 5.6875 -8.9375 C 5.4375 -8.984375 5.125 -9.0625 4.84375 -9.109375 C 4.734375 -9.140625 4.578125 -9.15625 4.53125 -8.90625 C 4.515625 -8.75 4.640625 -8.734375 4.859375 -8.703125 C 5.71875 -8.546875 5.703125 -8.4375 5.671875 -8.28125 C 5.671875 -8.25 5.65625 -8.171875 5.546875 -7.96875 L 2.375 -0.671875 C 2.171875 -0.21875 2.109375 -0.078125 1.125 -0.25 C 0.84375 -0.296875 0.703125 -0.3125 0.671875 -0.046875 C 0.640625 0.109375 0.734375 0.125 1.015625 0.171875 L 7.34375 1.234375 C 7.671875 1.28125 7.671875 1.265625 7.828125 1.03125 L 9.421875 -1.796875 C 9.453125 -1.875 9.5 -1.953125 9.5 -2 C 9.515625 -2.078125 9.46875 -2.140625 9.390625 -2.15625 C 9.375 -2.15625 9.3125 -2.171875 9.265625 -2.109375 C 9.234375 -2.109375 9.234375 -2.09375 9.078125 -1.828125 C 8.40625 -0.65625 7.5 0.8125 5.125 0.421875 L 3.765625 0.1875 C 3.5625 0.15625 3.53125 0.15625 3.453125 0.125 C 3.296875 0.09375 3.28125 0.0625 3.296875 -0.046875 C 3.3125 -0.140625 3.359375 -0.21875 3.421875 -0.34375 Z M 6.625 -7.703125 "/>
</g>
<g id="glyph-13-0">
<path d="M 3.9375 -5.796875 C 3.984375 -6.046875 3.984375 -6.0625 3.765625 -6.109375 C 3.03125 -5.578125 2.171875 -5.71875 1.859375 -5.78125 L 1.8125 -5.46875 C 2.015625 -5.421875 2.59375 -5.328125 3.140625 -5.515625 L 2.28125 -0.40625 C 2.21875 -0.0625 2.171875 0.046875 1.296875 -0.109375 L 0.984375 -0.15625 L 0.9375 0.15625 C 1.28125 0.1875 2.125 0.328125 2.53125 0.390625 C 2.90625 0.453125 3.78125 0.59375 4.109375 0.6875 L 4.15625 0.375 L 3.859375 0.328125 C 2.953125 0.171875 2.953125 0.0625 3.015625 -0.28125 Z M 3.9375 -5.796875 "/>
</g>
<g id="glyph-13-1">
<path d="M 3.421875 -3 C 4.28125 -3.125 4.953125 -3.703125 5.078125 -4.484375 C 5.21875 -5.296875 4.453125 -5.984375 3.515625 -6.140625 C 2.53125 -6.3125 1.671875 -5.859375 1.546875 -5.09375 C 1.484375 -4.78125 1.671875 -4.546875 1.96875 -4.5 C 2.265625 -4.453125 2.515625 -4.640625 2.5625 -4.921875 C 2.640625 -5.40625 2.171875 -5.484375 2.03125 -5.5 C 2.40625 -5.953125 3.0625 -5.953125 3.421875 -5.90625 C 3.84375 -5.828125 4.34375 -5.53125 4.203125 -4.640625 C 4.171875 -4.515625 4.046875 -3.96875 3.734375 -3.5625 C 3.375 -3.15625 3.015625 -3.171875 2.765625 -3.21875 C 2.6875 -3.21875 2.453125 -3.234375 2.375 -3.25 C 2.296875 -3.25 2.25 -3.234375 2.234375 -3.140625 C 2.203125 -3.03125 2.25 -3.03125 2.421875 -3 L 2.859375 -2.921875 C 3.65625 -2.796875 3.921875 -2.078125 3.765625 -1.109375 C 3.546875 0.234375 2.828125 0.40625 2.390625 0.328125 C 1.953125 0.265625 1.234375 -0.03125 1 -0.65625 C 1.328125 -0.546875 1.671875 -0.71875 1.734375 -1.09375 C 1.796875 -1.4375 1.5625 -1.6875 1.28125 -1.734375 C 1.03125 -1.765625 0.71875 -1.6875 0.640625 -1.265625 C 0.5 -0.375 1.296875 0.4375 2.375 0.625 C 3.578125 0.828125 4.609375 0.078125 4.78125 -0.9375 C 4.90625 -1.734375 4.421875 -2.609375 3.421875 -3 Z M 3.421875 -3 "/>
</g>
<g id="glyph-14-0">
<path d="M 10.96875 -6.8125 C 11.125 -6.84375 11.234375 -6.890625 11.265625 -7.0625 C 11.296875 -7.234375 11.203125 -7.375 11.046875 -7.40625 C 10.96875 -7.421875 10.828125 -7.375 10.765625 -7.359375 L 2.34375 -4.96875 C 2.0625 -4.890625 2 -4.8125 1.984375 -4.703125 C 1.96875 -4.5625 2.046875 -4.46875 2.234375 -4.328125 L 9.4375 0.640625 C 9.609375 0.78125 9.640625 0.78125 9.6875 0.796875 C 9.828125 0.828125 9.96875 0.703125 10 0.546875 C 10.015625 0.421875 9.96875 0.328125 9.765625 0.171875 L 2.9375 -4.546875 Z M 9 3.5 C 9.25 3.53125 9.484375 3.578125 9.53125 3.296875 C 9.578125 3.015625 9.296875 2.96875 9.078125 2.921875 L 1.453125 1.65625 C 1.234375 1.625 0.9375 1.578125 0.890625 1.859375 C 0.84375 2.140625 1.109375 2.171875 1.34375 2.21875 Z M 9 3.5 "/>
</g>
<g id="glyph-15-0">
<path d="M 3.84375 -9.40625 C 3.875 -9.96875 3.90625 -10.109375 5.15625 -10.3125 C 5.515625 -10.375 5.625 -10.390625 5.578125 -10.65625 C 5.5625 -10.796875 5.40625 -10.765625 5.34375 -10.765625 C 5.078125 -10.71875 4.75 -10.640625 4.453125 -10.59375 L 2.5625 -10.28125 C 2.296875 -10.25 1.984375 -10.234375 1.703125 -10.1875 C 1.59375 -10.171875 1.453125 -10.140625 1.5 -9.875 C 1.515625 -9.734375 1.640625 -9.75 1.84375 -9.796875 C 2.71875 -9.921875 2.734375 -9.8125 2.765625 -9.65625 C 2.765625 -9.625 2.78125 -9.546875 2.75 -9.328125 L 2.03125 -1.390625 C 1.984375 -0.890625 1.984375 -0.75 1 -0.59375 C 0.71875 -0.546875 0.578125 -0.53125 0.609375 -0.265625 C 0.640625 -0.109375 0.734375 -0.125 1.015625 -0.15625 L 7.359375 -1.171875 C 7.6875 -1.21875 7.6875 -1.234375 7.75 -1.5 L 8.375 -4.6875 C 8.375 -4.765625 8.390625 -4.859375 8.390625 -4.90625 C 8.375 -4.984375 8.296875 -5.03125 8.21875 -5.015625 C 8.203125 -5.015625 8.140625 -5 8.125 -4.9375 C 8.09375 -4.921875 8.09375 -4.90625 8.03125 -4.609375 C 7.78125 -3.28125 7.390625 -1.609375 5 -1.21875 L 3.640625 -1.015625 C 3.4375 -0.984375 3.40625 -0.96875 3.3125 -0.96875 C 3.15625 -0.953125 3.125 -0.984375 3.109375 -1.109375 C 3.09375 -1.1875 3.109375 -1.28125 3.125 -1.40625 Z M 3.84375 -9.40625 "/>
</g>
<g id="glyph-15-1">
<path d="M 8.828125 -4.703125 C 9.0625 -4.875 9.0625 -4.96875 9.046875 -5.0625 C 9.03125 -5.15625 8.984375 -5.234375 8.734375 -5.328125 L 0.5 -7.625 C 0.296875 -7.6875 0.28125 -7.703125 0.25 -7.703125 C 0.078125 -7.671875 0 -7.515625 0.015625 -7.390625 C 0.046875 -7.21875 0.171875 -7.1875 0.375 -7.125 L 8.171875 -4.921875 L 1.421875 -0.40625 C 1.15625 -0.234375 1.171875 -0.125 1.171875 -0.046875 C 1.203125 0.078125 1.328125 0.203125 1.5 0.171875 C 1.53125 0.171875 1.53125 0.15625 1.71875 0.03125 Z M 8.828125 -4.703125 "/>
</g>
<g id="glyph-16-0">
<path d="M 1.90625 -6.75 C 1.875 -7 1.859375 -7.015625 1.625 -6.984375 C 1.109375 -6.25 0.25 -6.109375 -0.0625 -6.0625 L -0.015625 -5.765625 C 0.1875 -5.796875 0.765625 -5.890625 1.21875 -6.21875 L 2.03125 -1.109375 C 2.09375 -0.765625 2.078125 -0.65625 1.203125 -0.515625 L 0.890625 -0.46875 L 0.9375 -0.15625 C 1.28125 -0.234375 2.125 -0.375 2.53125 -0.4375 C 2.921875 -0.5 3.78125 -0.625 4.125 -0.65625 L 4.078125 -0.96875 L 3.765625 -0.921875 C 2.875 -0.78125 2.84375 -0.875 2.78125 -1.21875 Z M 1.90625 -6.75 "/>
</g>
<g id="glyph-16-1">
<path d="M 2.3125 -3.921875 C 3.0625 -4.3125 3.53125 -5.078125 3.40625 -5.875 C 3.28125 -6.671875 2.3125 -7.09375 1.375 -6.953125 C 0.390625 -6.796875 -0.28125 -6.078125 -0.15625 -5.328125 C -0.109375 -5 0.140625 -4.84375 0.4375 -4.890625 C 0.734375 -4.9375 0.90625 -5.1875 0.859375 -5.484375 C 0.78125 -5.953125 0.3125 -5.875 0.171875 -5.859375 C 0.390625 -6.40625 1.015625 -6.640625 1.375 -6.6875 C 1.796875 -6.75 2.359375 -6.625 2.5 -5.75 C 2.515625 -5.625 2.578125 -5.046875 2.421875 -4.578125 C 2.1875 -4.046875 1.859375 -3.96875 1.609375 -3.921875 C 1.53125 -3.890625 1.3125 -3.84375 1.234375 -3.828125 C 1.15625 -3.796875 1.09375 -3.78125 1.109375 -3.6875 C 1.125 -3.578125 1.1875 -3.578125 1.34375 -3.609375 L 1.78125 -3.671875 C 2.59375 -3.8125 3.0625 -3.203125 3.21875 -2.234375 C 3.4375 -0.890625 2.796875 -0.5 2.359375 -0.4375 C 1.921875 -0.375 1.171875 -0.421875 0.734375 -0.9375 C 1.078125 -0.9375 1.359375 -1.203125 1.296875 -1.578125 C 1.25 -1.9375 0.953125 -2.09375 0.671875 -2.046875 C 0.421875 -2 0.140625 -1.828125 0.21875 -1.390625 C 0.359375 -0.5 1.359375 0.015625 2.4375 -0.15625 C 3.640625 -0.359375 4.390625 -1.390625 4.234375 -2.40625 C 4.109375 -3.203125 3.359375 -3.859375 2.3125 -3.921875 Z M 2.3125 -3.921875 "/>
</g>
<g id="glyph-17-0">
<path d="M 0.421875 -10.140625 C 0.265625 -10.6875 0.25 -10.84375 1.359375 -11.453125 C 1.6875 -11.625 1.78125 -11.6875 1.640625 -11.9375 C 1.578125 -12.0625 1.4375 -11.984375 1.390625 -11.953125 C 1.140625 -11.8125 0.875 -11.625 0.609375 -11.484375 L -1.078125 -10.5625 C -1.3125 -10.421875 -1.59375 -10.3125 -1.84375 -10.171875 C -1.9375 -10.125 -2.078125 -10.046875 -1.953125 -9.8125 C -1.875 -9.671875 -1.765625 -9.734375 -1.578125 -9.84375 C -0.796875 -10.265625 -0.75 -10.171875 -0.671875 -10.03125 C -0.65625 -10 -0.609375 -9.9375 -0.578125 -9.71875 L 1.4375 -2.015625 C 1.578125 -1.515625 1.625 -1.375 0.734375 -0.890625 C 0.5 -0.765625 0.375 -0.6875 0.5 -0.453125 C 0.578125 -0.3125 0.65625 -0.359375 0.90625 -0.5 L 6.53125 -3.59375 C 6.8125 -3.75 6.8125 -3.765625 6.796875 -4.03125 L 6.28125 -7.25 C 6.265625 -7.328125 6.25 -7.40625 6.21875 -7.453125 C 6.1875 -7.515625 6.109375 -7.546875 6.046875 -7.5 C 6.03125 -7.5 5.96875 -7.46875 5.96875 -7.390625 C 5.953125 -7.375 5.96875 -7.359375 6 -7.0625 C 6.1875 -5.71875 6.40625 -4.015625 4.28125 -2.84375 L 3.078125 -2.1875 C 2.90625 -2.078125 2.875 -2.0625 2.796875 -2.03125 C 2.65625 -1.96875 2.625 -1.96875 2.5625 -2.078125 C 2.515625 -2.171875 2.5 -2.265625 2.46875 -2.390625 Z M 0.421875 -10.140625 "/>
</g>
<g id="glyph-17-1">
<path d="M 6.703125 -7.40625 C 6.875 -7.671875 6.859375 -7.734375 6.8125 -7.828125 C 6.765625 -7.90625 6.6875 -7.96875 6.40625 -7.953125 L -2.109375 -7.34375 C -2.328125 -7.328125 -2.34375 -7.34375 -2.359375 -7.328125 C -2.515625 -7.234375 -2.546875 -7.0625 -2.484375 -6.953125 C -2.40625 -6.8125 -2.265625 -6.828125 -2.0625 -6.84375 L 6.03125 -7.40625 L 1.203125 -0.859375 C 1.015625 -0.609375 1.0625 -0.5 1.09375 -0.4375 C 1.15625 -0.328125 1.328125 -0.25 1.484375 -0.34375 C 1.5 -0.359375 1.484375 -0.375 1.625 -0.546875 Z M 6.703125 -7.40625 "/>
</g>
<g id="glyph-18-0">
<path d="M -0.484375 -7.015625 C -0.609375 -7.234375 -0.625 -7.234375 -0.828125 -7.109375 C -1.0625 -6.265625 -1.84375 -5.84375 -2.109375 -5.6875 L -1.953125 -5.40625 C -1.78125 -5.515625 -1.265625 -5.796875 -0.9375 -6.265625 L 1.546875 -1.734375 C 1.71875 -1.421875 1.734375 -1.3125 0.953125 -0.890625 L 0.671875 -0.734375 L 0.828125 -0.453125 C 1.125 -0.65625 1.875 -1.0625 2.234375 -1.265625 C 2.578125 -1.453125 3.34375 -1.875 3.65625 -2.015625 L 3.5 -2.296875 L 3.21875 -2.140625 C 2.4375 -1.703125 2.375 -1.796875 2.203125 -2.109375 Z M -0.484375 -7.015625 "/>
</g>
<g id="glyph-18-1">
<path d="M 0.734375 -1.28125 L 1.1875 -2.703125 C 1.859375 -4.640625 2.140625 -5.40625 1.65625 -6.28125 C 1.109375 -7.28125 -0.0625 -7.53125 -1.140625 -6.953125 C -2.125 -6.40625 -2.3125 -5.25 -1.890625 -4.46875 C -1.625 -3.984375 -1.1875 -4.234375 -1.15625 -4.25 C -1.015625 -4.328125 -0.75 -4.59375 -0.953125 -4.96875 C -1.078125 -5.1875 -1.375 -5.328125 -1.671875 -5.15625 C -1.734375 -5.125 -1.75 -5.109375 -1.78125 -5.078125 C -1.90625 -5.765625 -1.59375 -6.34375 -1.09375 -6.625 C -0.296875 -7.0625 0.46875 -6.546875 0.859375 -5.84375 C 1.25 -5.140625 1.203125 -4.21875 1 -3.40625 L 0.34375 -0.625 C 0.3125 -0.46875 0.328125 -0.4375 0.4375 -0.234375 L 3.6875 -2.03125 L 3.09375 -3.671875 L 2.890625 -3.5625 C 2.96875 -3.28125 3.109375 -2.859375 3.09375 -2.65625 C 3.078125 -2.5625 2.5 -2.25 2.3125 -2.140625 Z M 0.734375 -1.28125 "/>
</g>
<g id="glyph-19-0">
<path d="M 7.109375 -7.25 C 7.359375 -7.75 7.453125 -7.875 8.6875 -7.59375 C 9.046875 -7.5 9.15625 -7.484375 9.21875 -7.765625 C 9.25 -7.890625 9.09375 -7.921875 9.03125 -7.9375 C 8.765625 -8 8.421875 -8.046875 8.140625 -8.109375 L 6.265625 -8.546875 C 6 -8.609375 5.71875 -8.71875 5.4375 -8.78125 C 5.34375 -8.796875 5.1875 -8.84375 5.125 -8.59375 C 5.09375 -8.4375 5.21875 -8.40625 5.421875 -8.359375 C 6.28125 -8.15625 6.25 -8.046875 6.21875 -7.890625 C 6.203125 -7.875 6.1875 -7.796875 6.078125 -7.59375 L 2.421875 -0.515625 C 2.171875 -0.0625 2.109375 0.0625 1.140625 -0.15625 C 0.875 -0.21875 0.734375 -0.25 0.671875 0 C 0.640625 0.15625 0.734375 0.171875 1 0.234375 L 7.25 1.703125 C 7.578125 1.78125 7.578125 1.765625 7.75 1.546875 L 9.53125 -1.171875 C 9.5625 -1.25 9.609375 -1.3125 9.625 -1.359375 C 9.640625 -1.4375 9.59375 -1.515625 9.515625 -1.53125 C 9.5 -1.546875 9.4375 -1.5625 9.390625 -1.5 C 9.359375 -1.484375 9.34375 -1.46875 9.171875 -1.21875 C 8.4375 -0.109375 7.4375 1.328125 5.078125 0.765625 L 3.75 0.453125 C 3.546875 0.40625 3.515625 0.40625 3.421875 0.359375 C 3.265625 0.328125 3.265625 0.296875 3.296875 0.171875 C 3.3125 0.078125 3.359375 -0.015625 3.421875 -0.109375 Z M 7.109375 -7.25 "/>
</g>
<g id="glyph-20-0">
<path d="M 1.40625 -0.453125 L 2.671875 -1.21875 C 4.5 -2.203125 5.1875 -2.578125 5.421875 -3.546875 C 5.6875 -4.65625 5 -5.65625 3.8125 -5.921875 C 2.71875 -6.1875 1.796875 -5.453125 1.59375 -4.59375 C 1.46875 -4.0625 1.953125 -3.9375 1.984375 -3.9375 C 2.15625 -3.890625 2.5 -3.921875 2.609375 -4.328125 C 2.65625 -4.5625 2.546875 -4.875 2.203125 -4.953125 C 2.125 -4.96875 2.109375 -4.96875 2.078125 -4.96875 C 2.453125 -5.5625 3.0625 -5.78125 3.625 -5.640625 C 4.515625 -5.4375 4.734375 -4.5625 4.546875 -3.765625 C 4.359375 -2.984375 3.71875 -2.34375 3.03125 -1.859375 L 0.6875 -0.21875 C 0.546875 -0.15625 0.53125 -0.125 0.484375 0.109375 L 4.09375 0.96875 L 4.734375 -0.65625 L 4.515625 -0.71875 C 4.390625 -0.453125 4.234375 -0.03125 4.078125 0.09375 C 4 0.15625 3.359375 0 3.15625 -0.046875 Z M 1.40625 -0.453125 "/>
</g>
<g id="glyph-20-1">
<path d="M 3.625 -2.765625 C 4.46875 -2.84375 5.203125 -3.359375 5.375 -4.140625 C 5.5625 -4.9375 4.828125 -5.6875 3.90625 -5.90625 C 2.9375 -6.140625 2.0625 -5.734375 1.875 -4.984375 C 1.8125 -4.671875 1.96875 -4.4375 2.265625 -4.359375 C 2.546875 -4.296875 2.796875 -4.46875 2.859375 -4.75 C 2.984375 -5.21875 2.53125 -5.328125 2.390625 -5.359375 C 2.796875 -5.78125 3.46875 -5.75 3.8125 -5.671875 C 4.21875 -5.578125 4.703125 -5.21875 4.484375 -4.359375 C 4.46875 -4.234375 4.296875 -3.6875 3.96875 -3.328125 C 3.5625 -2.921875 3.21875 -2.96875 2.96875 -3.03125 C 2.890625 -3.03125 2.671875 -3.0625 2.59375 -3.078125 C 2.5 -3.09375 2.4375 -3.078125 2.421875 -2.984375 C 2.390625 -2.875 2.453125 -2.875 2.625 -2.828125 L 3.046875 -2.734375 C 3.84375 -2.546875 4.046875 -1.796875 3.828125 -0.84375 C 3.515625 0.484375 2.78125 0.59375 2.359375 0.484375 C 1.9375 0.390625 1.234375 0.046875 1.046875 -0.59375 C 1.359375 -0.46875 1.703125 -0.609375 1.796875 -0.984375 C 1.875 -1.328125 1.671875 -1.578125 1.390625 -1.65625 C 1.15625 -1.703125 0.8125 -1.640625 0.71875 -1.21875 C 0.5 -0.328125 1.265625 0.53125 2.328125 0.78125 C 3.515625 1.0625 4.59375 0.375 4.828125 -0.609375 C 5.015625 -1.40625 4.5625 -2.296875 3.625 -2.765625 Z M 3.625 -2.765625 "/>
</g>
<g id="glyph-21-0">
<path d="M 11.375 -6.0625 C 11.546875 -6.109375 11.671875 -6.140625 11.703125 -6.3125 C 11.75 -6.484375 11.671875 -6.625 11.515625 -6.65625 C 11.4375 -6.671875 11.296875 -6.65625 11.21875 -6.640625 L 2.65625 -4.8125 C 2.390625 -4.75 2.3125 -4.671875 2.296875 -4.578125 C 2.265625 -4.4375 2.328125 -4.3125 2.5 -4.171875 L 9.375 1.265625 C 9.53125 1.40625 9.5625 1.40625 9.609375 1.421875 C 9.75 1.453125 9.90625 1.359375 9.9375 1.203125 C 9.96875 1.078125 9.921875 0.984375 9.734375 0.8125 L 3.234375 -4.34375 Z M 8.75 4.09375 C 8.984375 4.140625 9.234375 4.203125 9.296875 3.90625 C 9.375 3.640625 9.09375 3.578125 8.875 3.515625 L 1.34375 1.75 C 1.125 1.703125 0.84375 1.625 0.765625 1.890625 C 0.703125 2.1875 0.96875 2.25 1.1875 2.3125 Z M 8.75 4.09375 "/>
</g>
<g id="glyph-22-0">
<path d="M 3.171875 -9.65625 C 3.171875 -10.21875 3.1875 -10.359375 4.421875 -10.65625 C 4.78125 -10.734375 4.890625 -10.765625 4.828125 -11.03125 C 4.796875 -11.171875 4.640625 -11.125 4.578125 -11.125 C 4.3125 -11.0625 4 -10.953125 3.703125 -10.890625 L 1.828125 -10.453125 C 1.578125 -10.390625 1.265625 -10.34375 1 -10.28125 C 0.890625 -10.265625 0.734375 -10.234375 0.78125 -9.96875 C 0.828125 -9.828125 0.953125 -9.84375 1.15625 -9.890625 C 2.015625 -10.09375 2.03125 -9.984375 2.078125 -9.828125 C 2.078125 -9.796875 2.09375 -9.71875 2.078125 -9.5 L 1.9375 -1.53125 C 1.9375 -1.015625 1.9375 -0.875 0.953125 -0.65625 C 0.6875 -0.59375 0.546875 -0.546875 0.609375 -0.296875 C 0.640625 -0.140625 0.734375 -0.171875 1 -0.234375 L 7.265625 -1.6875 C 7.578125 -1.75 7.578125 -1.765625 7.625 -2.046875 L 8.015625 -5.28125 C 8.015625 -5.34375 8.03125 -5.4375 8.015625 -5.484375 C 8 -5.5625 7.921875 -5.609375 7.84375 -5.59375 C 7.828125 -5.578125 7.765625 -5.5625 7.75 -5.5 C 7.734375 -5.484375 7.734375 -5.46875 7.6875 -5.171875 C 7.515625 -3.828125 7.265625 -2.109375 4.90625 -1.5625 L 3.5625 -1.25 C 3.359375 -1.203125 3.328125 -1.203125 3.234375 -1.1875 C 3.09375 -1.15625 3.0625 -1.1875 3.03125 -1.3125 C 3.015625 -1.40625 3.03125 -1.5 3.03125 -1.640625 Z M 3.171875 -9.65625 "/>
</g>
<g id="glyph-22-1">
<path d="M 8.46875 -5.3125 C 8.703125 -5.5 8.703125 -5.59375 8.671875 -5.6875 C 8.65625 -5.78125 8.609375 -5.859375 8.328125 -5.921875 L -0.046875 -7.640625 C -0.234375 -7.703125 -0.25 -7.703125 -0.28125 -7.703125 C -0.453125 -7.65625 -0.53125 -7.5 -0.5 -7.375 C -0.46875 -7.203125 -0.328125 -7.1875 -0.125 -7.125 L 7.796875 -5.484375 L 1.40625 -0.5 C 1.125 -0.3125 1.15625 -0.203125 1.171875 -0.125 C 1.203125 0 1.34375 0.109375 1.515625 0.0625 C 1.546875 0.0625 1.546875 0.046875 1.703125 -0.078125 Z M 8.46875 -5.3125 "/>
</g>
<g id="glyph-23-0">
<path d="M 1.0625 -1.03125 L 1.859375 -2.28125 C 3.0625 -3.96875 3.53125 -4.625 3.296875 -5.59375 C 3.046875 -6.703125 1.984375 -7.28125 0.796875 -7 C -0.296875 -6.75 -0.8125 -5.6875 -0.609375 -4.8125 C -0.484375 -4.28125 0 -4.390625 0.03125 -4.40625 C 0.203125 -4.4375 0.515625 -4.625 0.421875 -5.03125 C 0.359375 -5.28125 0.125 -5.5 -0.21875 -5.421875 C -0.296875 -5.40625 -0.3125 -5.390625 -0.328125 -5.375 C -0.265625 -6.0625 0.1875 -6.546875 0.75 -6.671875 C 1.640625 -6.875 2.21875 -6.171875 2.40625 -5.375 C 2.59375 -4.609375 2.296875 -3.734375 1.890625 -3 L 0.515625 -0.5 C 0.421875 -0.375 0.4375 -0.34375 0.484375 -0.109375 L 4.09375 -0.953125 L 3.96875 -2.703125 L 3.734375 -2.640625 C 3.734375 -2.34375 3.78125 -1.890625 3.703125 -1.734375 C 3.671875 -1.640625 3.03125 -1.484375 2.8125 -1.4375 Z M 1.0625 -1.03125 "/>
</g>
<g id="glyph-23-1">
<path d="M 2.015625 -4.078125 C 2.75 -4.515625 3.15625 -5.328125 2.984375 -6.09375 C 2.796875 -6.890625 1.8125 -7.234375 0.890625 -7.015625 C -0.078125 -6.796875 -0.6875 -6.046875 -0.515625 -5.296875 C -0.453125 -4.984375 -0.1875 -4.84375 0.09375 -4.90625 C 0.390625 -4.984375 0.53125 -5.25 0.46875 -5.53125 C 0.359375 -6 -0.09375 -5.890625 -0.234375 -5.859375 C -0.046875 -6.421875 0.5625 -6.6875 0.90625 -6.765625 C 1.3125 -6.859375 1.890625 -6.78125 2.09375 -5.90625 C 2.125 -5.78125 2.21875 -5.203125 2.078125 -4.734375 C 1.890625 -4.1875 1.578125 -4.078125 1.328125 -4.03125 C 1.25 -4 1.03125 -3.921875 0.953125 -3.90625 C 0.875 -3.875 0.828125 -3.84375 0.84375 -3.75 C 0.875 -3.640625 0.9375 -3.65625 1.109375 -3.703125 L 1.53125 -3.796875 C 2.328125 -3.984375 2.828125 -3.421875 3.046875 -2.453125 C 3.359375 -1.125 2.75 -0.703125 2.328125 -0.609375 C 1.90625 -0.5 1.140625 -0.515625 0.671875 -1 C 1.015625 -1.03125 1.265625 -1.296875 1.171875 -1.671875 C 1.09375 -2.015625 0.796875 -2.15625 0.515625 -2.09375 C 0.28125 -2.046875 0 -1.828125 0.109375 -1.40625 C 0.3125 -0.515625 1.359375 -0.078125 2.421875 -0.328125 C 3.609375 -0.609375 4.28125 -1.703125 4.046875 -2.6875 C 3.875 -3.484375 3.078125 -4.109375 2.015625 -4.078125 Z M 2.015625 -4.078125 "/>
</g>
</g>
<clipPath id="clip-0">
<path clip-rule="nonzero" d="M 371 159 L 412.683594 159 L 412.683594 180 L 371 180 Z M 371 159 "/>
</clipPath>
<clipPath id="clip-1">
<path clip-rule="nonzero" d="M 371 159 L 412.683594 159 L 412.683594 181 L 371 181 Z M 371 159 "/>
</clipPath>
<clipPath id="clip-2">
<path clip-rule="nonzero" d="M 371 121 L 412.683594 121 L 412.683594 141 L 371 141 Z M 371 121 "/>
</clipPath>
<clipPath id="clip-3">
<path clip-rule="nonzero" d="M 371 120 L 412.683594 120 L 412.683594 142 L 371 142 Z M 371 120 "/>
</clipPath>
<clipPath id="clip-4">
<path clip-rule="nonzero" d="M 371 82 L 412.683594 82 L 412.683594 102 L 371 102 Z M 371 82 "/>
</clipPath>
<clipPath id="clip-5">
<path clip-rule="nonzero" d="M 371 81 L 412.683594 81 L 412.683594 103 L 371 103 Z M 371 81 "/>
</clipPath>
<clipPath id="clip-6">
<path clip-rule="nonzero" d="M 371 43 L 412.683594 43 L 412.683594 63 L 371 63 Z M 371 43 "/>
</clipPath>
<clipPath id="clip-7">
<path clip-rule="nonzero" d="M 371 42 L 412.683594 42 L 412.683594 64 L 371 64 Z M 371 42 "/>
</clipPath>
</defs>
<path class="circle" d="M 24.430031 3.188469 C 24.430031 16.680656 13.492531 27.618156 0.00034375 27.618156 C -13.491844 27.618156 -24.429344 16.680656 -24.429344 3.188469 C -24.429344 -10.303719 -13.491844 -21.241219 0.00034375 -21.241219 C 13.492531 -21.241219 24.430031 -10.303719 24.430031 3.188469 Z M 24.430031 3.188469 " transform="matrix(1, 0, 0, -1, 25.027, 114.083)"/>
<g class="themed-dark-fill" fill-opacity="1">
<use xlink:href="#glyph-0-0" x="7.383" y="114.083"/>
</g>
<g class="themed-dark-fill" fill-opacity="1">
<use xlink:href="#glyph-1-0" x="15.348" y="115.876"/>
</g>
<g class="themed-dark-fill" fill-opacity="1">
<use xlink:href="#glyph-2-0" x="23.401" y="114.083"/>
</g>
<g class="themed-dark-fill" fill-opacity="1">
<use xlink:href="#glyph-0-0" x="29.973" y="114.083"/>
</g>
<g class="themed-dark-fill" fill-opacity="1">
<use xlink:href="#glyph-1-1" x="37.938" y="115.876"/>
</g>
<path class="circle" d="M 24.429937 3.186469 C 24.429937 16.678656 13.492437 27.616156 0.00025 27.616156 C -13.491938 27.616156 -24.429438 16.678656 -24.429438 3.186469 C -24.429438 -10.305719 -13.491938 -21.239312 0.00025 -21.239312 C 13.492437 -21.239312 24.429937 -10.305719 24.429937 3.186469 Z M 24.429937 3.186469 " transform="matrix(1, 0, 0, -1, 148.781, 182.081)"/>
<g class="themed-dark-fill" fill-opacity="1">
<use xlink:href="#glyph-0-0" x="131.137" y="182.081"/>
</g>
<g class="themed-dark-fill" fill-opacity="1">
<use xlink:href="#glyph-1-1" x="139.102" y="183.874"/>
</g>
<g class="themed-dark-fill" fill-opacity="1">
<use xlink:href="#glyph-2-0" x="147.155" y="182.081"/>
</g>
<g class="themed-dark-fill" fill-opacity="1">
<use xlink:href="#glyph-0-0" x="153.728" y="182.081"/>
</g>
<g class="themed-dark-fill" fill-opacity="1">
<use xlink:href="#glyph-1-2" x="161.692" y="183.874"/>
</g>
<path fill-rule="nonzero" fill="rgb(65.879822%, 59.999084%, 40.783691%)" fill-opacity="1" stroke-width="1.19553" stroke-linecap="butt" stroke-linejoin="miter" class="themed-stroke" stroke-opacity="1" stroke-miterlimit="10" d="M -20.113125 -7.108031 L 20.113437 -7.108031 L 20.113437 12.485719 L -20.113125 12.485719 Z M -20.113125 -7.108031 " transform="matrix(1, 0, 0, -1, 272.535, 211.224)"/>
<g class="themed-dark-fill" fill-opacity="1">
<use xlink:href="#glyph-3-0" x="257.204" y="211.224"/>
</g>
<g class="themed-dark-fill" fill-opacity="1">
<use xlink:href="#glyph-0-1" x="263.929" y="211.224"/>
</g>
<g class="themed-dark-fill" fill-opacity="1">
<use xlink:href="#glyph-3-1" x="269.173" y="211.224"/>
</g>
<g class="themed-dark-fill" fill-opacity="1">
<use xlink:href="#glyph-0-1" x="275.898" y="211.224"/>
</g>
<g class="themed-dark-fill" fill-opacity="1">
<use xlink:href="#glyph-3-2" x="281.142" y="211.224"/>
</g>
<path class="circle" d="M 24.429844 3.188 C 24.429844 16.680187 13.492344 27.617687 0.00015625 27.617687 C -13.492031 27.617687 -24.429531 16.680187 -24.429531 3.188 C -24.429531 -10.304188 -13.492031 -21.241688 0.00015625 -21.241688 C 13.492344 -21.241688 24.429844 -10.304188 24.429844 3.188 Z M 24.429844 3.188 " transform="matrix(1, 0, 0, -1, 272.535, 152.938)"/>
<g class="themed-dark-fill" fill-opacity="1">
<use xlink:href="#glyph-0-0" x="254.892" y="152.938"/>
</g>
<g class="themed-dark-fill" fill-opacity="1">
<use xlink:href="#glyph-1-0" x="262.856" y="154.731"/>
</g>
<g class="themed-dark-fill" fill-opacity="1">
<use xlink:href="#glyph-2-0" x="270.909" y="152.938"/>
</g>
<g class="themed-dark-fill" fill-opacity="1">
<use xlink:href="#glyph-0-0" x="277.482" y="152.938"/>
</g>
<g class="themed-dark-fill" fill-opacity="1">
<use xlink:href="#glyph-1-2" x="285.446" y="154.731"/>
</g>
<g clip-path="url(#clip-0)">
<path fill-rule="nonzero" fill="rgb(65.879822%, 59.999084%, 40.783691%)" fill-opacity="1" d="M 371.859375 179.472656 L 412.085938 179.472656 L 412.085938 159.878906 L 371.859375 159.878906 Z M 371.859375 179.472656 "/>
</g>
<g clip-path="url(#clip-1)">
<path fill="none" stroke-width="1.19553" stroke-linecap="butt" stroke-linejoin="miter" class="themed-stroke" stroke-opacity="1" stroke-miterlimit="10" d="M -20.113625 -7.107656 L 20.112938 -7.107656 L 20.112938 12.486094 L -20.113625 12.486094 Z M -20.113625 -7.107656 " transform="matrix(1, 0, 0, -1, 391.973, 172.365)"/>
</g>
<g class="themed-dark-fill" fill-opacity="1">
<use xlink:href="#glyph-3-0" x="376.642" y="172.365"/>
</g>
<g class="themed-dark-fill" fill-opacity="1">
<use xlink:href="#glyph-0-1" x="383.367" y="172.365"/>
</g>
<g class="themed-dark-fill" fill-opacity="1">
<use xlink:href="#glyph-3-2" x="388.611" y="172.365"/>
</g>
<g class="themed-dark-fill" fill-opacity="1">
<use xlink:href="#glyph-0-1" x="395.336" y="172.365"/>
</g>
<g class="themed-dark-fill" fill-opacity="1">
<use xlink:href="#glyph-3-1" x="400.58" y="172.365"/>
</g>
<g clip-path="url(#clip-2)">
<path fill-rule="nonzero" fill="rgb(65.879822%, 59.999084%, 40.783691%)" fill-opacity="1" d="M 371.859375 140.617188 L 412.085938 140.617188 L 412.085938 121.023438 L 371.859375 121.023438 Z M 371.859375 140.617188 "/>
</g>
<g clip-path="url(#clip-3)">
<path fill="none" stroke-width="1.19553" stroke-linecap="butt" stroke-linejoin="miter" class="themed-stroke" stroke-opacity="1" stroke-miterlimit="10" d="M -20.113625 -7.107188 L 20.112938 -7.107188 L 20.112938 12.486562 L -20.113625 12.486562 Z M -20.113625 -7.107188 " transform="matrix(1, 0, 0, -1, 391.973, 133.51)"/>
</g>
<g class="themed-dark-fill" fill-opacity="1">
<use xlink:href="#glyph-3-2" x="376.642" y="133.51"/>
</g>
<g class="themed-dark-fill" fill-opacity="1">
<use xlink:href="#glyph-0-1" x="383.367" y="133.51"/>
</g>
<g class="themed-dark-fill" fill-opacity="1">
<use xlink:href="#glyph-3-0" x="388.611" y="133.51"/>
</g>
<g class="themed-dark-fill" fill-opacity="1">
<use xlink:href="#glyph-0-1" x="395.336" y="133.51"/>
</g>
<g class="themed-dark-fill" fill-opacity="1">
<use xlink:href="#glyph-3-1" x="400.58" y="133.51"/>
</g>
<path class="circle" d="M 24.429937 3.186562 C 24.429937 16.67875 13.492437 27.61625 0.00025 27.61625 C -13.491938 27.61625 -24.429438 16.67875 -24.429438 3.186562 C -24.429438 -10.305625 -13.491938 -21.239219 0.00025 -21.239219 C 13.492437 -21.239219 24.429937 -10.305625 24.429937 3.186562 Z M 24.429937 3.186562 " transform="matrix(1, 0, 0, -1, 148.781, 46.085)"/>
<g class="themed-dark-fill" fill-opacity="1">
<use xlink:href="#glyph-0-0" x="131.137" y="46.085"/>
</g>
<g class="themed-dark-fill" fill-opacity="1">
<use xlink:href="#glyph-1-1" x="139.102" y="47.878"/>
</g>
<g class="themed-dark-fill" fill-opacity="1">
<use xlink:href="#glyph-2-0" x="147.155" y="46.085"/>
</g>
<g class="themed-dark-fill" fill-opacity="1">
<use xlink:href="#glyph-0-0" x="153.728" y="46.085"/>
</g>
<g class="themed-dark-fill" fill-opacity="1">
<use xlink:href="#glyph-1-2" x="161.692" y="47.878"/>
</g>
<path class="circle" d="M 24.429844 3.188938 C 24.429844 16.681125 13.492344 27.618625 0.00015625 27.618625 C -13.492031 27.618625 -24.429531 16.681125 -24.429531 3.188938 C -24.429531 -10.30325 -13.492031 -21.24075 0.00015625 -21.24075 C 13.492344 -21.24075 24.429844 -10.30325 24.429844 3.188938 Z M 24.429844 3.188938 " transform="matrix(1, 0, 0, -1, 272.535, 75.228)"/>
<g class="themed-dark-fill" fill-opacity="1">
<use xlink:href="#glyph-0-0" x="254.892" y="75.228"/>
</g>
<g class="themed-dark-fill" fill-opacity="1">
<use xlink:href="#glyph-1-0" x="262.856" y="77.022"/>
</g>
<g class="themed-dark-fill" fill-opacity="1">
<use xlink:href="#glyph-2-0" x="270.909" y="75.228"/>
</g>
<g class="themed-dark-fill" fill-opacity="1">
<use xlink:href="#glyph-0-0" x="277.482" y="75.228"/>
</g>
<g class="themed-dark-fill" fill-opacity="1">
<use xlink:href="#glyph-1-2" x="285.446" y="77.022"/>
</g>
<g clip-path="url(#clip-4)">
<path fill-rule="nonzero" fill="rgb(65.879822%, 59.999084%, 40.783691%)" fill-opacity="1" d="M 371.859375 101.761719 L 412.085938 101.761719 L 412.085938 82.167969 L 371.859375 82.167969 Z M 371.859375 101.761719 "/>
</g>
<g clip-path="url(#clip-5)">
<path fill="none" stroke-width="1.19553" stroke-linecap="butt" stroke-linejoin="miter" class="themed-stroke" stroke-opacity="1" stroke-miterlimit="10" d="M -20.113625 -7.105719 L 20.112938 -7.105719 L 20.112938 12.488031 L -20.113625 12.488031 Z M -20.113625 -7.105719 " transform="matrix(1, 0, 0, -1, 391.973, 94.656)"/>
</g>
<g class="themed-dark-fill" fill-opacity="1">
<use xlink:href="#glyph-3-1" x="376.642" y="94.656"/>
</g>
<g class="themed-dark-fill" fill-opacity="1">
<use xlink:href="#glyph-0-1" x="383.367" y="94.656"/>
</g>
<g class="themed-dark-fill" fill-opacity="1">
<use xlink:href="#glyph-3-0" x="388.611" y="94.656"/>
</g>
<g class="themed-dark-fill" fill-opacity="1">
<use xlink:href="#glyph-0-1" x="395.336" y="94.656"/>
</g>
<g class="themed-dark-fill" fill-opacity="1">
<use xlink:href="#glyph-3-2" x="400.58" y="94.656"/>
</g>
<g clip-path="url(#clip-6)">
<path fill-rule="nonzero" fill="rgb(65.879822%, 59.999084%, 40.783691%)" fill-opacity="1" d="M 371.859375 62.90625 L 412.085938 62.90625 L 412.085938 43.316406 L 371.859375 43.316406 Z M 371.859375 62.90625 "/>
</g>
<g clip-path="url(#clip-7)">
<path fill="none" stroke-width="1.19553" stroke-linecap="butt" stroke-linejoin="miter" class="themed-stroke" stroke-opacity="1" stroke-miterlimit="10" d="M -20.113625 -7.10525 L 20.112938 -7.10525 L 20.112938 12.484594 L -20.113625 12.484594 Z M -20.113625 -7.10525 " transform="matrix(1, 0, 0, -1, 391.973, 55.801)"/>
</g>
<g class="themed-dark-fill" fill-opacity="1">
<use xlink:href="#glyph-3-1" x="376.642" y="55.801"/>
</g>
<g class="themed-dark-fill" fill-opacity="1">
<use xlink:href="#glyph-0-1" x="383.367" y="55.801"/>
</g>
<g class="themed-dark-fill" fill-opacity="1">
<use xlink:href="#glyph-3-2" x="388.611" y="55.801"/>
</g>
<g class="themed-dark-fill" fill-opacity="1">
<use xlink:href="#glyph-0-1" x="395.336" y="55.801"/>
</g>
<g class="themed-dark-fill" fill-opacity="1">
<use xlink:href="#glyph-3-0" x="400.58" y="55.801"/>
</g>
<path fill-rule="nonzero" fill="rgb(65.879822%, 59.999084%, 40.783691%)" fill-opacity="1" stroke-width="1.19553" stroke-linecap="butt" stroke-linejoin="miter" class="themed-stroke" stroke-opacity="1" stroke-miterlimit="10" d="M -20.113125 -7.104875 L 20.113437 -7.104875 L 20.113437 12.484969 L -20.113125 12.484969 Z M -20.113125 -7.104875 " transform="matrix(1, 0, 0, -1, 272.535, 16.942)"/>
<g class="themed-dark-fill" fill-opacity="1">
<use xlink:href="#glyph-3-2" x="257.204" y="16.942"/>
</g>
<g class="themed-dark-fill" fill-opacity="1">
<use xlink:href="#glyph-0-1" x="263.929" y="16.942"/>
</g>
<g class="themed-dark-fill" fill-opacity="1">
<use xlink:href="#glyph-3-1" x="269.173" y="16.942"/>
</g>
<g class="themed-dark-fill" fill-opacity="1">
<use xlink:href="#glyph-0-1" x="275.898" y="16.942"/>
</g>
<g class="themed-dark-fill" fill-opacity="1">
<use xlink:href="#glyph-3-0" x="281.142" y="16.942"/>
</g>
<path fill="none" stroke-width="1.19553" stroke-linecap="butt" stroke-linejoin="miter" class="themed-stroke" stroke-opacity="1" stroke-miterlimit="10" d="M 21.933937 -8.862313 L 100.984719 -52.299813 " transform="matrix(1, 0, 0, -1, 25.027, 114.083)"/>
<path fill="none" stroke-width="0.9564" stroke-linecap="round" stroke-linejoin="round" class="themed-stroke" stroke-opacity="1" stroke-miterlimit="10" d="M -1.913379 2.549379 C -1.753918 1.593988 0.00109503 0.160286 0.477666 -0.00129644 C -0.000404799 -0.161464 -1.754357 -1.593228 -1.914766 -2.550542 " transform="matrix(0.87637, 0.48154, 0.48154, -0.87637, 126.0117, 166.38213)"/>
<g class="themed-fill" fill-opacity="1">
<use xlink:href="#glyph-4-0" x="58.033" y="146.353"/>
</g>
<g class="themed-fill" fill-opacity="1">
<use xlink:href="#glyph-5-0" x="65.37307" y="152.841508"/>
</g>
<g class="themed-fill" fill-opacity="1">
<use xlink:href="#glyph-6-0" x="74.70331" y="155.512854"/>
</g>
<g class="themed-fill" fill-opacity="1">
<use xlink:href="#glyph-4-0" x="87.974181" y="162.804814"/>
</g>
<g class="themed-fill" fill-opacity="1">
<use xlink:href="#glyph-5-1" x="95.314251" y="169.293322"/>
</g>
<path fill="none" stroke-width="1.19553" stroke-linecap="butt" stroke-linejoin="miter" class="themed-stroke" stroke-opacity="1" stroke-miterlimit="10" d="M 148.094094 -70.639656 L 225.871438 -89.276375 " transform="matrix(1, 0, 0, -1, 25.027, 114.083)"/>
<path fill="none" stroke-width="0.9564" stroke-linecap="round" stroke-linejoin="round" class="themed-stroke" stroke-opacity="1" stroke-miterlimit="10" d="M -1.911418 2.548947 C -1.755005 1.594219 -0.00109998 0.15854 0.478674 0.000320638 C -0.00138255 -0.158871 -1.75419 -1.595083 -1.911389 -2.548617 " transform="matrix(0.97243, 0.23296, 0.23296, -0.97243, 250.89773, 203.35755)"/>
<g class="themed-fill" fill-opacity="1">
<use xlink:href="#glyph-7-0" x="185.011" y="203.184"/>
</g>
<g class="themed-fill" fill-opacity="1">
<use xlink:href="#glyph-8-0" x="193.804156" y="207.503301"/>
</g>
<g class="themed-fill" fill-opacity="1">
<use xlink:href="#glyph-9-0" x="203.508563" y="207.615365"/>
</g>
<g class="themed-fill" fill-opacity="1">
<use xlink:href="#glyph-7-0" x="218.234071" y="211.143078"/>
</g>
<g class="themed-fill" fill-opacity="1">
<use xlink:href="#glyph-8-1" x="227.027227" y="215.462379"/>
</g>
<path fill="none" stroke-width="1.19553" stroke-linecap="butt" stroke-linejoin="miter" class="themed-stroke" stroke-opacity="1" stroke-miterlimit="10" d="M 148.113625 -59.07325 L 222.223 -41.624031 " transform="matrix(1, 0, 0, -1, 25.027, 114.083)"/>
<path fill="none" stroke-width="0.9564" stroke-linecap="round" stroke-linejoin="round" class="themed-stroke" stroke-opacity="1" stroke-miterlimit="10" d="M -1.913703 2.551852 C -1.753715 1.595136 -0.000972762 0.159013 0.478797 -0.00212306 C 0.000537032 -0.158392 -1.754501 -1.59524 -1.911023 -2.549663 " transform="matrix(0.97333, -0.2292, -0.2292, -0.97333, 247.24833, 155.70533)"/>
<g class="themed-fill" fill-opacity="1">
<use xlink:href="#glyph-10-0" x="185.1" y="162.603"/>
</g>
<g class="themed-fill" fill-opacity="1">
<use xlink:href="#glyph-11-0" x="194.896327" y="162.506913"/>
</g>
<g class="themed-fill" fill-opacity="1">
<use xlink:href="#glyph-10-1" x="203.614683" y="158.243158"/>
</g>
<g class="themed-fill" fill-opacity="1">
<use xlink:href="#glyph-10-0" x="218.131228" y="154.824798"/>
</g>
<g class="themed-fill" fill-opacity="1">
<use xlink:href="#glyph-11-1" x="227.92336" y="154.729698"/>
</g>
<path fill="none" stroke-width="1.19553" stroke-linecap="butt" stroke-linejoin="miter" class="themed-stroke" stroke-opacity="1" stroke-miterlimit="10" d="M 272.195656 -39.788094 L 345.297219 -51.983406 " transform="matrix(1, 0, 0, -1, 25.027, 114.083)"/>
<path fill="none" stroke-width="0.9564" stroke-linecap="round" stroke-linejoin="round" class="themed-stroke" stroke-opacity="1" stroke-miterlimit="10" d="M -1.91449 2.54915 C -1.755036 1.593561 0.00106277 0.159827 0.478903 0.00193308 C -0.000802112 -0.161282 -1.75378 -1.594407 -1.91094 -2.551342 " transform="matrix(0.98631, 0.16458, 0.16458, -0.98631, 370.32421, 166.06762)"/>
<g class="themed-fill" fill-opacity="1">
<use xlink:href="#glyph-12-0" x="307.478" y="170.972"/>
</g>
<g class="themed-fill" fill-opacity="1">
<use xlink:href="#glyph-13-0" x="316.549989" y="174.66743"/>
</g>
<g class="themed-fill" fill-opacity="1">
<use xlink:href="#glyph-14-0" x="326.239589" y="174.102641"/>
</g>
<g class="themed-fill" fill-opacity="1">
<use xlink:href="#glyph-12-0" x="341.175281" y="176.594876"/>
</g>
<g class="themed-fill" fill-opacity="1">
<use xlink:href="#glyph-13-1" x="350.24727" y="180.290306"/>
</g>
<path fill="none" stroke-width="1.19553" stroke-linecap="butt" stroke-linejoin="miter" class="themed-stroke" stroke-opacity="1" stroke-miterlimit="10" d="M 272.230813 -31.749031 L 345.297219 -20.167 " transform="matrix(1, 0, 0, -1, 25.027, 114.083)"/>
<path fill="none" stroke-width="0.9564" stroke-linecap="round" stroke-linejoin="round" class="themed-stroke" stroke-opacity="1" stroke-miterlimit="10" d="M -1.912364 2.548599 C -1.755151 1.594241 -0.000815992 0.161274 0.479568 -0.00188563 C -0.000197935 -0.159183 -1.75424 -1.593678 -1.913626 -2.549267 " transform="matrix(0.98766, -0.15656, -0.15656, -0.98766, 370.32293, 134.249)"/>
<g class="themed-fill" fill-opacity="1">
<use xlink:href="#glyph-15-0" x="308.896" y="136.36"/>
</g>
<g class="themed-fill" fill-opacity="1">
<use xlink:href="#glyph-16-0" x="318.672971" y="136.989044"/>
</g>
<g class="themed-fill" fill-opacity="1">
<use xlink:href="#glyph-15-1" x="327.683269" y="133.381916"/>
</g>
<g class="themed-fill" fill-opacity="1">
<use xlink:href="#glyph-15-0" x="342.413535" y="131.046931"/>
</g>
<g class="themed-fill" fill-opacity="1">
<use xlink:href="#glyph-16-1" x="352.186251" y="131.67665"/>
</g>
<path fill="none" stroke-width="1.19553" stroke-linecap="butt" stroke-linejoin="miter" class="themed-stroke" stroke-opacity="1" stroke-miterlimit="10" d="M 21.933937 15.23925 L 100.984719 58.67675 " transform="matrix(1, 0, 0, -1, 25.027, 114.083)"/>
<path fill="none" stroke-width="0.9564" stroke-linecap="round" stroke-linejoin="round" class="themed-stroke" stroke-opacity="1" stroke-miterlimit="10" d="M -1.914386 2.551232 C -1.753978 1.593918 -0.00190674 0.158731 0.478045 0.00198665 C 0.00147428 -0.159596 -1.753539 -1.593298 -1.913 -2.548689 " transform="matrix(0.87637, -0.48154, -0.48154, -0.87637, 126.0117, 55.40772)"/>
<g class="themed-fill" fill-opacity="1">
<use xlink:href="#glyph-17-0" x="61.82" y="82.086"/>
</g>
<g class="themed-fill" fill-opacity="1">
<use xlink:href="#glyph-18-0" x="71.231742" y="79.36987"/>
</g>
<g class="themed-fill" fill-opacity="1">
<use xlink:href="#glyph-17-1" x="78.489434" y="72.926628"/>
</g>
<g class="themed-fill" fill-opacity="1">
<use xlink:href="#glyph-17-0" x="91.559887" y="65.744791"/>
</g>
<g class="themed-fill" fill-opacity="1">
<use xlink:href="#glyph-18-1" x="100.968729" y="63.030255"/>
</g>
<path fill="none" stroke-width="1.19553" stroke-linecap="butt" stroke-linejoin="miter" class="themed-stroke" stroke-opacity="1" stroke-miterlimit="10" d="M 148.113625 65.450187 L 222.223 47.997062 " transform="matrix(1, 0, 0, -1, 25.027, 114.083)"/>
<path fill="none" stroke-width="0.9564" stroke-linecap="round" stroke-linejoin="round" class="themed-stroke" stroke-opacity="1" stroke-miterlimit="10" d="M -1.9113 2.550838 C -1.753883 1.592613 0.000260246 0.159568 0.479415 -0.000503962 C -0.00124955 -0.157837 -1.753992 -1.593961 -1.913979 -2.550677 " transform="matrix(0.97333, 0.2292, 0.2292, -0.97333, 247.24833, 66.08494)"/>
<g class="themed-fill" fill-opacity="1">
<use xlink:href="#glyph-19-0" x="183.233" y="66.608"/>
</g>
<g class="themed-fill" fill-opacity="1">
<use xlink:href="#glyph-20-0" x="192.04285" y="70.8933"/>
</g>
<g class="themed-fill" fill-opacity="1">
<use xlink:href="#glyph-21-0" x="201.747683" y="70.967842"/>
</g>
<g class="themed-fill" fill-opacity="1">
<use xlink:href="#glyph-19-0" x="216.486819" y="74.438618"/>
</g>
<g class="themed-fill" fill-opacity="1">
<use xlink:href="#glyph-20-1" x="225.296669" y="78.723918"/>
</g>
<path fill="none" stroke-width="1.19553" stroke-linecap="butt" stroke-linejoin="miter" class="themed-stroke" stroke-opacity="1" stroke-miterlimit="10" d="M 272.195656 37.922844 L 345.297219 25.727531 " transform="matrix(1, 0, 0, -1, 25.027, 114.083)"/>
<path fill="none" stroke-width="0.9564" stroke-linecap="round" stroke-linejoin="round" class="themed-stroke" stroke-opacity="1" stroke-miterlimit="10" d="M -1.914598 2.549798 C -1.755144 1.594209 0.00095455 0.160475 0.479438 -0.00127154 C -0.000910335 -0.160634 -1.753889 -1.593759 -1.911048 -2.550693 " transform="matrix(0.98631, 0.16458, 0.16458, -0.98631, 370.32421, 88.35734)"/>
<g class="themed-fill" fill-opacity="1">
<use xlink:href="#glyph-12-0" x="307.478" y="93.263"/>
</g>
<g class="themed-fill" fill-opacity="1">
<use xlink:href="#glyph-13-0" x="316.549989" y="96.95843"/>
</g>
<g class="themed-fill" fill-opacity="1">
<use xlink:href="#glyph-14-0" x="326.239589" y="96.393641"/>
</g>
<g class="themed-fill" fill-opacity="1">
<use xlink:href="#glyph-12-0" x="341.175281" y="98.885876"/>
</g>
<g class="themed-fill" fill-opacity="1">
<use xlink:href="#glyph-13-1" x="350.24727" y="102.581306"/>
</g>
<path fill="none" stroke-width="1.19553" stroke-linecap="butt" stroke-linejoin="miter" class="themed-stroke" stroke-opacity="1" stroke-miterlimit="10" d="M 272.230813 45.961906 L 345.297219 57.543937 " transform="matrix(1, 0, 0, -1, 25.027, 114.083)"/>
<path fill="none" stroke-width="0.9564" stroke-linecap="round" stroke-linejoin="round" class="themed-stroke" stroke-opacity="1" stroke-miterlimit="10" d="M -1.912261 2.549249 C -1.755048 1.59489 -0.00132463 0.158065 0.479671 -0.00123623 C -0.0000949953 -0.158534 -1.754137 -1.593029 -1.913523 -2.548618 " transform="matrix(0.98766, -0.15656, -0.15656, -0.98766, 370.32293, 56.53872)"/>
<g class="themed-fill" fill-opacity="1">
<use xlink:href="#glyph-15-0" x="308.896" y="58.651"/>
</g>
<g class="themed-fill" fill-opacity="1">
<use xlink:href="#glyph-16-0" x="318.672971" y="59.280044"/>
</g>
<g class="themed-fill" fill-opacity="1">
<use xlink:href="#glyph-15-1" x="327.683269" y="55.672916"/>
</g>
<g class="themed-fill" fill-opacity="1">
<use xlink:href="#glyph-15-0" x="342.413535" y="53.337931"/>
</g>
<g class="themed-fill" fill-opacity="1">
<use xlink:href="#glyph-16-1" x="352.186251" y="53.96765"/>
</g>
<path fill="none" stroke-width="1.19553" stroke-linecap="butt" stroke-linejoin="miter" class="themed-stroke" stroke-opacity="1" stroke-miterlimit="10" d="M 148.137063 76.829094 L 225.867531 94.829094 " transform="matrix(1, 0, 0, -1, 25.027, 114.083)"/>
<path fill="none" stroke-width="0.9564" stroke-linecap="round" stroke-linejoin="round" class="themed-stroke" stroke-opacity="1" stroke-miterlimit="10" d="M -1.913444 2.548821 C -1.753685 1.59361 -0.0003016 0.16116 0.479177 -0.0019818 C 0.00151491 -0.160037 -1.753949 -1.594041 -1.911581 -2.551949 " transform="matrix(0.9742, -0.22556, -0.22556, -0.9742, 250.89602, 19.25459)"/>
<g class="themed-fill" fill-opacity="1">
<use xlink:href="#glyph-22-0" x="186.942" y="26.332"/>
</g>
<g class="themed-fill" fill-opacity="1">
<use xlink:href="#glyph-23-0" x="196.737835" y="26.272801"/>
</g>
<g class="themed-fill" fill-opacity="1">
<use xlink:href="#glyph-22-1" x="205.473232" y="22.041398"/>
</g>
<g class="themed-fill" fill-opacity="1">
<use xlink:href="#glyph-22-0" x="220.002753" y="18.677326"/>
</g>
<g class="themed-fill" fill-opacity="1">
<use xlink:href="#glyph-23-1" x="229.795363" y="18.618874"/>
</g>
</svg>
