<?xml version="1.0" encoding="UTF-8" standalone="no"?>
<!-- Created with Inkscape (http://www.inkscape.org/) -->

<svg
   xmlns:dc="http://purl.org/dc/elements/1.1/"
   xmlns:cc="http://creativecommons.org/ns#"
   xmlns:rdf="http://www.w3.org/1999/02/22-rdf-syntax-ns#"
   xmlns:svg="http://www.w3.org/2000/svg"
   xmlns="http://www.w3.org/2000/svg"
   xmlns:sodipodi="http://sodipodi.sourceforge.net/DTD/sodipodi-0.dtd"
   xmlns:inkscape="http://www.inkscape.org/namespaces/inkscape"
   width="39.365597mm"
   height="12.747272mm"
   viewBox="0 0 139.4844 45.167501"
   id="svg4917"
   version="1.1"
   inkscape:version="0.91 r13725"
   sodipodi:docname="master_csu_logo_for_blue_or_black_backgrounds.svg">
  <defs
     id="defs4919">
    <clipPath
       clipPathUnits="userSpaceOnUse"
       id="clipPath4822">
      <path
         d="m 381.79,120.972 111.639,0 0,36.134 -111.639,0 0,-36.134 z"
         id="path4824"
         inkscape:connector-curvature="0" />
    </clipPath>
  </defs>
  <sodipodi:namedview
     id="base"
     pagecolor="#ffffff"
     bordercolor="#666666"
     borderopacity="1.0"
     inkscape:pageopacity="0.0"
     inkscape:pageshadow="2"
     inkscape:zoom="7.9195959"
     inkscape:cx="87.221164"
     inkscape:cy="4.3910367"
     inkscape:document-units="px"
     inkscape:current-layer="layer1"
     showgrid="false"
     fit-margin-top="0"
     fit-margin-left="0"
     fit-margin-right="0"
     fit-margin-bottom="0"
     inkscape:window-width="1920"
     inkscape:window-height="1017"
     inkscape:window-x="1912"
     inkscape:window-y="-8"
     inkscape:window-maximized="1" />
  <metadata
     id="metadata4922">
    <rdf:RDF>
      <cc:Work
         rdf:about="">
        <dc:format>image/svg+xml</dc:format>
        <dc:type
           rdf:resource="http://purl.org/dc/dcmitype/StillImage" />
        <dc:title></dc:title>
      </cc:Work>
    </rdf:RDF>
  </metadata>
  <g
     inkscape:label="Layer 1"
     inkscape:groupmode="layer"
     id="layer1"
     transform="translate(-144.54352,-246.92131)">
    <g
       id="g4764"
       transform="matrix(1.25,0,0,-1.25,147.90066,252.27193)">
      <path
         d="M 0,0 8.662,-4.833 8.822,-4.547 0.203,0.265 0,0 Z"
         style="fill:#a4965f;fill-opacity:1;fill-rule:nonzero;stroke:none"
         id="path4766"
         inkscape:connector-curvature="0" />
    </g>
    <g
       id="g4768"
       transform="matrix(1.25,0,0,-1.25,158.85654,257.91756)">
      <path
         d="M 0,0 0.16,-0.286 9.03,4.656 8.831,4.924 0,0 Z"
         style="fill:#a4965f;fill-opacity:1;fill-rule:nonzero;stroke:none"
         id="path4770"
         inkscape:connector-curvature="0" />
    </g>
    <path
       d="m 158.65242,258.26256 0.41125,0 0,-11.34125 -0.41125,0 0,11.34125 z"
       style="fill:#a4965f;fill-opacity:1;fill-rule:nonzero;stroke:none"
       id="path4772"
       inkscape:connector-curvature="0" />
    <path
       d="m 145.04616,258.38756 28.00626,0 0,-0.41 -28.00626,0 0,0.41 z"
       style="fill:#a4965f;fill-opacity:1;fill-rule:nonzero;stroke:none"
       id="path4774"
       inkscape:connector-curvature="0" />
    <path
       d="m 144.89991,260.89131 3.29125,0 0,-0.82 -3.29125,0 0,0.82 z"
       style="fill:#a4965f;fill-opacity:1;fill-rule:nonzero;stroke:none"
       id="path4776"
       inkscape:connector-curvature="0" />
    <path
       d="m 153.24616,260.89131 3.29251,0 0,-0.82 -3.29251,0 0,0.82 z"
       style="fill:#a4965f;fill-opacity:1;fill-rule:nonzero;stroke:none"
       id="path4778"
       inkscape:connector-curvature="0" />
    <path
       d="m 161.59242,260.89131 3.2925,0 0,-0.82 -3.2925,0 0,0.82 z"
       style="fill:#a4965f;fill-opacity:1;fill-rule:nonzero;stroke:none"
       id="path4780"
       inkscape:connector-curvature="0" />
    <path
       d="m 169.93867,260.89131 3.29375,0 0,-0.82 -3.29375,0 0,0.82 z"
       style="fill:#a4965f;fill-opacity:1;fill-rule:nonzero;stroke:none"
       id="path4782"
       inkscape:connector-curvature="0" />
    <path
       d="m 144.89991,283.86256 3.29125,0 0,-0.82 -3.29125,0 0,0.82 z"
       style="fill:#a4965f;fill-opacity:1;fill-rule:nonzero;stroke:none"
       id="path4784"
       inkscape:connector-curvature="0" />
    <path
       d="m 153.24616,283.86256 3.29251,0 0,-0.82 -3.29251,0 0,0.82 z"
       style="fill:#a4965f;fill-opacity:1;fill-rule:nonzero;stroke:none"
       id="path4786"
       inkscape:connector-curvature="0" />
    <path
       d="m 161.59242,283.86256 3.2925,0 0,-0.82 -3.2925,0 0,0.82 z"
       style="fill:#a4965f;fill-opacity:1;fill-rule:nonzero;stroke:none"
       id="path4788"
       inkscape:connector-curvature="0" />
    <path
       d="m 169.93867,283.86256 3.29375,0 0,-0.82 -3.29375,0 0,0.82 z"
       style="fill:#a4965f;fill-opacity:1;fill-rule:nonzero;stroke:none"
       id="path4790"
       inkscape:connector-curvature="0" />
    <path
       d="m 153.20866,281.77006 0.97,0 0,-19.52625 -0.97,0 0,19.52625 z"
       style="fill:#a4965f;fill-opacity:1;fill-rule:nonzero;stroke:none"
       id="path4792"
       inkscape:connector-curvature="0" />
    <path
       d="m 155.04617,281.77006 0.43375,0 0,-19.52625 -0.43375,0 0,19.52625 z"
       style="fill:#a4965f;fill-opacity:1;fill-rule:nonzero;stroke:none"
       id="path4794"
       inkscape:connector-curvature="0" />
    <path
       d="m 156.07992,281.77006 0.43375,0 0,-19.52625 -0.43375,0 0,19.52625 z"
       style="fill:#a4965f;fill-opacity:1;fill-rule:nonzero;stroke:none"
       id="path4796"
       inkscape:connector-curvature="0" />
    <path
       d="m 144.86116,281.77006 0.97125,0 0,-19.52625 -0.97125,0 0,19.52625 z"
       style="fill:#a4965f;fill-opacity:1;fill-rule:nonzero;stroke:none"
       id="path4798"
       inkscape:connector-curvature="0" />
    <path
       d="m 146.69991,281.77006 0.43375,0 0,-19.52625 -0.43375,0 0,19.52625 z"
       style="fill:#a4965f;fill-opacity:1;fill-rule:nonzero;stroke:none"
       id="path4800"
       inkscape:connector-curvature="0" />
    <path
       d="m 147.73366,281.77006 0.43375,0 0,-19.52625 -0.43375,0 0,19.52625 z"
       style="fill:#a4965f;fill-opacity:1;fill-rule:nonzero;stroke:none"
       id="path4802"
       inkscape:connector-curvature="0" />
    <path
       d="m 172.31242,281.77006 0.97125,0 0,-19.52625 -0.97125,0 0,19.52625 z"
       style="fill:#a4965f;fill-opacity:1;fill-rule:nonzero;stroke:none"
       id="path4804"
       inkscape:connector-curvature="0" />
    <path
       d="m 171.00992,281.77006 0.435,0 0,-19.52625 -0.435,0 0,19.52625 z"
       style="fill:#a4965f;fill-opacity:1;fill-rule:nonzero;stroke:none"
       id="path4806"
       inkscape:connector-curvature="0" />
    <path
       d="m 169.97617,281.77006 0.43375,0 0,-19.52625 -0.43375,0 0,19.52625 z"
       style="fill:#a4965f;fill-opacity:1;fill-rule:nonzero;stroke:none"
       id="path4808"
       inkscape:connector-curvature="0" />
    <path
       d="m 163.96617,281.77006 0.96875,0 0,-19.52625 -0.96875,0 0,19.52625 z"
       style="fill:#a4965f;fill-opacity:1;fill-rule:nonzero;stroke:none"
       id="path4810"
       inkscape:connector-curvature="0" />
    <path
       d="m 162.66367,281.77006 0.435,0 0,-19.52625 -0.435,0 0,19.52625 z"
       style="fill:#a4965f;fill-opacity:1;fill-rule:nonzero;stroke:none"
       id="path4812"
       inkscape:connector-curvature="0" />
    <path
       d="m 161.62992,281.77006 0.43375,0 0,-19.52625 -0.43375,0 0,19.52625 z"
       style="fill:#a4965f;fill-opacity:1;fill-rule:nonzero;stroke:none"
       id="path4814"
       inkscape:connector-curvature="0" />
    <path
       d="m 144.86866,292.08881 28.57001,0 0,-2.41125 -28.57001,0 0,2.41125 z"
       style="fill:#a4965f;fill-opacity:1;fill-rule:nonzero;stroke:none"
       id="path4816"
       inkscape:connector-curvature="0" />
    <g
       transform="matrix(1.25,0,0,-1.25,-332.75759,443.30381)"
       id="g4818">
      <g
         id="g4820"
         clip-path="url(#clipPath4822)">
        <g
           id="g4826"
           transform="translate(404.8979,124.23)">
          <path
             d="m 0,0 c -0.082,0.204 -0.317,0.304 -0.525,0.231 -0.01,-0.006 -0.888,-0.283 -3.42,0.755 1.816,-0.221 3.476,-0.108 3.576,-0.1 0.136,0.01 0.237,0.127 0.228,0.263 -0.01,0.135 -0.128,0.236 -0.264,0.227 -0.032,-0.003 -3.16,-0.216 -5.476,0.505 -1.435,0.714 -2.715,0.843 -3.802,0.375 -0.909,-0.392 -1.487,-1.116 -1.83,-1.709 -0.344,0.593 -0.922,1.317 -1.83,1.709 -1.078,0.464 -2.344,0.34 -3.763,-0.356 -2.321,-0.742 -5.497,-0.527 -5.53,-0.524 -0.136,0.009 -0.253,-0.092 -0.263,-0.227 -0.01,-0.136 0.092,-0.253 0.227,-0.263 0.101,-0.008 1.771,-0.122 3.596,0.102 -2.535,-1.04 -3.416,-0.763 -3.426,-0.757 -0.207,0.073 -0.443,-0.027 -0.524,-0.231 -0.082,-0.204 0.003,-0.433 0.203,-0.524 0.151,-0.067 1.596,-0.597 5.97,1.639 1.238,0.632 2.308,0.763 3.18,0.391 1.057,-0.453 1.566,-1.529 1.731,-1.949 -0.033,-0.201 0.081,-0.399 0.281,-0.459 l 0.122,-0.01 0.026,-0.003 0.025,0.003 0.122,0.01 c 0.2,0.06 0.315,0.258 0.281,0.459 0.166,0.42 0.675,1.496 1.731,1.949 0.873,0.372 1.943,0.241 3.181,-0.391 4.373,-2.236 5.819,-1.706 5.969,-1.639 0.2,0.091 0.286,0.32 0.204,0.524"
             style="fill:#a4965f;fill-opacity:1;fill-rule:nonzero;stroke:none"
             id="path4828"
             inkscape:connector-curvature="0" />
        </g>
        <g
           id="g4830"
           transform="translate(395.7368,148.6305)">
          <path
             d="M 0,0 8.936,0 C 8.53,1.43 7.858,2.745 6.976,3.894 L 0,0"
             style="fill:#a4965f;fill-opacity:1;fill-rule:nonzero;stroke:none"
             id="path4832"
             inkscape:connector-curvature="0" />
        </g>
        <g
           id="g4834"
           transform="translate(382.259,148.6305)">
          <path
             d="M 0,0 8.588,0 1.858,3.757 C 1.027,2.64 0.391,1.375 0,0"
             style="fill:#a4965f;fill-opacity:1;fill-rule:nonzero;stroke:none"
             id="path4836"
             inkscape:connector-curvature="0" />
        </g>
        <g
           id="g4838"
           transform="translate(394.0296,149.3664)">
          <path
             d="M 0,0 7.7,4.298 C 5.713,6.296 3.003,7.562 0,7.706 L 0,0"
             style="fill:#a4965f;fill-opacity:1;fill-rule:nonzero;stroke:none"
             id="path4840"
             inkscape:connector-curvature="0" />
        </g>
        <g
           id="g4842"
           transform="translate(392.5549,149.3664)">
          <path
             d="M 0,0 0,7.688 C -2.926,7.461 -5.547,6.159 -7.469,4.169 L 0,0"
             style="fill:#a4965f;fill-opacity:1;fill-rule:nonzero;stroke:none"
             id="path4844"
             inkscape:connector-curvature="0" />
        </g>
        <g
           id="g4846"
           transform="translate(485.2084,154.6645)">
          <path
             d="m 0,0 c 0.388,-0.436 1.758,-1.964 3.165,-3.48 1.284,-1.382 3.03,-3.164 3.164,-3.285 0.642,-0.642 0.788,-0.776 0.884,-0.776 0.086,0 0.109,0.061 0.109,0.861 l 0.025,7.105 c 0,0.726 0.048,0.994 0.448,1.078 0.146,0.036 0.231,0.036 0.291,0.036 0.085,0 0.134,0.037 0.134,0.085 0,0.073 -0.085,0.085 -0.218,0.085 -0.497,0 -0.898,-0.036 -1.031,-0.036 -0.133,0 -0.715,0.036 -1.261,0.036 -0.146,0 -0.242,-0.012 -0.242,-0.085 0,-0.048 0.013,-0.085 0.096,-0.085 0.097,0 0.376,-0.012 0.595,-0.06 C 6.534,1.382 6.62,1.115 6.631,0.327 L 6.765,-5.832 C 6.377,-5.431 5.056,-3.953 3.855,-2.668 1.988,-0.667 0.181,1.285 0,1.491 -0.122,1.612 -0.327,1.879 -0.425,1.879 -0.522,1.879 -0.558,1.746 -0.558,1.273 L -0.57,-5.674 c 0,-1.103 -0.061,-1.455 -0.364,-1.54 -0.181,-0.061 -0.4,-0.073 -0.497,-0.073 l -0.096,-0.072 c 0,-0.086 0.072,-0.097 0.193,-0.097 0.546,0 1.055,0.036 1.164,0.036 0.109,0 0.595,-0.036 1.285,-0.036 0.145,0 0.219,0.024 0.219,0.097 l -0.097,0.072 c -0.11,0 -0.376,0.012 -0.607,0.073 -0.327,0.097 -0.449,0.413 -0.472,1.407 L 0,0 m -10.469,-2.522 c 0,2.656 1.515,3.989 3.541,3.989 1.915,0 3.686,-1.564 3.686,-4.474 0,-3.528 -2.255,-4.158 -3.347,-4.158 -2.182,0 -3.88,1.818 -3.88,4.643 m -1.151,-0.339 c 0,-2.183 1.382,-4.765 4.704,-4.765 2.921,0 4.837,2.243 4.837,4.958 0,2.826 -2.037,4.547 -4.764,4.547 -3.347,0 -4.777,-2.776 -4.777,-4.74 m -3.371,4.049 1.527,-0.024 c 1.164,-0.025 1.443,-0.303 1.491,-0.667 l 0.012,-0.134 c 0.012,-0.169 0.037,-0.205 0.098,-0.205 0.048,0 0.084,0.048 0.084,0.157 0,0.133 0.037,0.97 0.037,1.334 l -0.061,0.145 c -0.048,0 -0.158,-0.024 -0.339,-0.06 -0.194,-0.025 -0.473,-0.061 -0.86,-0.061 l -4.547,0 c -0.145,0 -0.607,0.024 -0.959,0.061 -0.326,0.024 -0.448,0.145 -0.532,0.145 l -0.122,-0.23 c -0.024,-0.097 -0.267,-1.14 -0.267,-1.261 0,-0.073 0.025,-0.109 0.061,-0.109 0.048,0 0.085,0.024 0.121,0.121 0.037,0.085 0.074,0.17 0.207,0.376 0.193,0.291 0.484,0.375 1.236,0.388 l 1.795,0.024 0,-5.128 c 0,-1.164 0,-2.122 -0.061,-2.631 -0.049,-0.352 -0.109,-0.618 -0.352,-0.667 -0.109,-0.024 -0.254,-0.049 -0.363,-0.049 l -0.098,-0.072 c 0,-0.073 0.06,-0.097 0.194,-0.097 0.364,0 1.128,0.036 1.188,0.036 0.062,0 0.825,-0.036 1.492,-0.036 0.133,0 0.194,0.036 0.194,0.097 l -0.097,0.072 c -0.109,0 -0.376,0.025 -0.546,0.049 -0.364,0.049 -0.436,0.315 -0.473,0.667 -0.06,0.509 -0.06,1.467 -0.06,2.631 l 0,5.128 z m -7.89,-8.814 c 0.655,0 1.309,0.146 1.831,0.509 0.836,0.594 1.032,1.516 1.032,2.013 0,0.97 -0.341,1.722 -1.772,2.849 l -0.339,0.266 c -1.14,0.934 -1.479,1.346 -1.479,2.037 0,0.885 0.654,1.407 1.491,1.407 1.115,0 1.443,-0.509 1.516,-0.643 0.072,-0.133 0.146,-0.461 0.158,-0.606 0.011,-0.097 0.024,-0.158 0.096,-0.158 0.061,0 0.085,0.086 0.085,0.279 0,0.824 0.048,1.225 0.048,1.285 0,0.061 -0.023,0.085 -0.121,0.085 -0.097,0 -0.194,0.012 -0.423,0.061 -0.304,0.072 -0.656,0.121 -1.128,0.121 -1.54,0 -2.51,-0.885 -2.51,-2.182 0,-0.824 0.291,-1.576 1.576,-2.631 l 0.546,-0.448 c 1.042,-0.862 1.394,-1.346 1.394,-2.183 0,-0.776 -0.57,-1.613 -1.734,-1.613 -0.812,0 -1.612,0.34 -1.794,1.238 -0.036,0.169 -0.036,0.339 -0.036,0.448 0,0.096 -0.013,0.133 -0.085,0.133 -0.061,0 -0.085,-0.06 -0.097,-0.194 -0.013,-0.194 -0.061,-0.679 -0.061,-1.285 0,-0.327 0.011,-0.376 0.182,-0.461 0.497,-0.242 1.055,-0.327 1.624,-0.327 m -7.208,3.686 c 0,-1.164 0,-2.122 -0.06,-2.631 -0.049,-0.352 -0.111,-0.618 -0.353,-0.667 -0.109,-0.024 -0.254,-0.049 -0.363,-0.049 l -0.096,-0.072 c 0,-0.073 0.059,-0.097 0.193,-0.097 0.182,0 0.461,0.011 0.702,0.024 0.256,0 0.462,0.012 0.486,0.012 0.352,0 1.163,-0.073 2.995,-0.073 0.473,0 0.569,0 0.654,0.315 0.061,0.255 0.158,1.08 0.158,1.176 0,0.086 0,0.182 -0.073,0.182 -0.061,0 -0.085,-0.048 -0.109,-0.182 -0.085,-0.496 -0.231,-0.739 -0.546,-0.872 -0.315,-0.134 -0.848,-0.134 -1.163,-0.134 -1.189,0 -1.37,0.158 -1.407,0.994 -0.013,0.255 0,1.662 0,2.074 l 0,1.067 0.085,0.084 c 0.206,0 1.407,-0.024 1.734,-0.06 0.473,-0.049 0.582,-0.255 0.63,-0.425 0.049,-0.157 0.049,-0.278 0.049,-0.4 l 0.084,-0.109 c 0.085,0 0.085,0.134 0.085,0.231 0,0.084 0.024,0.533 0.048,0.776 0.037,0.399 0.098,0.606 0.098,0.679 L -26.319,-2 c -0.048,0 -0.096,-0.061 -0.182,-0.159 -0.108,-0.12 -0.278,-0.145 -0.57,-0.169 -0.278,-0.024 -1.769,-0.024 -1.927,-0.024 -0.061,0 -0.073,0.036 -0.073,0.121 l 0,3.346 c 0,0.085 0.024,0.121 0.073,0.121 0.134,0 1.455,-0.012 1.661,-0.036 0.655,-0.073 0.775,-0.218 0.861,-0.412 0.061,-0.145 0.072,-0.351 0.072,-0.437 0,-0.096 0.024,-0.157 0.098,-0.157 l 0.084,0.133 c 0.025,0.146 0.049,0.679 0.06,0.8 0.038,0.34 0.098,0.485 0.098,0.57 l -0.048,0.109 -0.17,-0.06 c -0.098,-0.024 -0.291,-0.049 -0.522,-0.061 -0.278,-0.012 -2.691,-0.012 -2.776,-0.012 -0.06,0 -0.824,0.036 -1.37,0.036 -0.133,0 -0.194,-0.024 -0.194,-0.097 l 0.097,-0.073 c 0.108,0 0.315,-0.012 0.413,-0.036 0.399,-0.084 0.497,-0.279 0.521,-0.691 0.024,-0.387 0.024,-0.727 0.024,-2.619 l 0,-2.133 z m -5.299,2.133 c 0,1.892 0,2.232 0.024,2.619 0.024,0.424 0.121,0.631 0.473,0.691 0.146,0.024 0.315,0.036 0.4,0.036 l 0.098,0.073 c 0,0.073 -0.062,0.097 -0.195,0.097 -0.364,0 -1.249,-0.036 -1.309,-0.036 -0.061,0 -0.825,0.036 -1.371,0.036 -0.133,0 -0.194,-0.024 -0.194,-0.097 l 0.097,-0.073 c 0.11,0 0.315,-0.012 0.412,-0.036 0.4,-0.084 0.497,-0.279 0.522,-0.691 0.024,-0.387 0.024,-0.727 0.024,-2.619 l 0,-2.133 c 0,-1.164 0,-2.122 -0.06,-2.631 -0.049,-0.352 -0.11,-0.618 -0.352,-0.667 -0.108,-0.024 -0.256,-0.049 -0.364,-0.049 l -0.097,-0.072 c 0,-0.073 0.061,-0.097 0.194,-0.097 0.182,0 0.449,0.011 0.692,0.024 0.241,0 0.448,0.012 0.497,0.012 0.703,0 1.504,-0.073 3.25,-0.073 0.642,0 0.678,0.048 0.763,0.328 0.096,0.351 0.182,1.079 0.182,1.212 0,0.133 -0.013,0.182 -0.074,0.182 -0.072,0 -0.095,-0.061 -0.108,-0.158 -0.037,-0.23 -0.158,-0.533 -0.316,-0.727 -0.291,-0.352 -0.824,-0.364 -1.467,-0.364 -0.945,0 -1.26,0.085 -1.455,0.279 -0.218,0.218 -0.266,0.994 -0.266,2.776 l 0,2.158 z m -9.148,2.91 c 0,0.072 0.037,0.121 0.097,0.146 0.121,0.036 0.449,0.072 0.813,0.072 1.297,0 2.097,-0.909 2.097,-2.425 0,-0.921 -0.315,-1.576 -0.74,-1.866 -0.278,-0.195 -0.618,-0.231 -0.909,-0.231 -0.533,0 -1.091,0.085 -1.273,0.194 l -0.085,0.146 0,3.964 z m -0.969,-5.043 c 0,-1.164 0,-2.122 -0.061,-2.631 -0.049,-0.352 -0.109,-0.618 -0.351,-0.667 -0.11,-0.024 -0.255,-0.049 -0.364,-0.049 l -0.097,-0.072 c 0,-0.073 0.06,-0.097 0.194,-0.097 0.363,0 1.127,0.036 1.139,0.036 0.06,0 0.824,-0.036 1.491,-0.036 0.134,0 0.194,0.036 0.194,0.097 l -0.096,0.072 c -0.11,0 -0.377,0.025 -0.547,0.049 -0.363,0.049 -0.436,0.315 -0.472,0.667 -0.061,0.509 -0.061,1.467 -0.061,2.631 l 0,0.291 0.085,0.097 1.491,-0.025 0.158,-0.072 c 0.242,-0.316 0.812,-1.128 1.321,-1.795 0.692,-0.909 1.115,-1.503 1.637,-1.782 0.315,-0.17 0.618,-0.23 1.297,-0.23 l 0.861,0 c 0.218,0 0.291,0.024 0.291,0.097 l -0.11,0.072 c -0.072,0 -0.242,0 -0.473,0.037 -0.302,0.048 -0.823,0.182 -1.478,0.873 -0.703,0.751 -1.528,1.83 -2.521,3.103 1.09,1.007 1.466,1.903 1.466,2.801 0,0.836 -0.533,1.431 -0.836,1.648 -0.643,0.462 -1.455,0.534 -2.219,0.534 -0.375,0 -1.297,-0.036 -1.431,-0.036 -0.06,0 -0.824,0.036 -1.369,0.036 -0.134,0 -0.195,-0.024 -0.195,-0.097 l 0.098,-0.073 c 0.109,0 0.315,-0.012 0.412,-0.036 0.399,-0.084 0.497,-0.279 0.521,-0.691 0.025,-0.387 0.025,-0.727 0.025,-2.619 l 0,-2.133 z m -7.401,0.497 -0.036,0.085 1.066,3.273 c 0.061,0.182 0.122,0.182 0.182,0 l 1.152,-3.273 -0.048,-0.085 -2.316,0 z m -1.697,-2.679 c -0.218,-0.607 -0.461,-1.067 -1.019,-1.14 -0.096,-0.013 -0.266,-0.025 -0.351,-0.025 l -0.11,-0.072 c 0,-0.073 0.073,-0.097 0.231,-0.097 0.57,0 1.237,0.036 1.37,0.036 0.133,0 0.655,-0.036 0.946,-0.036 0.109,0 0.181,0.024 0.181,0.097 0,0.048 -0.036,0.072 -0.121,0.072 l -0.121,0 c -0.206,0 -0.461,0.109 -0.461,0.352 0,0.219 0.061,0.51 0.17,0.813 l 0.728,2.145 0.121,0.097 2.606,0 0.109,-0.073 1.128,-2.982 c 0.072,-0.194 0,-0.303 -0.073,-0.327 l -0.084,-0.085 c 0,-0.073 0.132,-0.073 0.363,-0.085 0.836,-0.024 1.721,-0.024 1.904,-0.024 0.133,0 0.242,0.024 0.242,0.097 0,0.06 -0.049,0.072 -0.121,0.072 -0.121,0 -0.304,0.012 -0.485,0.073 -0.255,0.073 -0.607,0.267 -1.043,1.346 -0.74,1.843 -2.643,6.85 -2.825,7.311 -0.145,0.376 -0.194,0.436 -0.267,0.436 -0.073,0 -0.121,-0.073 -0.266,-0.473 l -2.752,-7.528 z m -3.018,4.315 c 0,1.892 0,2.232 0.025,2.619 0.024,0.424 0.121,0.631 0.448,0.691 0.146,0.024 0.218,0.036 0.304,0.036 l 0.096,0.073 c 0,0.073 -0.06,0.097 -0.194,0.097 -0.363,0 -1.127,-0.036 -1.188,-0.036 -0.06,0 -0.825,0.036 -1.37,0.036 -0.133,0 -0.194,-0.024 -0.194,-0.097 l 0.097,-0.073 c 0.109,0 0.316,-0.012 0.413,-0.036 0.399,-0.084 0.496,-0.279 0.521,-0.691 0.024,-0.387 0.024,-0.727 0.024,-2.619 l 0,-0.254 -0.072,-0.073 -5.141,0 -0.073,0.073 0,0.254 c 0,1.892 0,2.232 0.024,2.619 0.024,0.424 0.122,0.631 0.449,0.691 0.145,0.024 0.218,0.036 0.303,0.036 l 0.097,0.073 c 0,0.073 -0.061,0.097 -0.194,0.097 -0.364,0 -1.128,-0.036 -1.189,-0.036 -0.059,0 -0.823,0.036 -1.369,0.036 -0.133,0 -0.194,-0.024 -0.194,-0.097 l 0.097,-0.073 c 0.109,0 0.315,-0.012 0.412,-0.036 0.4,-0.084 0.498,-0.279 0.521,-0.691 0.025,-0.387 0.025,-0.727 0.025,-2.619 l 0,-2.133 c 0,-1.164 0,-2.122 -0.061,-2.631 -0.049,-0.352 -0.109,-0.618 -0.351,-0.667 -0.11,-0.024 -0.255,-0.049 -0.364,-0.049 l -0.098,-0.072 c 0,-0.073 0.061,-0.097 0.195,-0.097 0.364,0 1.128,0.036 1.187,0.036 0.061,0 0.825,-0.036 1.492,-0.036 0.133,0 0.195,0.036 0.195,0.097 l -0.098,0.072 c -0.109,0 -0.375,0.025 -0.545,0.049 -0.364,0.049 -0.437,0.315 -0.473,0.667 -0.061,0.509 -0.061,1.467 -0.061,2.631 l 0,1.272 0.073,0.073 5.141,0 0.072,-0.073 0,-1.272 c 0,-1.164 0,-2.122 -0.061,-2.631 -0.048,-0.352 -0.109,-0.618 -0.351,-0.667 -0.109,-0.024 -0.255,-0.049 -0.364,-0.049 l -0.097,-0.072 c 0,-0.073 0.061,-0.097 0.194,-0.097 0.363,0 1.128,0.036 1.188,0.036 0.061,0 0.825,-0.036 1.491,-0.036 0.134,0 0.194,0.036 0.194,0.097 0,0.036 -0.024,0.072 -0.096,0.072 -0.11,0 -0.377,0.025 -0.546,0.049 -0.364,0.049 -0.437,0.315 -0.473,0.667 -0.061,0.509 -0.061,1.467 -0.061,2.631 l 0,2.133 z m -12.088,-5.819 c 0.776,0 1.698,0.085 2.182,0.279 0.218,0.097 0.243,0.121 0.316,0.351 0.121,0.413 0.266,1.467 0.266,1.552 0,0.097 -0.024,0.182 -0.085,0.182 -0.072,0 -0.096,-0.048 -0.121,-0.182 -0.037,-0.218 -0.194,-0.751 -0.448,-1.018 -0.486,-0.497 -1.201,-0.606 -2.11,-0.606 -2.594,0 -4.377,2.121 -4.377,4.437 0,1.236 0.206,2.316 1.092,3.164 0.424,0.413 1.175,0.886 2.788,0.886 1.066,0 2,-0.328 2.424,-0.692 0.316,-0.266 0.51,-0.764 0.51,-1.237 0,-0.169 0.012,-0.254 0.097,-0.254 0.073,0 0.097,0.073 0.109,0.254 0.012,0.183 0.012,0.849 0.036,1.25 0.025,0.435 0.061,0.581 0.061,0.679 0,0.072 -0.024,0.12 -0.157,0.133 -0.389,0.024 -0.776,0.097 -1.237,0.182 -0.595,0.109 -1.273,0.145 -1.758,0.145 -1.868,0 -2.97,-0.57 -3.698,-1.297 -1.079,-1.079 -1.358,-2.498 -1.358,-3.31 0,-1.152 0.291,-2.534 1.468,-3.588 0.957,-0.862 2.182,-1.31 4,-1.31"
             style="fill:#ffffff;fill-opacity:1;fill-rule:nonzero;stroke:none"
             id="path4848"
             inkscape:connector-curvature="0" />
        </g>
        <g
           id="g4850"
           transform="translate(471.0039,141.7321)">
          <path
             d="m 0,0 c 0.389,-0.436 1.758,-1.964 3.164,-3.479 1.285,-1.382 3.032,-3.164 3.164,-3.285 0.644,-0.643 0.789,-0.777 0.886,-0.777 0.085,0 0.109,0.061 0.109,0.861 l 0.024,7.105 c 0,0.727 0.049,0.994 0.449,1.079 C 7.941,1.54 8.026,1.54 8.087,1.54 8.171,1.54 8.22,1.576 8.22,1.625 8.22,1.698 8.136,1.71 8.002,1.71 7.505,1.71 7.105,1.674 6.972,1.674 6.838,1.674 6.256,1.71 5.711,1.71 5.565,1.71 5.469,1.698 5.469,1.625 5.469,1.576 5.48,1.54 5.565,1.54 5.662,1.54 5.941,1.528 6.159,1.479 6.535,1.383 6.62,1.116 6.632,0.328 L 6.765,-5.831 C 6.378,-5.431 5.056,-3.952 3.856,-2.667 1.989,-0.666 0.182,1.285 0,1.491 -0.121,1.612 -0.327,1.879 -0.424,1.879 -0.521,1.879 -0.557,1.746 -0.557,1.273 L -0.57,-5.674 c 0,-1.103 -0.06,-1.454 -0.364,-1.539 -0.181,-0.061 -0.399,-0.073 -0.496,-0.073 l -0.096,-0.073 c 0,-0.084 0.072,-0.096 0.193,-0.096 0.545,0 1.055,0.036 1.163,0.036 0.11,0 0.595,-0.036 1.286,-0.036 0.145,0 0.218,0.024 0.218,0.096 l -0.097,0.073 c -0.109,0 -0.376,0.012 -0.606,0.073 -0.328,0.097 -0.449,0.412 -0.473,1.406 L 0,0 m -8.542,1.104 c 0,0.072 0.037,0.121 0.097,0.145 0.122,0.036 0.449,0.073 0.812,0.073 1.298,0 2.098,-0.91 2.098,-2.425 0,-0.922 -0.316,-1.577 -0.739,-1.867 -0.28,-0.194 -0.619,-0.23 -0.91,-0.23 -0.534,0 -1.092,0.085 -1.273,0.194 l -0.085,0.145 0,3.965 z m -0.97,-5.044 c 0,-1.164 0,-2.122 -0.06,-2.631 -0.049,-0.351 -0.11,-0.618 -0.351,-0.666 -0.11,-0.025 -0.255,-0.049 -0.365,-0.049 l -0.097,-0.073 c 0,-0.072 0.061,-0.096 0.195,-0.096 0.363,0 1.126,0.036 1.139,0.036 0.06,0 0.824,-0.036 1.492,-0.036 0.133,0 0.192,0.036 0.192,0.096 l -0.096,0.073 c -0.109,0 -0.376,0.024 -0.546,0.049 -0.363,0.048 -0.436,0.315 -0.473,0.666 -0.06,0.509 -0.06,1.467 -0.06,2.631 l 0,0.291 0.085,0.097 1.491,-0.024 0.158,-0.073 c 0.242,-0.315 0.812,-1.127 1.321,-1.794 0.692,-0.91 1.115,-1.503 1.637,-1.782 0.314,-0.17 0.617,-0.23 1.296,-0.23 l 0.862,0 c 0.218,0 0.291,0.024 0.291,0.096 l -0.109,0.073 c -0.073,0 -0.243,0 -0.473,0.037 -0.303,0.048 -0.824,0.181 -1.479,0.872 -0.703,0.752 -1.527,1.831 -2.522,3.104 1.091,1.006 1.467,1.903 1.467,2.8 0,0.837 -0.533,1.431 -0.837,1.649 -0.642,0.461 -1.454,0.534 -2.218,0.534 -0.376,0 -1.297,-0.036 -1.431,-0.036 -0.061,0 -0.824,0.036 -1.369,0.036 -0.134,0 -0.196,-0.024 -0.196,-0.098 L -10.47,1.54 c 0.11,0 0.316,-0.012 0.413,-0.036 0.399,-0.085 0.497,-0.279 0.521,-0.691 0.024,-0.388 0.024,-0.728 0.024,-2.619 l 0,-2.134 z m -6.274,0 c 0,-1.164 0,-2.122 -0.06,-2.631 -0.049,-0.351 -0.109,-0.618 -0.352,-0.666 -0.109,-0.025 -0.254,-0.049 -0.364,-0.049 l -0.096,-0.073 c 0,-0.072 0.06,-0.096 0.194,-0.096 0.181,0 0.461,0.012 0.702,0.024 0.256,0 0.462,0.012 0.486,0.012 0.351,0 1.163,-0.073 2.994,-0.073 0.473,0 0.57,0 0.655,0.315 0.061,0.255 0.158,1.079 0.158,1.176 0,0.085 0,0.182 -0.073,0.182 -0.061,0 -0.085,-0.048 -0.109,-0.182 -0.085,-0.497 -0.232,-0.739 -0.546,-0.873 -0.315,-0.133 -0.848,-0.133 -1.164,-0.133 -1.188,0 -1.37,0.158 -1.406,0.994 -0.013,0.254 0,1.661 0,2.073 l 0,1.067 0.085,0.085 c 0.206,0 1.406,-0.024 1.734,-0.061 0.473,-0.048 0.582,-0.254 0.629,-0.424 0.049,-0.158 0.049,-0.279 0.049,-0.4 l 0.084,-0.109 c 0.086,0 0.086,0.133 0.086,0.23 0,0.085 0.025,0.534 0.048,0.776 0.037,0.4 0.098,0.606 0.098,0.679 L -12.015,-2 c -0.049,0 -0.096,-0.061 -0.182,-0.157 -0.109,-0.122 -0.278,-0.146 -0.57,-0.17 -0.278,-0.024 -1.769,-0.024 -1.927,-0.024 -0.061,0 -0.073,0.036 -0.073,0.12 l 0,3.347 c 0,0.084 0.024,0.121 0.073,0.121 0.134,0 1.455,-0.012 1.66,-0.037 0.656,-0.073 0.776,-0.218 0.862,-0.412 0.061,-0.145 0.072,-0.351 0.072,-0.437 0,-0.096 0.025,-0.157 0.097,-0.157 l 0.085,0.134 c 0.024,0.145 0.049,0.678 0.06,0.799 0.037,0.34 0.097,0.485 0.097,0.571 l -0.048,0.109 -0.17,-0.061 c -0.096,-0.024 -0.291,-0.048 -0.521,-0.06 -0.278,-0.012 -2.691,-0.012 -2.776,-0.012 -0.061,0 -0.825,0.036 -1.37,0.036 -0.133,0 -0.194,-0.024 -0.194,-0.098 l 0.096,-0.072 c 0.11,0 0.316,-0.012 0.413,-0.036 0.4,-0.085 0.497,-0.279 0.521,-0.691 0.024,-0.388 0.024,-0.728 0.024,-2.619 l 0,-2.134 z m -3.213,2.134 c 0,1.891 0,2.231 0.025,2.619 0.024,0.424 0.121,0.63 0.448,0.691 0.144,0.024 0.219,0.036 0.303,0.036 l 0.097,0.072 c 0,0.074 -0.061,0.098 -0.194,0.098 -0.364,0 -1.127,-0.036 -1.188,-0.036 -0.061,0 -0.825,0.036 -1.37,0.036 -0.134,0 -0.194,-0.024 -0.194,-0.098 l 0.096,-0.072 c 0.11,0 0.316,-0.012 0.413,-0.036 0.401,-0.085 0.497,-0.279 0.521,-0.691 0.025,-0.388 0.025,-0.728 0.025,-2.619 l 0,-0.255 -0.073,-0.072 -5.141,0 -0.073,0.072 0,0.255 c 0,1.891 0,2.231 0.024,2.619 0.026,0.424 0.122,0.63 0.449,0.691 0.146,0.024 0.219,0.036 0.303,0.036 l 0.097,0.072 c 0,0.074 -0.061,0.098 -0.194,0.098 -0.363,0 -1.127,-0.036 -1.188,-0.036 -0.061,0 -0.824,0.036 -1.37,0.036 -0.134,0 -0.194,-0.024 -0.194,-0.098 L -27.28,1.54 c 0.109,0 0.316,-0.012 0.413,-0.036 0.4,-0.085 0.496,-0.279 0.521,-0.691 0.024,-0.388 0.024,-0.728 0.024,-2.619 l 0,-2.134 c 0,-1.164 0,-2.122 -0.061,-2.631 -0.048,-0.351 -0.108,-0.618 -0.351,-0.666 -0.11,-0.025 -0.255,-0.049 -0.364,-0.049 l -0.098,-0.073 c 0,-0.072 0.062,-0.096 0.196,-0.096 0.363,0 1.126,0.036 1.187,0.036 0.061,0 0.825,-0.036 1.491,-0.036 0.133,0 0.193,0.036 0.193,0.096 l -0.096,0.073 c -0.109,0 -0.375,0.024 -0.546,0.049 -0.363,0.048 -0.436,0.315 -0.472,0.666 -0.061,0.509 -0.061,1.467 -0.061,2.631 l 0,1.273 0.073,0.073 5.141,0 0.073,-0.073 0,-1.273 c 0,-1.164 0,-2.122 -0.061,-2.631 -0.048,-0.351 -0.109,-0.618 -0.351,-0.666 -0.11,-0.025 -0.255,-0.049 -0.364,-0.049 l -0.097,-0.073 c 0,-0.072 0.061,-0.096 0.194,-0.096 0.363,0 1.127,0.036 1.188,0.036 0.061,0 0.824,-0.036 1.491,-0.036 0.134,0 0.194,0.036 0.194,0.096 0,0.037 -0.025,0.073 -0.097,0.073 -0.109,0 -0.376,0.024 -0.546,0.049 -0.364,0.048 -0.436,0.315 -0.472,0.666 -0.061,0.509 -0.061,1.467 -0.061,2.631 l 0,2.134 z m -12.411,2.995 1.527,-0.025 c 1.164,-0.024 1.443,-0.303 1.491,-0.667 l 0.012,-0.133 c 0.013,-0.17 0.037,-0.206 0.097,-0.206 0.049,0 0.086,0.048 0.086,0.158 0,0.133 0.036,0.969 0.036,1.333 l -0.061,0.146 c -0.048,0 -0.158,-0.025 -0.34,-0.061 -0.193,-0.024 -0.472,-0.06 -0.86,-0.06 l -4.546,0 c -0.146,0 -0.607,0.024 -0.958,0.06 -0.328,0.024 -0.449,0.145 -0.534,0.145 l -0.121,-0.23 c -0.024,-0.097 -0.267,-1.139 -0.267,-1.26 0,-0.073 0.024,-0.11 0.061,-0.11 0.048,0 0.085,0.024 0.121,0.121 0.037,0.085 0.073,0.17 0.206,0.376 0.194,0.291 0.485,0.376 1.237,0.388 l 1.795,0.025 0,-5.129 c 0,-1.164 0,-2.122 -0.062,-2.631 -0.048,-0.351 -0.108,-0.618 -0.351,-0.666 -0.109,-0.025 -0.254,-0.049 -0.364,-0.049 l -0.097,-0.073 c 0,-0.072 0.061,-0.096 0.194,-0.096 0.365,0 1.127,0.036 1.188,0.036 0.061,0 0.825,-0.036 1.492,-0.036 0.133,0 0.193,0.036 0.193,0.096 l -0.097,0.073 c -0.109,0 -0.376,0.024 -0.545,0.049 -0.364,0.048 -0.436,0.315 -0.473,0.666 -0.06,0.509 -0.06,1.467 -0.06,2.631 l 0,5.129 z m -12.837,-4.765 c 0,-1.77 0.461,-2.619 1.055,-3.188 0.861,-0.813 2.085,-0.861 2.497,-0.861 0.716,0 1.625,0.121 2.498,0.896 0.97,0.862 1.115,2.316 1.115,3.626 l 0,1.297 c 0,1.891 0,2.231 0.025,2.619 0.024,0.424 0.121,0.63 0.448,0.691 0.146,0.036 0.218,0.036 0.303,0.036 l 0.097,0.072 c 0,0.074 -0.06,0.098 -0.194,0.098 -0.363,0 -0.933,-0.036 -1.018,-0.036 -0.073,0 -0.74,0.036 -1.285,0.036 -0.133,0 -0.194,-0.024 -0.194,-0.098 l 0.097,-0.072 c 0.109,0 0.315,-0.012 0.412,-0.036 0.4,-0.085 0.497,-0.279 0.521,-0.691 0.025,-0.388 0.025,-0.728 0.025,-2.619 l 0,-1.516 c 0,-1.248 -0.146,-2.279 -0.704,-2.97 -0.436,-0.521 -1.164,-0.872 -1.903,-0.872 -0.691,0 -1.236,0.108 -1.831,0.666 -0.521,0.497 -0.909,1.249 -0.909,2.994 l 0,1.698 c 0,1.891 0,2.231 0.024,2.619 0.024,0.424 0.121,0.642 0.449,0.691 0.145,0.024 0.218,0.036 0.303,0.036 l 0.097,0.072 c 0,0.074 -0.061,0.098 -0.194,0.098 -0.364,0 -1.091,-0.036 -1.2,-0.036 -0.11,0 -0.849,0.036 -1.394,0.036 -0.134,0 -0.195,-0.024 -0.195,-0.098 l 0.098,-0.072 c 0.108,0 0.315,-0.012 0.412,-0.036 0.4,-0.085 0.496,-0.279 0.521,-0.691 0.024,-0.388 0.024,-0.728 0.024,-2.619 l 0,-1.77 z m -9.663,1.054 c 0,2.656 1.515,3.989 3.539,3.989 1.916,0 3.686,-1.564 3.686,-4.473 0,-3.528 -2.255,-4.158 -3.346,-4.158 -2.182,0 -3.879,1.818 -3.879,4.642 m -1.152,-0.339 c 0,-2.182 1.382,-4.764 4.704,-4.764 2.922,0 4.837,2.242 4.837,4.958 0,2.825 -2.037,4.546 -4.765,4.546 -3.346,0 -4.776,-2.776 -4.776,-4.74 m -3.679,-4.764 c 0.654,0 1.309,0.145 1.83,0.509 0.837,0.594 1.031,1.515 1.031,2.012 0,0.97 -0.34,1.722 -1.77,2.849 l -0.34,0.267 c -1.14,0.934 -1.479,1.346 -1.479,2.037 0,0.885 0.654,1.406 1.492,1.406 1.115,0 1.442,-0.509 1.515,-0.642 0.072,-0.134 0.145,-0.462 0.157,-0.607 0.012,-0.096 0.025,-0.157 0.097,-0.157 0.061,0 0.085,0.085 0.085,0.279 0,0.824 0.049,1.224 0.049,1.284 0,0.062 -0.025,0.086 -0.121,0.086 -0.098,0 -0.195,0.012 -0.425,0.06 -0.303,0.073 -0.655,0.121 -1.127,0.121 -1.54,0 -2.51,-0.884 -2.51,-2.182 0,-0.824 0.291,-1.576 1.576,-2.631 l 0.545,-0.448 c 1.043,-0.861 1.395,-1.346 1.395,-2.182 0,-0.776 -0.57,-1.613 -1.734,-1.613 -0.812,0 -1.613,0.339 -1.794,1.237 -0.037,0.169 -0.037,0.339 -0.037,0.449 0,0.096 -0.012,0.133 -0.084,0.133 -0.061,0 -0.085,-0.061 -0.097,-0.194 -0.012,-0.194 -0.061,-0.68 -0.061,-1.286 0,-0.326 0.012,-0.375 0.182,-0.46 0.497,-0.243 1.055,-0.327 1.625,-0.327"
             style="fill:#ffffff;fill-opacity:1;fill-rule:nonzero;stroke:none"
             id="path4852"
             inkscape:connector-curvature="0" />
        </g>
        <g
           id="g4854"
           transform="translate(479.6121,123.4421)">
          <path
             d="M 0,0 C 0,-0.194 0,-0.704 -0.036,-1.212 -0.061,-1.564 -0.17,-1.83 -0.412,-1.88 -0.522,-1.904 -0.667,-1.928 -0.775,-1.928 L -0.873,-2 c 0,-0.073 0.061,-0.097 0.194,-0.097 0.364,0 1.128,0.036 1.188,0.036 0.062,0 0.824,-0.036 1.491,-0.036 0.134,0 0.194,0.036 0.194,0.097 l -0.097,0.072 c -0.108,0 -0.375,0.024 -0.545,0.048 C 1.188,-1.83 1.079,-1.564 1.055,-1.212 1.018,-0.704 1.018,-0.194 1.018,0 l 0,1.043 c 0,0.399 0,0.776 0.182,1.212 0.219,0.522 1.915,3.37 2.316,3.855 0.266,0.327 0.4,0.473 0.642,0.619 0.194,0.121 0.425,0.169 0.558,0.169 0.097,0 0.158,0.037 0.158,0.097 0,0.048 -0.073,0.073 -0.158,0.073 -0.23,0 -1.103,-0.037 -1.176,-0.037 -0.097,0 -0.485,0.037 -0.8,0.037 C 2.619,7.068 2.546,7.043 2.546,6.995 2.546,6.935 2.619,6.91 2.728,6.874 2.873,6.838 2.922,6.704 2.922,6.535 2.922,6.377 2.873,6.171 2.716,5.916 2.472,5.517 0.934,2.861 0.703,2.352 0.485,2.703 -1.333,5.831 -1.528,6.183 -1.624,6.365 -1.685,6.51 -1.685,6.656 c 0,0.097 0.061,0.169 0.157,0.218 0.11,0.048 0.182,0.061 0.182,0.109 0,0.048 -0.025,0.085 -0.158,0.085 -0.472,0 -0.933,-0.037 -1.018,-0.037 -0.06,0 -0.97,0.037 -1.201,0.037 -0.108,0 -0.156,-0.037 -0.156,-0.085 l 0.121,-0.085 c 0.108,0 0.339,-0.073 0.521,-0.194 C -3.019,6.558 -2.716,6.256 -2.413,5.807 -1.988,5.176 -0.364,2.51 -0.278,2.316 -0.122,1.964 0,1.696 0,1.043 L 0,0 m -7.177,6.547 1.528,-0.025 c 1.163,-0.024 1.442,-0.302 1.49,-0.666 l 0.013,-0.134 c 0.012,-0.17 0.036,-0.205 0.097,-0.205 0.048,0 0.085,0.048 0.085,0.156 0,0.134 0.035,0.971 0.035,1.334 l -0.06,0.146 C -4.037,7.153 -4.146,7.128 -4.328,7.092 -4.522,7.068 -4.801,7.031 -5.189,7.031 l -4.547,0 c -0.145,0 -0.605,0.024 -0.958,0.061 -0.326,0.024 -0.447,0.145 -0.533,0.145 l -0.121,-0.23 c -0.024,-0.097 -0.267,-1.139 -0.267,-1.26 0,-0.074 0.025,-0.11 0.062,-0.11 0.048,0 0.084,0.024 0.12,0.122 0.037,0.084 0.073,0.169 0.206,0.375 0.194,0.292 0.486,0.376 1.237,0.388 l 1.794,0.025 0,-5.129 c 0,-1.163 0,-2.122 -0.059,-2.63 -0.05,-0.352 -0.111,-0.618 -0.353,-0.668 -0.109,-0.024 -0.254,-0.048 -0.364,-0.048 L -9.068,-2 c 0,-0.073 0.06,-0.097 0.193,-0.097 0.364,0 1.128,0.036 1.189,0.036 0.06,0 0.824,-0.036 1.491,-0.036 0.134,0 0.193,0.036 0.193,0.097 l -0.096,0.072 c -0.11,0 -0.375,0.024 -0.545,0.048 -0.364,0.05 -0.437,0.316 -0.475,0.668 -0.059,0.508 -0.059,1.467 -0.059,2.63 l 0,5.129 z m -6.026,-2.994 c 0,1.891 0,2.23 0.023,2.618 0.025,0.424 0.122,0.63 0.449,0.691 0.146,0.024 0.218,0.036 0.303,0.036 l 0.098,0.073 c 0,0.072 -0.061,0.097 -0.195,0.097 -0.363,0 -1.128,-0.037 -1.188,-0.037 -0.06,0 -0.824,0.037 -1.224,0.037 -0.134,0 -0.195,-0.025 -0.195,-0.097 l 0.098,-0.073 c 0.084,0 0.242,-0.012 0.376,-0.048 0.266,-0.062 0.388,-0.267 0.412,-0.679 0.024,-0.388 0.024,-0.727 0.024,-2.618 l 0,-2.135 c 0,-1.163 0,-2.122 -0.061,-2.63 -0.048,-0.352 -0.109,-0.618 -0.352,-0.668 -0.109,-0.024 -0.253,-0.048 -0.363,-0.048 L -15.095,-2 c 0,-0.073 0.061,-0.097 0.194,-0.097 0.364,0 1.128,0.036 1.188,0.036 0.06,0 0.825,-0.036 1.492,-0.036 0.133,0 0.194,0.036 0.194,0.097 l -0.097,0.072 c -0.109,0 -0.376,0.024 -0.545,0.048 -0.365,0.05 -0.437,0.316 -0.473,0.668 -0.061,0.508 -0.061,1.467 -0.061,2.63 l 0,2.135 z m -5.875,-5.82 c 0.655,0 1.309,0.145 1.832,0.509 0.836,0.595 1.029,1.516 1.029,2.013 0,0.969 -0.339,1.721 -1.77,2.848 l -0.339,0.267 c -1.139,0.934 -1.479,1.346 -1.479,2.036 0,0.886 0.655,1.407 1.491,1.407 1.115,0 1.443,-0.509 1.515,-0.642 0.073,-0.133 0.146,-0.462 0.159,-0.606 0.011,-0.097 0.023,-0.159 0.096,-0.159 0.06,0 0.085,0.085 0.085,0.28 0,0.824 0.049,1.224 0.049,1.285 0,0.06 -0.025,0.084 -0.122,0.084 -0.097,0 -0.194,0.013 -0.425,0.061 -0.302,0.073 -0.654,0.121 -1.127,0.121 -1.539,0 -2.509,-0.884 -2.509,-2.182 0,-0.824 0.291,-1.577 1.576,-2.631 l 0.545,-0.448 c 1.043,-0.861 1.395,-1.346 1.395,-2.183 0,-0.775 -0.571,-1.611 -1.734,-1.611 -0.812,0 -1.613,0.339 -1.794,1.236 -0.036,0.17 -0.036,0.34 -0.036,0.448 0,0.097 -0.013,0.134 -0.086,0.134 -0.059,0 -0.084,-0.061 -0.097,-0.194 -0.012,-0.193 -0.06,-0.679 -0.06,-1.285 0,-0.329 0.012,-0.377 0.182,-0.462 0.497,-0.242 1.054,-0.326 1.624,-0.326 m -9.001,8.729 c 0,0.073 0.036,0.121 0.097,0.145 0.121,0.037 0.448,0.073 0.812,0.073 1.298,0 2.097,-0.909 2.097,-2.426 0,-0.921 -0.314,-1.574 -0.739,-1.865 -0.279,-0.195 -0.618,-0.232 -0.909,-0.232 -0.534,0 -1.091,0.086 -1.273,0.195 l -0.085,0.145 0,3.965 z m -0.97,-5.044 c 0,-1.163 0,-2.122 -0.061,-2.63 -0.048,-0.352 -0.109,-0.618 -0.351,-0.668 -0.109,-0.024 -0.255,-0.048 -0.365,-0.048 L -29.922,-2 c 0,-0.073 0.06,-0.097 0.194,-0.097 0.364,0 1.128,0.036 1.139,0.036 0.061,0 0.825,-0.036 1.492,-0.036 0.133,0 0.194,0.036 0.194,0.097 L -27,-1.928 c -0.109,0 -0.376,0.024 -0.545,0.048 -0.365,0.05 -0.437,0.316 -0.473,0.668 -0.061,0.508 -0.061,1.467 -0.061,2.63 l 0,0.291 0.085,0.098 1.491,-0.025 0.157,-0.073 c 0.243,-0.315 0.813,-1.128 1.322,-1.794 0.691,-0.909 1.116,-1.504 1.636,-1.782 0.316,-0.169 0.619,-0.23 1.298,-0.23 l 0.86,0 c 0.219,0 0.291,0.024 0.291,0.097 l -0.108,0.072 c -0.073,0 -0.243,0 -0.473,0.036 -0.303,0.049 -0.825,0.182 -1.479,0.873 -0.703,0.752 -1.528,1.831 -2.522,3.104 1.091,1.007 1.467,1.904 1.467,2.801 0,0.836 -0.533,1.43 -0.837,1.649 -0.642,0.46 -1.455,0.533 -2.218,0.533 -0.376,0 -1.298,-0.037 -1.432,-0.037 -0.059,0 -0.823,0.037 -1.369,0.037 -0.133,0 -0.194,-0.025 -0.194,-0.097 l 0.097,-0.073 c 0.11,0 0.315,-0.012 0.412,-0.036 0.4,-0.085 0.498,-0.279 0.521,-0.691 0.025,-0.388 0.025,-0.727 0.025,-2.618 l 0,-2.135 z m -6.275,0 c 0,-1.163 0,-2.122 -0.061,-2.63 -0.047,-0.352 -0.108,-0.618 -0.351,-0.668 -0.108,-0.024 -0.254,-0.048 -0.363,-0.048 L -36.196,-2 c 0,-0.073 0.06,-0.097 0.194,-0.097 0.181,0 0.46,0.012 0.703,0.024 0.255,0 0.46,0.012 0.485,0.012 0.352,0 1.164,-0.073 2.994,-0.073 0.473,0 0.57,0 0.655,0.316 0.06,0.254 0.157,1.078 0.157,1.176 0,0.085 0,0.181 -0.072,0.181 -0.061,0 -0.085,-0.048 -0.109,-0.181 -0.085,-0.498 -0.231,-0.74 -0.545,-0.873 -0.316,-0.134 -0.849,-0.134 -1.164,-0.134 -1.189,0 -1.371,0.158 -1.407,0.995 -0.012,0.254 0,1.661 0,2.072 l 0,1.067 0.085,0.085 c 0.206,0 1.407,-0.024 1.733,-0.06 0.473,-0.049 0.583,-0.255 0.631,-0.425 0.048,-0.158 0.048,-0.278 0.048,-0.4 l 0.085,-0.109 c 0.085,0 0.085,0.133 0.085,0.231 0,0.084 0.025,0.534 0.049,0.775 0.036,0.401 0.097,0.607 0.097,0.679 l -0.061,0.097 c -0.048,0 -0.097,-0.06 -0.181,-0.157 -0.11,-0.121 -0.28,-0.146 -0.571,-0.17 -0.278,-0.025 -1.77,-0.025 -1.927,-0.025 -0.061,0 -0.073,0.037 -0.073,0.122 l 0,3.346 c 0,0.084 0.025,0.121 0.073,0.121 0.132,0 1.455,-0.012 1.661,-0.037 0.654,-0.072 0.776,-0.218 0.86,-0.412 0.061,-0.144 0.073,-0.351 0.073,-0.437 0,-0.096 0.025,-0.157 0.097,-0.157 l 0.085,0.134 c 0.025,0.145 0.048,0.679 0.061,0.8 0.037,0.339 0.097,0.485 0.097,0.569 l -0.049,0.111 -0.17,-0.061 c -0.096,-0.025 -0.291,-0.05 -0.52,-0.062 -0.28,-0.012 -2.692,-0.012 -2.777,-0.012 -0.061,0 -0.824,0.037 -1.371,0.037 -0.134,0 -0.193,-0.025 -0.193,-0.097 l 0.097,-0.073 c 0.109,0 0.315,-0.012 0.412,-0.036 0.4,-0.085 0.497,-0.279 0.521,-0.691 0.024,-0.388 0.024,-0.727 0.024,-2.618 l 0,-2.135 z m -8.35,4.17 c -0.181,0.474 -0.327,0.849 -0.327,1.007 0,0.085 0.024,0.182 0.157,0.243 0.109,0.048 0.328,0.06 0.461,0.06 0.085,0 0.121,0.024 0.121,0.085 0,0.06 -0.109,0.085 -0.327,0.085 -0.461,0 -1.006,-0.037 -1.128,-0.037 -0.145,0 -0.836,0.037 -1.418,0.037 -0.194,0 -0.316,-0.013 -0.316,-0.085 0,-0.048 0.025,-0.085 0.097,-0.085 0.074,0 0.28,0 0.461,-0.048 0.425,-0.121 0.606,-0.255 0.873,-0.934 l 2.97,-7.431 c 0.231,-0.582 0.292,-0.752 0.437,-0.752 0.121,0 0.17,0.194 0.509,0.921 0.28,0.594 0.824,1.904 1.564,3.673 0.618,1.491 1.225,2.947 1.358,3.286 0.327,0.824 0.509,1.031 0.667,1.14 0.23,0.145 0.497,0.145 0.581,0.145 0.098,0 0.146,0.024 0.146,0.085 0,0.06 -0.071,0.085 -0.205,0.085 -0.353,0 -0.873,-0.037 -0.946,-0.037 -0.146,0 -0.703,0.037 -1.189,0.037 -0.194,0 -0.266,-0.025 -0.266,-0.097 l 0.133,-0.073 c 0.133,0 0.316,0 0.461,-0.048 0.121,-0.062 0.158,-0.182 0.158,-0.279 0,-0.109 -0.049,-0.279 -0.11,-0.461 -0.267,-0.872 -1.891,-5.103 -2.594,-6.728 l -2.328,6.206 z m -4.168,-2.035 c 0,1.891 0,2.23 0.025,2.618 0.023,0.424 0.12,0.63 0.448,0.691 0.145,0.024 0.218,0.036 0.303,0.036 l 0.097,0.073 c 0,0.072 -0.061,0.097 -0.194,0.097 -0.364,0 -1.128,-0.037 -1.188,-0.037 -0.061,0 -0.825,0.037 -1.225,0.037 -0.133,0 -0.194,-0.025 -0.194,-0.097 l 0.097,-0.073 c 0.085,0 0.243,-0.012 0.376,-0.048 0.267,-0.062 0.388,-0.267 0.412,-0.679 0.025,-0.388 0.025,-0.727 0.025,-2.618 l 0,-2.135 c 0,-1.163 0,-2.122 -0.061,-2.63 -0.049,-0.352 -0.109,-0.618 -0.352,-0.668 -0.109,-0.024 -0.254,-0.048 -0.363,-0.048 L -49.733,-2 c 0,-0.073 0.06,-0.097 0.194,-0.097 0.363,0 1.127,0.036 1.188,0.036 0.06,0 0.824,-0.036 1.491,-0.036 0.133,0 0.194,0.036 0.194,0.097 l -0.097,0.072 c -0.109,0 -0.376,0.024 -0.545,0.048 -0.365,0.05 -0.437,0.316 -0.473,0.668 -0.061,0.508 -0.061,1.467 -0.061,2.63 l 0,2.135 z m -11.27,1.805 c 0.388,-0.436 1.758,-1.964 3.164,-3.479 1.285,-1.382 3.031,-3.164 3.164,-3.286 0.643,-0.642 0.789,-0.776 0.886,-0.776 0.085,0 0.109,0.061 0.109,0.861 l 0.024,7.105 c 0,0.727 0.049,0.994 0.449,1.079 0.145,0.036 0.23,0.036 0.291,0.036 0.084,0 0.133,0.037 0.133,0.085 0,0.072 -0.085,0.085 -0.218,0.085 -0.498,0 -0.898,-0.037 -1.031,-0.037 -0.133,0 -0.715,0.037 -1.261,0.037 -0.145,0 -0.242,-0.013 -0.242,-0.085 0,-0.048 0.012,-0.085 0.097,-0.085 0.097,0 0.376,-0.012 0.594,-0.06 0.376,-0.098 0.46,-0.364 0.472,-1.152 l 0.134,-6.159 c -0.388,0.4 -1.71,1.879 -2.91,3.164 -1.867,2 -3.673,3.953 -3.855,4.159 -0.121,0.121 -0.328,0.387 -0.424,0.387 -0.097,0 -0.134,-0.132 -0.134,-0.605 l -0.012,-6.947 c 0,-1.104 -0.06,-1.455 -0.364,-1.541 -0.181,-0.06 -0.399,-0.072 -0.497,-0.072 L -60.639,-2 c 0,-0.085 0.072,-0.097 0.194,-0.097 0.545,0 1.054,0.036 1.163,0.036 0.11,0 0.595,-0.036 1.285,-0.036 0.146,0 0.219,0.024 0.219,0.097 l -0.097,0.072 c -0.109,0 -0.376,0.012 -0.606,0.072 -0.328,0.098 -0.449,0.413 -0.474,1.407 l -0.157,5.807 z m -9.79,-3.576 c 0,-1.77 0.461,-2.619 1.055,-3.189 0.861,-0.812 2.086,-0.86 2.497,-0.86 0.716,0 1.625,0.12 2.498,0.896 0.97,0.862 1.115,2.316 1.115,3.626 l 0,1.298 c 0,1.891 0,2.23 0.024,2.618 0.025,0.424 0.122,0.63 0.449,0.691 0.146,0.036 0.218,0.036 0.304,0.036 l 0.096,0.073 c 0,0.072 -0.06,0.097 -0.194,0.097 -0.364,0 -0.933,-0.037 -1.018,-0.037 -0.073,0 -0.74,0.037 -1.285,0.037 -0.134,0 -0.194,-0.025 -0.194,-0.097 l 0.097,-0.073 c 0.109,0 0.315,-0.012 0.412,-0.036 0.4,-0.085 0.497,-0.279 0.521,-0.691 0.024,-0.388 0.024,-0.727 0.024,-2.618 l 0,-1.516 c 0,-1.249 -0.145,-2.279 -0.703,-2.971 -0.436,-0.521 -1.163,-0.874 -1.903,-0.874 -0.69,0 -1.237,0.111 -1.831,0.668 -0.521,0.498 -0.909,1.248 -0.909,2.995 l 0,1.698 c 0,1.891 0,2.23 0.024,2.618 0.025,0.424 0.122,0.642 0.449,0.691 0.146,0.024 0.218,0.036 0.303,0.036 l 0.097,0.073 c 0,0.072 -0.06,0.097 -0.194,0.097 -0.363,0 -1.092,-0.037 -1.2,-0.037 -0.109,0 -0.849,0.037 -1.394,0.037 -0.134,0 -0.194,-0.025 -0.194,-0.097 l 0.096,-0.073 c 0.11,0 0.316,-0.012 0.413,-0.036 0.4,-0.085 0.497,-0.279 0.521,-0.691 0.024,-0.388 0.024,-0.727 0.024,-2.618 l 0,-1.771 z"
             style="fill:#ffffff;fill-opacity:1;fill-rule:nonzero;stroke:none"
             id="path4856"
             inkscape:connector-curvature="0" />
        </g>
      </g>
    </g>
  </g>
</svg>
