<svg width="2020" height="990" xmlns="http://www.w3.org/2000/svg" xmlns:xlink="http://www.w3.org/1999/xlink" xml:space="preserve" overflow="hidden">
	<style>
	.themed-fill {
		fill: black;
	}
	.themed-stroke {
		stroke: black;
	}
	</style>
<defs><clipPath id="clip0"><rect x="919" y="1396" width="2020" height="990"/></clipPath></defs><g clip-path="url(#clip0)" transform="translate(-919 -1396)"><g><path d="M1358.5 1895.56 1417.55 1895.56 1417.55 2145.5 1358.5 2145.5ZM1417.55 1586.55 1476.55 1586.55 1476.55 2145.5 1417.55 2145.5ZM1476.55 1635.55 1535.55 1635.55 1535.55 2145.5 1476.55 2145.5ZM1535.55 1847.56 1593.55 1847.56 1593.55 2145.5 1535.55 2145.5ZM1593.55 2023.57 1652.55 2023.57 1652.55 2145.5 1593.55 2145.5ZM1652.55 1922.56 1711.56 1922.56 1711.56 2145.5 1652.55 2145.5ZM1711.56 1778.56 1770.56 1778.56 1770.56 2145.5 1711.56 2145.5ZM1770.56 1679.56 1829.56 1679.56 1829.56 2145.5 1770.56 2145.5ZM1829.56 2118.57 1888.56 2118.57 1888.56 2145.5 1829.56 2145.5ZM1888.56 1948.56 1946.56 1948.56 1946.56 2145.5 1888.56 2145.5ZM1946.56 1930.56 2005.57 1930.56 2005.57 2145.5 1946.56 2145.5ZM2005.57 1822.56 2064.57 1822.56 2064.57 2145.5 2005.57 2145.5ZM2064.57 1511.55 2123.57 1511.55 2123.57 2145.5 2064.57 2145.5ZM2123.57 2019.57 2182.57 2019.57 2182.57 2145.5 2123.57 2145.5ZM2182.57 2044.57 2241.57 2044.57 2241.57 2145.5 2182.57 2145.5ZM2241.57 1817.56 2300.58 1817.56 2300.58 2145.5 2241.57 2145.5ZM2300.58 2129.57 2358.58 2129.57 2358.58 2145.5 2300.58 2145.5ZM2358.58 1756.56 2417.58 1756.56 2417.58 2145.5 2358.58 2145.5ZM2417.58 1524.55 2476.58 1524.55 2476.58 2145.5 2417.58 2145.5ZM2476.58 1912.56 2535.58 1912.56 2535.58 2145.5 2476.58 2145.5ZM2535.58 2130.57 2594.59 2130.57 2594.59 2145.5 2535.58 2145.5ZM2594.59 2029.57 2653.59 2029.57 2653.59 2145.5 2594.59 2145.5ZM2653.59 1780.56 2712.59 1780.56 2712.59 2145.5 2653.59 2145.5ZM2712.59 2142.57 2770.59 2142.57 2770.59 2145.5 2712.59 2145.5ZM2770.59 2103.57 2829.59 2103.57 2829.59 2145.5 2770.59 2145.5ZM2829.59 2108.57 2888.5 2108.57 2888.5 2145.5 2829.59 2145.5Z" class="themed-stroke" stroke-width="3.4375" stroke-linejoin="round" stroke-miterlimit="10" fill="#A89968"/></g><g><text class="themed-fill" font-family="Calibri,Calibri_MSFontService,sans-serif" font-weight="400" font-size="55" transform="matrix(1 0 0 1 1279.67 2161)">0</text></g><g><text class="themed-fill" font-family="Calibri,Calibri_MSFontService,sans-serif" font-weight="400" font-size="55" transform="matrix(1 0 0 1 1085.01 2037)">5,000,000</text></g><g><text class="themed-fill" font-family="Calibri,Calibri_MSFontService,sans-serif" font-weight="400" font-size="55" transform="matrix(1 0 0 1 1057.15 1913)">10,000,000</text></g><g><text class="themed-fill" font-family="Calibri,Calibri_MSFontService,sans-serif" font-weight="400" font-size="55" transform="matrix(1 0 0 1 1057.15 1789)">15,000,000</text></g><g><text class="themed-fill" font-family="Calibri,Calibri_MSFontService,sans-serif" font-weight="400" font-size="55" transform="matrix(1 0 0 1 1057.15 1666)">20,000,000</text></g><g><text class="themed-fill" font-family="Calibri,Calibri_MSFontService,sans-serif" font-weight="400" font-size="55" transform="matrix(1 0 0 1 1057.15 1542)">25,000,000</text></g><g><text class="themed-fill" font-family="Calibri,Calibri_MSFontService,sans-serif" font-weight="400" font-size="55" transform="matrix(1 0 0 1 1372.07 2232)">A</text></g><g><text class="themed-fill" font-family="Calibri,Calibri_MSFontService,sans-serif" font-weight="400" font-size="55" transform="matrix(1 0 0 1 1431.88 2232)">B</text></g><g><text class="themed-fill" font-family="Calibri,Calibri_MSFontService,sans-serif" font-weight="400" font-size="55" transform="matrix(1 0 0 1 1491.02 2232)">C</text></g><g><text class="themed-fill" font-family="Calibri,Calibri_MSFontService,sans-serif" font-weight="400" font-size="55" transform="matrix(1 0 0 1 1547.61 2232)">D</text></g><g><text class="themed-fill" font-family="Calibri,Calibri_MSFontService,sans-serif" font-weight="400" font-size="55" transform="matrix(1 0 0 1 1609.95 2232)">E</text></g><g><text class="themed-fill" font-family="Calibri,Calibri_MSFontService,sans-serif" font-weight="400" font-size="55" transform="matrix(1 0 0 1 1669.59 2232)">F</text></g><g><text class="themed-fill" font-family="Calibri,Calibri_MSFontService,sans-serif" font-weight="400" font-size="55" transform="matrix(1 0 0 1 1723.73 2232)">G</text></g><g><text class="themed-fill" font-family="Calibri,Calibri_MSFontService,sans-serif" font-weight="400" font-size="55" transform="matrix(1 0 0 1 1782.8 2232)">H</text></g><g><text class="themed-fill" font-family="Calibri,Calibri_MSFontService,sans-serif" font-weight="400" font-size="55" transform="matrix(1 0 0 1 1851.85 2232)">I</text></g><g><text class="themed-fill" font-family="Calibri,Calibri_MSFontService,sans-serif" font-weight="400" font-size="55" transform="matrix(1 0 0 1 1908.87 2232)">J</text></g><g><text class="themed-fill" font-family="Calibri,Calibri_MSFontService,sans-serif" font-weight="400" font-size="55" transform="matrix(1 0 0 1 1962.19 2232)">K</text></g><g><text class="themed-fill" font-family="Calibri,Calibri_MSFontService,sans-serif" font-weight="400" font-size="55" transform="matrix(1 0 0 1 2023.77 2232)">L</text></g><g><text class="themed-fill" font-family="Calibri,Calibri_MSFontService,sans-serif" font-weight="400" font-size="55" transform="matrix(1 0 0 1 2070.67 2232)">M</text></g><g><text class="themed-fill" font-family="Calibri,Calibri_MSFontService,sans-serif" font-weight="400" font-size="55" transform="matrix(1 0 0 1 2135.28 2232)">N</text></g><g><text class="themed-fill" font-family="Calibri,Calibri_MSFontService,sans-serif" font-weight="400" font-size="55" transform="matrix(1 0 0 1 2193.67 2232)">O</text></g><g><text class="themed-fill" font-family="Calibri,Calibri_MSFontService,sans-serif" font-weight="400" font-size="55" transform="matrix(1 0 0 1 2256.52 2232)">P</text></g><g><text class="themed-fill" font-family="Calibri,Calibri_MSFontService,sans-serif" font-weight="400" font-size="55" transform="matrix(1 0 0 1 2311.07 2232)">Q</text></g><g><text class="themed-fill" font-family="Calibri,Calibri_MSFontService,sans-serif" font-weight="400" font-size="55" transform="matrix(1 0 0 1 2373.5 2232)">R</text></g><g><text class="themed-fill" font-family="Calibri,Calibri_MSFontService,sans-serif" font-weight="400" font-size="55" transform="matrix(1 0 0 1 2434.64 2232)">S</text></g><g><text class="themed-fill" font-family="Calibri,Calibri_MSFontService,sans-serif" font-weight="400" font-size="55" transform="matrix(1 0 0 1 2492.72 2232)">T</text></g><g><text class="themed-fill" font-family="Calibri,Calibri_MSFontService,sans-serif" font-weight="400" font-size="55" transform="matrix(1 0 0 1 2547.33 2232)">U</text></g><g><text class="themed-fill" font-family="Calibri,Calibri_MSFontService,sans-serif" font-weight="400" font-size="55" transform="matrix(1 0 0 1 2608.22 2232)">V</text></g><g><text class="themed-fill" font-family="Calibri,Calibri_MSFontService,sans-serif" font-weight="400" font-size="55" transform="matrix(1 0 0 1 2658.21 2232)">W</text></g><g><text class="themed-fill" font-family="Calibri,Calibri_MSFontService,sans-serif" font-weight="400" font-size="55" transform="matrix(1 0 0 1 2727.25 2232)">X</text></g><g><text class="themed-fill" font-family="Calibri,Calibri_MSFontService,sans-serif" font-weight="400" font-size="55" transform="matrix(1 0 0 1 2786.97 2232)">Y</text></g><g><text class="themed-fill" font-family="Calibri,Calibri_MSFontService,sans-serif" font-weight="400" font-size="55" transform="matrix(1 0 0 1 2846.34 2232)">Z</text></g><g><text class="themed-fill" font-family="Calibri,Calibri_MSFontService,sans-serif" font-weight="400" font-size="55" transform="matrix(6.12323e-17 -1 1 6.12323e-17 1028.25 2003)">Number of People</text></g><g><text class="themed-fill" font-family="Calibri,Calibri_MSFontService,sans-serif" font-weight="400" font-size="55" transform="matrix(1 0 0 1 1866.64 2313)">First Letter of Surname</text></g></g></svg>