<?xml version="1.0" encoding="UTF-8" standalone="no"?>
<svg
   xmlns:dc="http://purl.org/dc/elements/1.1/"
   xmlns:cc="http://creativecommons.org/ns#"
   xmlns:rdf="http://www.w3.org/1999/02/22-rdf-syntax-ns#"
   xmlns:svg="http://www.w3.org/2000/svg"
   xmlns="http://www.w3.org/2000/svg"
   xmlns:sodipodi="http://sodipodi.sourceforge.net/DTD/sodipodi-0.dtd"
   xmlns:inkscape="http://www.inkscape.org/namespaces/inkscape"
   width="805.15881"
   height="523.39893"
   overflow="hidden"
   version="1.1"
   id="svg73"
   sodipodi:docname="cli-vs-gui.svg"
   inkscape:version="1.0.1 (3bc2e813f5, 2020-09-07)">
  <metadata
     id="metadata77">
    <rdf:RDF>
      <cc:Work
         rdf:about="">
        <dc:format>image/svg+xml</dc:format>
        <dc:type
           rdf:resource="http://purl.org/dc/dcmitype/StillImage" />
        <dc:title />
      </cc:Work>
    </rdf:RDF>
  </metadata>
  <defs
     id="defs5">
    <clipPath
       id="clip0">
      <rect
         x="0"
         y="0"
         width="1280"
         height="720"
         id="rect2" />
    </clipPath>
  </defs>
  <path
     d="M 54.158813,474 264.82581,349.667 c 0.111,-68.889 0.222,-137.778 0.333,-206.667 h 540"
     stroke="#fff"
     stroke-width="5.66667"
     stroke-miterlimit="8"
     fill="none"
     fill-rule="evenodd"
     id="path9"
     style="stroke:#000;stroke-opacity:1" />
  <path
     d="M 58.158813,478.8 770.82581,52"
     stroke="#817550"
     stroke-width="5.66667"
     stroke-miterlimit="8"
     fill="none"
     fill-rule="evenodd"
     id="path11" />
  <path
     d="m 56.158813,480.4 10e-5,-462.4 h -4 l -10e-5,462.4 z m 8.0001,-460.4 -10,-20 -10,20 z"
     fill="#5eb6cd"
     id="path13" />
  <path
     d="M 52.158813,476 H 783.89281 v 4 H 52.158813 Z m 729.732997,-8 19.997,10 -19.997,10 z"
     fill="#5eb6cd"
     id="path15" />
  <text
     fill="#5eb6cd"
     font-family="Calibri, Calibri_MSFontService, sans-serif"
     font-weight="400"
     font-size="43px"
     transform="rotate(-90)"
     id="text17"
     x="-338"
     y="27.861816">Time Spent</text>
  <text
     fill="#5eb6cd"
     font-family="Calibri, Calibri_MSFontService, sans-serif"
     font-weight="400"
     font-size="43px"
     id="text19"
     x="352.22882"
     y="523">Task Size</text>
  <text
     fill="#000"
     font-family="Calibri, Calibri_MSFontService, sans-serif"
     font-weight="400"
     font-size="27px"
     transform="rotate(-30.000012)"
     id="text23"
     x="-144.4048"
     y="429.31525">Geek</text>
  <text
     fill="#000"
     font-family="Calibri, Calibri_MSFontService, sans-serif"
     font-weight="400"
     font-size="27px"
     id="text47"
     x="95.091827"
     y="317">Does it<tspan
   font-size="27px"
   x="95.091827"
   y="343"
   id="tspan25">manually</tspan><tspan
   font-size="27px"
   x="192.66522"
   y="343"
   id="tspan27">.</tspan><tspan
   font-size="27px"
   x="71.766205"
   y="247"
   id="tspan29">Gets annoyed.</tspan><tspan
   font-size="27px"
   x="92.733398"
   y="161"
   id="tspan31">Writes script</tspan><tspan
   font-size="27px"
   x="92.733398"
   y="187"
   id="tspan33">to automate.</tspan><tspan
   font-size="27px"
   x="239.26083"
   y="75"
   id="tspan35">Runs script.</tspan><tspan
   font-size="27px"
   x="720.03479"
   y="213"
   id="tspan37">Wins.</tspan><tspan
   fill="#817550"
   font-size="27px"
   x="583.78882"
   y="38"
   id="tspan39">Loses.</tspan><tspan
   fill="#817550"
   font-size="27px"
   x="358.16479"
   y="369"
   id="tspan41">Makes fun of geek’s</tspan><tspan
   fill="#817550"
   font-size="27px"
   x="358.16479"
   y="395"
   id="tspan43">complicated method.</tspan><tspan
   fill="#817550"
   font-size="24px"
   x="220.4418"
   y="469"
   id="tspan45">Does it manually.</tspan></text>
  <text
     fill="#817550"
     font-family="Calibri, Calibri_MSFontService, sans-serif"
     font-weight="400"
     font-size="27px"
     transform="rotate(-29.710577)"
     id="text53"
     x="-142.30653"
     y="465.68973">Non<tspan
   font-size="27px"
   x="-97.33094"
   y="466.02451"
   id="tspan49">-</tspan><tspan
   font-size="27px"
   x="-89.187843"
   y="466.06583"
   id="tspan51">Geek</tspan></text>
  <path
     d="m 142.82881,343.9 20.093,30.511 -3.34,2.2 -20.093,-30.511 z m 25.675,24.44 2.648,22.204 -19.352,-11.204 z"
     fill="#000"
     id="path55"
     style="fill:#000;fill-opacity:1" />
  <path
     d="m 151.44981,257.472 85.365,72.11 -2.581,3.056 -85.366,-72.11 z m 89,64.708 8.825,20.546 -21.731,-5.267 z"
     fill="#000"
     id="path57"
     style="fill:#000;fill-opacity:1" />
  <path
     d="m 176.97081,191.172 65.176,28.95 -1.624,3.655 -65.176,-28.949 z m 66.595,20.827 14.219,17.257 -22.337,1.021 z"
     fill="#fff"
     id="path59"
     style="fill:#000;fill-opacity:1" />
  <path
     d="m 273.15881,79 v 32.247 h -4 V 79 Z m 8,30.246 -10,20.001 -10,-20 z"
     fill="#fff"
     id="path61"
     style="fill:#000;fill-opacity:1" />
  <path
     d="M 749.15881,189.223 V 169 h 4 v 20.223 z m -8,-18.223 10,-20 10,20 z"
     fill="#000"
     id="path63"
     style="fill:#000;fill-opacity:1" />
  <path
     d="m 639.65281,47.67 24.091,27.058 -2.987,2.66 -24.092,-27.058 z m 28.736,20.244 5.831,21.587 -20.768,-8.287 z"
     fill="#817550"
     id="path65" />
  <path
     d="m 454.18881,348.747 -33.091,-60.018 3.503,-1.932 33.091,60.019 z m -39.131,-54.404 -0.899,-22.343 18.414,12.686 z"
     fill="#817550"
     id="path67" />
  <path
     d="m 258.73581,450.541 -34.713,-42.352 3.093,-2.536 34.714,42.352 z m -39.633,-35.734 -4.944,-21.807 20.412,9.129 z"
     fill="#817550"
     id="path69" />
</svg>
