<?xml version="1.0" encoding="UTF-8" standalone="no"?>
<svg
   xmlns:dc="http://purl.org/dc/elements/1.1/"
   xmlns:cc="http://creativecommons.org/ns#"
   xmlns:rdf="http://www.w3.org/1999/02/22-rdf-syntax-ns#"
   xmlns:svg="http://www.w3.org/2000/svg"
   xmlns="http://www.w3.org/2000/svg"
   viewBox="0 0 139.48401 45.170002"
   height="45.170002"
   width="139.48401"
   xml:space="preserve"
   version="1.1"
   id="svg2"><metadata
     id="metadata8"><rdf:RDF><cc:Work
         rdf:about=""><dc:format>image/svg+xml</dc:format><dc:type
           rdf:resource="http://purl.org/dc/dcmitype/StillImage" /><dc:title></dc:title></cc:Work></rdf:RDF></metadata><defs
     id="defs6" /><g
     transform="matrix(1.25,0,0,-1.25,0,45.170003)"
     id="g10"><g
       id="g12"><path
         id="path14"
         style="fill:#a89968;fill-opacity:1;fill-rule:nonzero;stroke:none"
         d="m 2.684,31.855 8.664,-4.832 0.16,0.285 -8.621,4.812 -0.203,-0.265 z" /><path
         id="path16"
         style="fill:#a89968;fill-opacity:1;fill-rule:nonzero;stroke:none"
         d="m 11.449,27.339 0.16,-0.285 8.871,4.941 -0.199,0.266 -8.832,-4.922 z" /><path
         id="path18"
         style="fill:#a89968;fill-opacity:1;fill-rule:nonzero;stroke:none"
         d="m 11.285,36.136 0.328,0 0,-9.074 -0.328,0 0,9.074 z" /><path
         id="path20"
         style="fill:#a89968;fill-opacity:1;fill-rule:nonzero;stroke:none"
         d="m 0.402,27.292 22.406,0 0,-0.328 -22.406,0 0,0.328 z" /><path
         id="path22"
         style="fill:#a89968;fill-opacity:1;fill-rule:nonzero;stroke:none"
         d="m 0.285,25.613 2.633,0 0,-0.652 -2.633,0 0,0.652 z" /><path
         id="path24"
         style="fill:#a89968;fill-opacity:1;fill-rule:nonzero;stroke:none"
         d="m 6.961,25.613 2.633,0 0,-0.652 -2.633,0 0,0.652 z" /><path
         id="path26"
         style="fill:#a89968;fill-opacity:1;fill-rule:nonzero;stroke:none"
         d="m 13.637,25.613 2.637,0 0,-0.652 -2.637,0 0,0.652 z" /><path
         id="path28"
         style="fill:#a89968;fill-opacity:1;fill-rule:nonzero;stroke:none"
         d="m 20.316,25.613 2.633,0 0,-0.652 -2.633,0 0,0.652 z" /><path
         id="path30"
         style="fill:#a89968;fill-opacity:1;fill-rule:nonzero;stroke:none"
         d="m 0.285,7.238 2.633,0 0,-0.656 -2.633,0 0,0.656 z" /><path
         id="path32"
         style="fill:#a89968;fill-opacity:1;fill-rule:nonzero;stroke:none"
         d="m 6.961,7.238 2.633,0 0,-0.656 -2.633,0 0,0.656 z" /><path
         id="path34"
         style="fill:#a89968;fill-opacity:1;fill-rule:nonzero;stroke:none"
         d="m 13.637,7.238 2.637,0 0,-0.656 -2.637,0 0,0.656 z" /><path
         id="path36"
         style="fill:#a89968;fill-opacity:1;fill-rule:nonzero;stroke:none"
         d="m 20.316,7.238 2.633,0 0,-0.656 -2.633,0 0,0.656 z" /><path
         id="path38"
         style="fill:#a89968;fill-opacity:1;fill-rule:nonzero;stroke:none"
         d="m 6.93,23.878 0.777,0 0,-15.621 -0.777,0 0,15.621 z" /><path
         id="path40"
         style="fill:#a89968;fill-opacity:1;fill-rule:nonzero;stroke:none"
         d="m 8.402,23.878 0.348,0 0,-15.621 -0.348,0 0,15.621 z" /><path
         id="path42"
         style="fill:#a89968;fill-opacity:1;fill-rule:nonzero;stroke:none"
         d="m 9.23,23.878 0.344,0 0,-15.621 -0.344,0 0,15.621 z" /><path
         id="path44"
         style="fill:#a89968;fill-opacity:1;fill-rule:nonzero;stroke:none"
         d="m 0.254,23.878 0.777,0 0,-15.621 -0.777,0 0,15.621 z" /><path
         id="path46"
         style="fill:#a89968;fill-opacity:1;fill-rule:nonzero;stroke:none"
         d="m 1.723,23.878 0.348,0 0,-15.621 -0.348,0 0,15.621 z" /><path
         id="path48"
         style="fill:#a89968;fill-opacity:1;fill-rule:nonzero;stroke:none"
         d="m 2.551,23.878 0.348,0 0,-15.621 -0.348,0 0,15.621 z" /><path
         id="path50"
         style="fill:#a89968;fill-opacity:1;fill-rule:nonzero;stroke:none"
         d="m 22.215,23.878 0.777,0 0,-15.621 -0.777,0 0,15.621 z" /><path
         id="path52"
         style="fill:#a89968;fill-opacity:1;fill-rule:nonzero;stroke:none"
         d="m 21.172,23.878 0.348,0 0,-15.621 -0.348,0 0,15.621 z" /><path
         id="path54"
         style="fill:#a89968;fill-opacity:1;fill-rule:nonzero;stroke:none"
         d="m 20.348,23.878 0.348,0 0,-15.621 -0.348,0 0,15.621 z" /><path
         id="path56"
         style="fill:#a89968;fill-opacity:1;fill-rule:nonzero;stroke:none"
         d="m 15.539,23.878 0.773,0 0,-15.621 -0.773,0 0,15.621 z" /><path
         id="path58"
         style="fill:#a89968;fill-opacity:1;fill-rule:nonzero;stroke:none"
         d="m 14.496,23.878 0.348,0 0,-15.621 -0.348,0 0,15.621 z" /><path
         id="path60"
         style="fill:#a89968;fill-opacity:1;fill-rule:nonzero;stroke:none"
         d="m 13.668,23.878 0.348,0 0,-15.621 -0.348,0 0,15.621 z" /><path
         id="path62"
         style="fill:#a89968;fill-opacity:1;fill-rule:nonzero;stroke:none"
         d="m 0.262,1.929 22.855,0 0,-1.93 -22.855,0 0,1.93 z" /><path
         id="path64"
         style="fill:#a89968;fill-opacity:1;fill-rule:nonzero;stroke:none"
         d="M 23.059,3.257 C 22.977,3.464 22.738,3.562 22.531,3.491 22.523,3.488 21.645,3.206 19.109,4.245 20.93,4.023 22.586,4.136 22.688,4.144 22.824,4.156 22.926,4.273 22.914,4.409 22.906,4.542 22.789,4.644 22.652,4.636 22.617,4.632 19.492,4.421 17.176,5.14 15.742,5.855 14.461,5.984 13.371,5.515 12.465,5.124 11.887,4.402 11.543,3.808 11.199,4.402 10.621,5.124 9.715,5.515 8.637,5.98 7.371,5.855 5.949,5.159 3.629,4.417 0.453,4.632 0.422,4.636 0.285,4.644 0.168,4.542 0.156,4.409 0.148,4.273 0.25,4.156 0.387,4.144 0.484,4.136 2.156,4.023 3.98,4.245 1.445,3.206 0.566,3.488 0.555,3.491 0.348,3.562 0.113,3.464 0.031,3.257 -0.051,3.054 0.035,2.827 0.234,2.738 0.387,2.667 1.828,2.14 6.203,4.374 c 1.238,0.633 2.309,0.762 3.18,0.391 1.058,-0.453 1.566,-1.527 1.73,-1.949 -0.031,-0.2 0.082,-0.399 0.282,-0.457 l 0.125,-0.012 0.023,-0.004 0.027,0.004 0.121,0.012 c 0.2,0.058 0.313,0.257 0.282,0.457 0.164,0.422 0.672,1.496 1.73,1.949 0.871,0.371 1.942,0.242 3.18,-0.391 4.375,-2.234 5.82,-1.707 5.969,-1.636 0.203,0.089 0.285,0.316 0.207,0.519" /><path
         id="path66"
         style="fill:#a89968;fill-opacity:1;fill-rule:nonzero;stroke:none"
         d="m 13.895,27.659 8.937,0 c -0.406,1.43 -1.078,2.747 -1.961,3.895 l -6.976,-3.895" /><path
         id="path68"
         style="fill:#a89968;fill-opacity:1;fill-rule:nonzero;stroke:none"
         d="m 0.418,27.659 8.59,0 -6.731,3.758 C 1.445,30.3 0.809,29.034 0.418,27.659" /><path
         id="path70"
         style="fill:#a89968;fill-opacity:1;fill-rule:nonzero;stroke:none"
         d="m 12.188,28.394 7.699,4.301 c -1.985,1.996 -4.696,3.261 -7.699,3.406 l 0,-7.707" /><path
         id="path72"
         style="fill:#a89968;fill-opacity:1;fill-rule:nonzero;stroke:none"
         d="m 10.715,28.394 0,7.691 C 7.789,35.855 5.168,34.554 3.242,32.566 l 7.473,-4.172" /><path
         id="path74"
         style="fill:#002855;fill-opacity:1;fill-rule:nonzero;stroke:none"
         d="m 103.367,33.695 c 0.387,-0.438 1.758,-1.965 3.164,-3.481 1.285,-1.383 3.032,-3.164 3.164,-3.285 0.645,-0.641 0.789,-0.777 0.887,-0.777 0.086,0 0.106,0.062 0.106,0.863 l 0.027,7.101 c 0,0.731 0.047,0.997 0.449,1.083 0.145,0.035 0.231,0.035 0.289,0.035 0.086,0 0.133,0.035 0.133,0.086 0,0.07 -0.082,0.082 -0.215,0.082 -0.5,0 -0.898,-0.036 -1.031,-0.036 -0.133,0 -0.715,0.036 -1.262,0.036 -0.148,0 -0.242,-0.012 -0.242,-0.082 0,-0.051 0.012,-0.086 0.094,-0.086 0.097,0 0.379,-0.012 0.597,-0.063 0.375,-0.094 0.461,-0.363 0.473,-1.148 l 0.133,-6.16 c -0.387,0.398 -1.711,1.878 -2.91,3.164 -1.868,2 -3.676,3.953 -3.856,4.16 -0.121,0.117 -0.328,0.387 -0.426,0.387 -0.097,0 -0.132,-0.133 -0.132,-0.606 l -0.012,-6.949 c 0,-1.102 -0.063,-1.453 -0.363,-1.539 -0.18,-0.063 -0.399,-0.071 -0.496,-0.071 l -0.098,-0.074 c 0,-0.086 0.074,-0.097 0.195,-0.097 0.547,0 1.055,0.035 1.16,0.035 0.11,0 0.598,-0.035 1.289,-0.035 0.145,0 0.219,0.023 0.219,0.097 l -0.098,0.074 c -0.109,0 -0.378,0.008 -0.605,0.071 -0.328,0.097 -0.453,0.414 -0.477,1.406 l -0.156,5.809 M 92.898,31.171 c 0,2.656 1.516,3.988 3.54,3.988 1.917,0 3.687,-1.562 3.687,-4.472 0,-3.528 -2.254,-4.156 -3.348,-4.156 -2.179,0 -3.879,1.816 -3.879,4.64 m -1.152,-0.34 c 0,-2.179 1.383,-4.761 4.707,-4.761 2.918,0 4.836,2.242 4.836,4.957 0,2.824 -2.035,4.547 -4.766,4.547 -3.347,0 -4.777,-2.778 -4.777,-4.743 m -3.371,4.051 1.527,-0.023 c 1.164,-0.028 1.446,-0.305 1.493,-0.668 l 0.011,-0.133 c 0.012,-0.172 0.035,-0.207 0.098,-0.207 0.047,0 0.086,0.051 0.086,0.156 0,0.137 0.035,0.973 0.035,1.336 l -0.059,0.145 c -0.05,0 -0.16,-0.024 -0.339,-0.059 -0.196,-0.027 -0.473,-0.063 -0.864,-0.063 l -4.547,0 c -0.144,0 -0.605,0.024 -0.957,0.063 -0.324,0.023 -0.449,0.145 -0.531,0.145 l -0.121,-0.231 c -0.027,-0.098 -0.269,-1.141 -0.269,-1.262 0,-0.074 0.027,-0.109 0.062,-0.109 0.047,0 0.086,0.023 0.121,0.121 0.035,0.086 0.07,0.172 0.207,0.375 0.192,0.293 0.485,0.379 1.235,0.391 l 1.792,0.023 0,-5.129 c 0,-1.164 0,-2.121 -0.058,-2.629 -0.047,-0.351 -0.109,-0.621 -0.352,-0.668 -0.109,-0.023 -0.254,-0.047 -0.363,-0.047 l -0.098,-0.074 c 0,-0.074 0.063,-0.097 0.196,-0.097 0.363,0 1.125,0.035 1.187,0.035 0.059,0 0.824,-0.035 1.492,-0.035 0.133,0 0.192,0.035 0.192,0.097 l -0.094,0.074 c -0.109,0 -0.379,0.024 -0.547,0.047 -0.363,0.047 -0.437,0.317 -0.472,0.668 -0.063,0.508 -0.063,1.465 -0.063,2.629 l 0,5.129 z M 80.488,26.07 c 0.653,0 1.309,0.144 1.828,0.507 0.836,0.594 1.032,1.516 1.032,2.012 0,0.973 -0.34,1.723 -1.77,2.852 l -0.34,0.265 c -1.14,0.934 -1.48,1.344 -1.48,2.035 0,0.887 0.656,1.407 1.492,1.407 1.117,0 1.441,-0.508 1.516,-0.641 0.074,-0.133 0.148,-0.461 0.16,-0.605 0.008,-0.098 0.023,-0.161 0.094,-0.161 0.062,0 0.085,0.086 0.085,0.282 0,0.824 0.047,1.222 0.047,1.281 0,0.062 -0.023,0.086 -0.121,0.086 -0.097,0 -0.191,0.012 -0.422,0.062 -0.304,0.071 -0.656,0.122 -1.129,0.122 -1.539,0 -2.507,-0.887 -2.507,-2.184 0,-0.824 0.289,-1.574 1.574,-2.629 l 0.547,-0.449 c 1.043,-0.863 1.394,-1.348 1.394,-2.184 0,-0.773 -0.57,-1.609 -1.734,-1.609 -0.813,0 -1.613,0.336 -1.793,1.234 -0.039,0.168 -0.039,0.34 -0.039,0.449 0,0.098 -0.012,0.133 -0.082,0.133 -0.063,0 -0.086,-0.058 -0.098,-0.195 -0.015,-0.191 -0.062,-0.68 -0.062,-1.285 0,-0.324 0.011,-0.375 0.183,-0.461 0.496,-0.242 1.055,-0.324 1.625,-0.324 m -7.211,3.683 c 0,-1.164 0,-2.121 -0.058,-2.629 -0.051,-0.351 -0.114,-0.621 -0.352,-0.668 -0.109,-0.023 -0.258,-0.047 -0.367,-0.047 l -0.094,-0.074 c 0,-0.074 0.059,-0.097 0.192,-0.097 0.183,0 0.461,0.011 0.703,0.023 0.258,0 0.461,0.012 0.488,0.012 0.352,0 1.164,-0.071 2.992,-0.071 0.473,0 0.571,0 0.657,0.317 0.058,0.254 0.156,1.078 0.156,1.172 0,0.086 0,0.183 -0.071,0.183 -0.062,0 -0.085,-0.047 -0.109,-0.183 -0.086,-0.496 -0.234,-0.739 -0.547,-0.871 -0.316,-0.133 -0.847,-0.133 -1.164,-0.133 -1.187,0 -1.371,0.156 -1.406,0.992 -0.012,0.258 0,1.664 0,2.074 l 0,1.067 0.086,0.086 c 0.203,0 1.406,-0.024 1.73,-0.063 0.477,-0.047 0.582,-0.254 0.633,-0.422 0.047,-0.16 0.047,-0.277 0.047,-0.402 l 0.086,-0.11 c 0.086,0 0.086,0.137 0.086,0.235 0,0.082 0.023,0.531 0.047,0.773 0.035,0.399 0.097,0.606 0.097,0.68 l -0.062,0.098 c -0.047,0 -0.094,-0.063 -0.18,-0.161 -0.109,-0.121 -0.277,-0.144 -0.57,-0.168 -0.277,-0.023 -1.77,-0.023 -1.926,-0.023 -0.062,0 -0.074,0.035 -0.074,0.121 l 0,3.344 c 0,0.086 0.023,0.121 0.074,0.121 0.133,0 1.453,-0.012 1.66,-0.035 0.653,-0.07 0.774,-0.219 0.86,-0.414 0.062,-0.145 0.074,-0.348 0.074,-0.434 0,-0.097 0.023,-0.16 0.098,-0.16 l 0.082,0.137 c 0.027,0.144 0.05,0.676 0.062,0.801 0.035,0.335 0.094,0.48 0.094,0.566 l -0.047,0.109 -0.168,-0.058 c -0.098,-0.028 -0.293,-0.051 -0.523,-0.063 -0.278,-0.012 -2.692,-0.012 -2.774,-0.012 -0.062,0 -0.828,0.036 -1.371,0.036 -0.133,0 -0.195,-0.024 -0.195,-0.098 l 0.097,-0.07 c 0.11,0 0.317,-0.012 0.41,-0.035 0.403,-0.086 0.5,-0.282 0.524,-0.692 0.023,-0.391 0.023,-0.726 0.023,-2.621 l 0,-2.133 z m -5.297,2.133 c 0,1.895 0,2.23 0.024,2.621 0.023,0.422 0.121,0.629 0.473,0.692 0.144,0.023 0.316,0.035 0.398,0.035 l 0.098,0.07 c 0,0.074 -0.059,0.098 -0.196,0.098 -0.363,0 -1.246,-0.036 -1.308,-0.036 -0.059,0 -0.824,0.036 -1.367,0.036 -0.137,0 -0.196,-0.024 -0.196,-0.098 l 0.098,-0.07 c 0.109,0 0.312,-0.012 0.41,-0.035 0.402,-0.086 0.5,-0.282 0.524,-0.692 0.023,-0.391 0.023,-0.726 0.023,-2.621 l 0,-2.133 c 0,-1.164 0,-2.121 -0.063,-2.629 -0.046,-0.351 -0.109,-0.621 -0.351,-0.668 -0.109,-0.023 -0.254,-0.047 -0.363,-0.047 l -0.098,-0.074 c 0,-0.074 0.062,-0.097 0.195,-0.097 0.184,0 0.449,0.011 0.692,0.023 0.242,0 0.449,0.012 0.496,0.012 0.703,0 1.504,-0.071 3.25,-0.071 0.644,0 0.679,0.047 0.765,0.329 0.094,0.347 0.18,1.078 0.18,1.21 0,0.133 -0.012,0.18 -0.074,0.18 -0.07,0 -0.094,-0.058 -0.106,-0.156 -0.039,-0.231 -0.16,-0.531 -0.316,-0.727 -0.293,-0.351 -0.824,-0.363 -1.469,-0.363 -0.945,0 -1.258,0.082 -1.453,0.277 -0.219,0.219 -0.266,0.997 -0.266,2.778 l 0,2.156 z m -9.148,2.91 c 0,0.074 0.035,0.121 0.098,0.149 0.121,0.035 0.449,0.07 0.812,0.07 1.297,0 2.098,-0.91 2.098,-2.426 0,-0.922 -0.317,-1.574 -0.742,-1.863 -0.278,-0.195 -0.618,-0.235 -0.91,-0.235 -0.532,0 -1.09,0.086 -1.27,0.196 l -0.086,0.144 0,3.965 z m -0.973,-5.043 c 0,-1.164 0,-2.121 -0.058,-2.629 -0.047,-0.351 -0.11,-0.621 -0.352,-0.668 -0.109,-0.023 -0.254,-0.047 -0.363,-0.047 l -0.098,-0.074 c 0,-0.074 0.063,-0.097 0.196,-0.097 0.363,0 1.125,0.035 1.136,0.035 0.063,0 0.828,-0.035 1.493,-0.035 0.132,0 0.195,0.035 0.195,0.097 l -0.098,0.074 c -0.109,0 -0.375,0.024 -0.547,0.047 -0.363,0.047 -0.433,0.317 -0.472,0.668 -0.059,0.508 -0.059,1.465 -0.059,2.629 l 0,0.293 0.086,0.098 1.488,-0.028 0.16,-0.07 c 0.243,-0.316 0.813,-1.129 1.321,-1.797 0.691,-0.91 1.113,-1.504 1.636,-1.781 0.317,-0.168 0.618,-0.23 1.297,-0.23 l 0.86,0 c 0.218,0 0.293,0.023 0.293,0.097 l -0.11,0.074 c -0.074,0 -0.242,0 -0.472,0.036 -0.305,0.046 -0.825,0.179 -1.481,0.871 -0.703,0.754 -1.527,1.832 -2.519,3.105 1.089,1.004 1.464,1.903 1.464,2.801 0,0.836 -0.531,1.43 -0.835,1.648 -0.641,0.461 -1.454,0.532 -2.219,0.532 -0.375,0 -1.297,-0.036 -1.43,-0.036 -0.062,0 -0.824,0.036 -1.371,0.036 -0.133,0 -0.195,-0.024 -0.195,-0.098 l 0.097,-0.07 c 0.11,0 0.317,-0.012 0.414,-0.035 0.399,-0.086 0.497,-0.282 0.52,-0.692 0.023,-0.391 0.023,-0.726 0.023,-2.621 l 0,-2.133 z m -7.398,0.496 -0.035,0.086 1.066,3.274 c 0.059,0.183 0.121,0.183 0.18,0 l 1.152,-3.274 -0.047,-0.086 -2.316,0 z M 48.766,27.57 c -0.219,-0.606 -0.461,-1.067 -1.02,-1.137 -0.098,-0.016 -0.266,-0.024 -0.351,-0.024 l -0.11,-0.074 c 0,-0.074 0.074,-0.097 0.231,-0.097 0.57,0 1.238,0.035 1.371,0.035 0.133,0 0.652,-0.035 0.945,-0.035 0.109,0 0.18,0.023 0.18,0.097 0,0.047 -0.035,0.074 -0.121,0.074 l -0.121,0 c -0.207,0 -0.461,0.11 -0.461,0.348 0,0.223 0.062,0.512 0.171,0.813 l 0.727,2.148 0.121,0.098 2.606,0 0.109,-0.075 1.129,-2.984 c 0.074,-0.191 0,-0.301 -0.074,-0.324 l -0.086,-0.086 c 0,-0.074 0.136,-0.074 0.367,-0.086 0.836,-0.023 1.719,-0.023 1.902,-0.023 0.133,0 0.242,0.023 0.242,0.097 0,0.059 -0.046,0.074 -0.121,0.074 -0.121,0 -0.304,0.008 -0.484,0.071 -0.254,0.074 -0.605,0.265 -1.043,1.347 -0.738,1.84 -2.645,6.848 -2.824,7.309 -0.149,0.375 -0.196,0.438 -0.266,0.438 -0.074,0 -0.125,-0.075 -0.269,-0.473 l -2.75,-7.531 z m -3.02,4.316 c 0,1.895 0,2.23 0.024,2.621 0.027,0.422 0.121,0.629 0.449,0.692 0.144,0.023 0.219,0.035 0.304,0.035 l 0.098,0.07 c 0,0.074 -0.062,0.098 -0.195,0.098 -0.363,0 -1.129,-0.036 -1.188,-0.036 -0.062,0 -0.824,0.036 -1.371,0.036 -0.133,0 -0.195,-0.024 -0.195,-0.098 l 0.098,-0.07 c 0.109,0 0.316,-0.012 0.414,-0.035 0.398,-0.086 0.496,-0.282 0.519,-0.692 0.024,-0.391 0.024,-0.726 0.024,-2.621 l 0,-0.254 -0.071,-0.07 -5.14,0 -0.075,0.07 0,0.254 c 0,1.895 0,2.23 0.024,2.621 0.027,0.422 0.125,0.629 0.449,0.692 0.145,0.023 0.219,0.035 0.305,0.035 l 0.097,0.07 c 0,0.074 -0.062,0.098 -0.195,0.098 -0.363,0 -1.129,-0.036 -1.187,-0.036 -0.059,0 -0.825,0.036 -1.371,0.036 -0.133,0 -0.192,-0.024 -0.192,-0.098 l 0.094,-0.07 c 0.109,0 0.316,-0.012 0.414,-0.035 0.398,-0.086 0.496,-0.282 0.519,-0.692 0.028,-0.391 0.028,-0.726 0.028,-2.621 l 0,-2.133 c 0,-1.164 0,-2.121 -0.063,-2.629 -0.047,-0.351 -0.109,-0.621 -0.351,-0.668 -0.11,-0.023 -0.254,-0.047 -0.364,-0.047 l -0.097,-0.074 c 0,-0.074 0.058,-0.097 0.195,-0.097 0.363,0 1.129,0.035 1.188,0.035 0.058,0 0.824,-0.035 1.492,-0.035 0.133,0 0.191,0.035 0.191,0.097 l -0.097,0.074 c -0.106,0 -0.375,0.024 -0.543,0.047 -0.364,0.047 -0.438,0.317 -0.473,0.668 -0.063,0.508 -0.063,1.465 -0.063,2.629 l 0,1.274 0.075,0.074 5.14,0 0.071,-0.074 0,-1.274 c 0,-1.164 0,-2.121 -0.059,-2.629 -0.047,-0.351 -0.109,-0.621 -0.352,-0.668 -0.109,-0.023 -0.253,-0.047 -0.363,-0.047 l -0.098,-0.074 c 0,-0.074 0.063,-0.097 0.196,-0.097 0.363,0 1.125,0.035 1.187,0.035 0.059,0 0.825,-0.035 1.492,-0.035 0.133,0 0.192,0.035 0.192,0.097 0,0.035 -0.024,0.074 -0.094,0.074 -0.113,0 -0.379,0.024 -0.547,0.047 -0.363,0.047 -0.437,0.317 -0.472,0.668 -0.063,0.508 -0.063,1.465 -0.063,2.629 l 0,2.133 z M 33.66,26.07 c 0.774,0 1.695,0.082 2.18,0.277 0.219,0.098 0.242,0.121 0.316,0.352 0.121,0.414 0.266,1.464 0.266,1.55 0,0.098 -0.024,0.184 -0.086,0.184 -0.07,0 -0.094,-0.051 -0.121,-0.184 -0.035,-0.218 -0.192,-0.75 -0.445,-1.015 -0.485,-0.5 -1.204,-0.61 -2.11,-0.61 -2.597,0 -4.379,2.121 -4.379,4.438 0,1.238 0.207,2.316 1.094,3.164 0.422,0.414 1.172,0.887 2.785,0.887 1.067,0 2,-0.329 2.426,-0.692 0.316,-0.265 0.508,-0.765 0.508,-1.238 0,-0.168 0.011,-0.254 0.097,-0.254 0.075,0 0.098,0.074 0.11,0.254 0.012,0.183 0.012,0.851 0.035,1.25 0.027,0.437 0.062,0.582 0.062,0.68 0,0.074 -0.023,0.121 -0.156,0.132 -0.39,0.024 -0.777,0.098 -1.238,0.184 -0.594,0.109 -1.274,0.145 -1.758,0.145 -1.867,0 -2.969,-0.571 -3.699,-1.297 -1.078,-1.078 -1.356,-2.496 -1.356,-3.313 0,-1.148 0.289,-2.531 1.465,-3.586 0.957,-0.859 2.184,-1.308 4.004,-1.308" /><path
         id="path76"
         style="fill:#002855;fill-opacity:1;fill-rule:nonzero;stroke:none"
         d="m 89.164,20.761 c 0.387,-0.434 1.758,-1.965 3.164,-3.477 1.285,-1.382 3.031,-3.168 3.164,-3.289 0.641,-0.64 0.789,-0.773 0.883,-0.773 0.086,0 0.113,0.059 0.113,0.859 l 0.024,7.106 c 0,0.726 0.047,0.992 0.445,1.078 0.148,0.035 0.231,0.035 0.293,0.035 0.086,0 0.133,0.039 0.133,0.086 0,0.074 -0.086,0.086 -0.219,0.086 -0.496,0 -0.894,-0.039 -1.031,-0.039 -0.133,0 -0.715,0.039 -1.258,0.039 -0.148,0 -0.242,-0.012 -0.242,-0.086 0,-0.047 0.012,-0.086 0.094,-0.086 0.097,0 0.378,-0.012 0.593,-0.059 0.379,-0.097 0.461,-0.363 0.473,-1.152 l 0.137,-6.16 c -0.391,0.402 -1.711,1.879 -2.91,3.164 -1.868,2 -3.672,3.953 -3.856,4.16 -0.121,0.121 -0.328,0.387 -0.426,0.387 -0.097,0 -0.133,-0.133 -0.133,-0.606 l -0.011,-6.945 c 0,-1.105 -0.063,-1.457 -0.364,-1.539 -0.183,-0.062 -0.402,-0.074 -0.496,-0.074 l -0.097,-0.074 c 0,-0.082 0.07,-0.098 0.191,-0.098 0.547,0 1.059,0.039 1.164,0.039 0.11,0 0.594,-0.039 1.285,-0.039 0.149,0 0.219,0.027 0.219,0.098 l -0.098,0.074 c -0.109,0 -0.375,0.012 -0.605,0.074 -0.324,0.094 -0.445,0.41 -0.473,1.406 l -0.156,5.805 m -8.543,1.105 c 0,0.071 0.035,0.122 0.098,0.145 0.121,0.035 0.449,0.074 0.812,0.074 1.297,0 2.098,-0.91 2.098,-2.426 0,-0.921 -0.316,-1.578 -0.742,-1.867 -0.278,-0.195 -0.617,-0.23 -0.907,-0.23 -0.535,0 -1.093,0.082 -1.273,0.195 l -0.086,0.145 0,3.964 z m -0.969,-5.042 c 0,-1.165 0,-2.125 -0.062,-2.633 -0.047,-0.352 -0.11,-0.617 -0.352,-0.668 -0.109,-0.024 -0.254,-0.047 -0.363,-0.047 l -0.098,-0.074 c 0,-0.071 0.063,-0.098 0.196,-0.098 0.363,0 1.125,0.039 1.136,0.039 0.063,0 0.829,-0.039 1.496,-0.039 0.133,0 0.192,0.039 0.192,0.098 l -0.098,0.074 c -0.109,0 -0.375,0.023 -0.547,0.047 -0.363,0.051 -0.433,0.316 -0.472,0.668 -0.059,0.508 -0.059,1.468 -0.059,2.633 l 0,0.289 0.086,0.097 1.488,-0.023 0.16,-0.074 c 0.243,-0.317 0.813,-1.125 1.321,-1.793 0.691,-0.911 1.113,-1.504 1.637,-1.786 0.316,-0.168 0.617,-0.23 1.296,-0.23 l 0.864,0 c 0.215,0 0.289,0.027 0.289,0.098 l -0.11,0.074 c -0.074,0 -0.242,0 -0.472,0.035 -0.305,0.051 -0.825,0.184 -1.481,0.875 -0.703,0.75 -1.527,1.828 -2.519,3.102 1.09,1.007 1.465,1.902 1.465,2.8 0,0.836 -0.532,1.43 -0.836,1.649 -0.641,0.461 -1.454,0.535 -2.219,0.535 -0.375,0 -1.297,-0.039 -1.43,-0.039 -0.062,0 -0.824,0.039 -1.371,0.039 -0.133,0 -0.191,-0.023 -0.191,-0.098 L 78.691,22.3 c 0.114,0 0.317,-0.012 0.414,-0.035 0.399,-0.086 0.497,-0.277 0.52,-0.691 0.027,-0.387 0.027,-0.727 0.027,-2.618 l 0,-2.132 z m -6.277,0 c 0,-1.165 0,-2.125 -0.059,-2.633 -0.046,-0.352 -0.109,-0.617 -0.351,-0.668 -0.11,-0.024 -0.254,-0.047 -0.363,-0.047 l -0.098,-0.074 c 0,-0.071 0.062,-0.098 0.195,-0.098 0.18,0 0.461,0.016 0.703,0.027 0.254,0 0.461,0.012 0.485,0.012 0.351,0 1.164,-0.074 2.992,-0.074 0.476,0 0.57,0 0.656,0.316 0.063,0.254 0.16,1.078 0.16,1.176 0,0.086 0,0.184 -0.074,0.184 -0.058,0 -0.086,-0.051 -0.109,-0.184 -0.086,-0.496 -0.231,-0.742 -0.547,-0.875 -0.313,-0.133 -0.848,-0.133 -1.164,-0.133 -1.188,0 -1.367,0.16 -1.406,0.996 -0.012,0.254 0,1.66 0,2.075 l 0,1.066 0.085,0.082 c 0.208,0 1.407,-0.023 1.735,-0.059 0.473,-0.05 0.582,-0.254 0.629,-0.425 0.051,-0.157 0.051,-0.278 0.051,-0.399 l 0.082,-0.109 c 0.086,0 0.086,0.133 0.086,0.23 0,0.086 0.023,0.531 0.046,0.778 0.039,0.398 0.098,0.605 0.098,0.675 l -0.059,0.098 c -0.046,0 -0.097,-0.059 -0.183,-0.156 -0.11,-0.121 -0.277,-0.145 -0.57,-0.172 -0.278,-0.024 -1.77,-0.024 -1.926,-0.024 -0.063,0 -0.074,0.036 -0.074,0.122 l 0,3.347 c 0,0.082 0.023,0.121 0.074,0.121 0.133,0 1.453,-0.011 1.66,-0.039 0.656,-0.07 0.777,-0.215 0.863,-0.41 0.059,-0.144 0.071,-0.351 0.071,-0.437 0,-0.098 0.023,-0.157 0.097,-0.157 l 0.086,0.133 c 0.024,0.145 0.047,0.68 0.059,0.801 0.039,0.34 0.097,0.484 0.097,0.57 l -0.047,0.11 -0.171,-0.063 c -0.098,-0.023 -0.289,-0.047 -0.52,-0.058 -0.277,-0.016 -2.691,-0.016 -2.777,-0.016 -0.063,0 -0.824,0.039 -1.371,0.039 -0.133,0 -0.192,-0.023 -0.192,-0.098 L 72.418,22.3 c 0.109,0 0.316,-0.012 0.414,-0.035 0.398,-0.086 0.496,-0.277 0.52,-0.691 0.023,-0.387 0.023,-0.727 0.023,-2.618 l 0,-2.132 z m -3.211,2.132 c 0,1.891 0,2.231 0.024,2.618 0.023,0.425 0.121,0.632 0.449,0.691 0.144,0.023 0.218,0.035 0.304,0.035 l 0.094,0.074 c 0,0.075 -0.058,0.098 -0.191,0.098 -0.364,0 -1.129,-0.039 -1.188,-0.039 -0.062,0 -0.828,0.039 -1.371,0.039 -0.133,0 -0.195,-0.023 -0.195,-0.098 L 68.188,22.3 c 0.109,0 0.316,-0.012 0.414,-0.035 0.398,-0.086 0.496,-0.277 0.519,-0.691 0.024,-0.387 0.024,-0.727 0.024,-2.618 l 0,-0.254 -0.071,-0.074 -5.14,0 -0.075,0.074 0,0.254 c 0,1.891 0,2.231 0.024,2.618 0.023,0.425 0.121,0.632 0.449,0.691 0.145,0.023 0.219,0.035 0.305,0.035 l 0.093,0.074 c 0,0.075 -0.058,0.098 -0.191,0.098 -0.363,0 -1.129,-0.039 -1.187,-0.039 -0.063,0 -0.829,0.039 -1.372,0.039 -0.132,0 -0.195,-0.023 -0.195,-0.098 L 61.883,22.3 c 0.109,0 0.316,-0.012 0.414,-0.035 0.398,-0.086 0.496,-0.277 0.519,-0.691 0.024,-0.387 0.024,-0.727 0.024,-2.618 l 0,-2.132 c 0,-1.165 0,-2.125 -0.059,-2.633 -0.051,-0.352 -0.109,-0.617 -0.351,-0.668 -0.11,-0.024 -0.258,-0.047 -0.364,-0.047 l -0.097,-0.074 c 0,-0.071 0.058,-0.098 0.191,-0.098 0.363,0 1.129,0.039 1.192,0.039 0.058,0 0.824,-0.039 1.488,-0.039 0.133,0 0.195,0.039 0.195,0.098 l -0.097,0.074 c -0.11,0 -0.375,0.023 -0.543,0.047 -0.368,0.051 -0.438,0.316 -0.477,0.668 -0.059,0.508 -0.059,1.468 -0.059,2.633 l 0,1.269 0.075,0.074 5.14,0 0.071,-0.074 0,-1.269 c 0,-1.165 0,-2.125 -0.059,-2.633 -0.051,-0.352 -0.109,-0.617 -0.352,-0.668 -0.109,-0.024 -0.254,-0.047 -0.363,-0.047 l -0.098,-0.074 c 0,-0.071 0.059,-0.098 0.196,-0.098 0.359,0 1.125,0.039 1.187,0.039 0.059,0 0.824,-0.039 1.489,-0.039 0.132,0 0.195,0.039 0.195,0.098 0,0.039 -0.024,0.074 -0.098,0.074 -0.109,0 -0.375,0.023 -0.547,0.047 -0.363,0.051 -0.433,0.316 -0.468,0.668 -0.063,0.508 -0.063,1.468 -0.063,2.633 l 0,2.132 z m -12.414,2.993 1.531,-0.024 c 1.164,-0.023 1.442,-0.301 1.489,-0.668 l 0.011,-0.133 c 0.016,-0.168 0.039,-0.203 0.098,-0.203 0.051,0 0.086,0.047 0.086,0.156 0,0.133 0.035,0.969 0.035,1.332 l -0.059,0.149 c -0.046,0 -0.16,-0.027 -0.339,-0.063 -0.196,-0.023 -0.473,-0.062 -0.864,-0.062 l -4.543,0 c -0.148,0 -0.605,0.027 -0.957,0.062 -0.328,0.024 -0.449,0.145 -0.535,0.145 l -0.121,-0.231 c -0.023,-0.097 -0.266,-1.136 -0.266,-1.257 0,-0.075 0.024,-0.11 0.059,-0.11 0.051,0 0.086,0.024 0.121,0.121 0.039,0.082 0.074,0.168 0.207,0.375 0.195,0.289 0.485,0.375 1.238,0.387 l 1.793,0.024 0,-5.125 c 0,-1.165 0,-2.125 -0.062,-2.633 -0.047,-0.352 -0.106,-0.617 -0.352,-0.668 -0.109,-0.024 -0.254,-0.047 -0.363,-0.047 l -0.098,-0.074 c 0,-0.071 0.063,-0.098 0.196,-0.098 0.363,0 1.129,0.039 1.187,0.039 0.063,0 0.824,-0.039 1.492,-0.039 0.133,0 0.196,0.039 0.196,0.098 l -0.098,0.074 c -0.109,0 -0.379,0.023 -0.547,0.047 -0.363,0.051 -0.437,0.316 -0.472,0.668 -0.063,0.508 -0.063,1.468 -0.063,2.633 l 0,5.125 z M 44.914,17.187 c 0,-1.77 0.461,-2.621 1.059,-3.192 0.859,-0.812 2.082,-0.859 2.496,-0.859 0.715,0 1.625,0.121 2.496,0.898 0.973,0.86 1.117,2.313 1.117,3.625 l 0,1.297 c 0,1.891 0,2.231 0.023,2.618 0.024,0.425 0.122,0.632 0.45,0.691 0.144,0.035 0.218,0.035 0.3,0.035 l 0.098,0.074 c 0,0.075 -0.058,0.098 -0.191,0.098 -0.364,0 -0.934,-0.039 -1.02,-0.039 -0.074,0 -0.742,0.039 -1.285,0.039 -0.133,0 -0.195,-0.023 -0.195,-0.098 L 50.359,22.3 c 0.11,0 0.317,-0.012 0.414,-0.035 0.399,-0.086 0.497,-0.277 0.52,-0.691 0.023,-0.387 0.023,-0.727 0.023,-2.618 l 0,-1.515 c 0,-1.25 -0.144,-2.282 -0.703,-2.973 -0.433,-0.519 -1.164,-0.871 -1.902,-0.871 -0.691,0 -1.238,0.109 -1.832,0.668 -0.52,0.496 -0.906,1.246 -0.906,2.992 l 0,1.699 c 0,1.891 0,2.231 0.023,2.618 0.024,0.425 0.121,0.644 0.449,0.691 0.145,0.023 0.215,0.035 0.301,0.035 l 0.098,0.074 c 0,0.075 -0.063,0.098 -0.196,0.098 -0.363,0 -1.089,-0.039 -1.199,-0.039 -0.109,0 -0.847,0.039 -1.394,0.039 -0.133,0 -0.196,-0.023 -0.196,-0.098 L 43.957,22.3 c 0.109,0 0.316,-0.012 0.414,-0.035 0.399,-0.086 0.496,-0.277 0.52,-0.691 0.023,-0.387 0.023,-0.727 0.023,-2.618 l 0,-1.769 z m -9.66,1.054 c 0,2.653 1.516,3.989 3.539,3.989 1.914,0 3.684,-1.567 3.684,-4.473 0,-3.531 -2.254,-4.16 -3.344,-4.16 -2.184,0 -3.879,1.82 -3.879,4.644 m -1.152,-0.339 c 0,-2.184 1.382,-4.766 4.703,-4.766 2.922,0 4.836,2.242 4.836,4.957 0,2.828 -2.036,4.547 -4.766,4.547 -3.344,0 -4.773,-2.774 -4.773,-4.738 m -3.68,-4.766 c 0.652,0 1.308,0.145 1.828,0.508 0.84,0.594 1.031,1.515 1.031,2.015 0,0.969 -0.34,1.719 -1.769,2.848 l -0.34,0.266 c -1.141,0.933 -1.477,1.347 -1.477,2.039 0,0.883 0.653,1.406 1.489,1.406 1.117,0 1.445,-0.512 1.515,-0.644 0.074,-0.133 0.149,-0.461 0.16,-0.606 0.012,-0.098 0.024,-0.156 0.094,-0.156 0.063,0 0.086,0.082 0.086,0.277 0,0.824 0.051,1.223 0.051,1.285 0,0.059 -0.027,0.086 -0.121,0.086 -0.098,0 -0.196,0.012 -0.426,0.059 -0.305,0.074 -0.656,0.121 -1.129,0.121 -1.539,0 -2.508,-0.883 -2.508,-2.18 0,-0.824 0.289,-1.578 1.574,-2.633 l 0.547,-0.449 c 1.043,-0.859 1.395,-1.344 1.395,-2.179 0,-0.778 -0.57,-1.614 -1.734,-1.614 -0.813,0 -1.614,0.34 -1.793,1.239 -0.04,0.167 -0.04,0.335 -0.04,0.445 0,0.097 -0.007,0.133 -0.082,0.133 -0.062,0 -0.085,-0.059 -0.097,-0.192 -0.012,-0.195 -0.063,-0.679 -0.063,-1.285 0,-0.328 0.012,-0.375 0.184,-0.461 0.496,-0.242 1.055,-0.328 1.625,-0.328" /><path
         id="path78"
         style="fill:#002855;fill-opacity:1;fill-rule:nonzero;stroke:none"
         d="m 97.77,2.472 c 0,-0.195 0,-0.703 -0.036,-1.211 C 97.711,0.909 97.602,0.64 97.359,0.593 97.25,0.57 97.105,0.542 96.996,0.542 l -0.098,-0.07 c 0,-0.074 0.063,-0.098 0.196,-0.098 0.363,0 1.125,0.035 1.187,0.035 0.059,0 0.824,-0.035 1.489,-0.035 0.136,0 0.195,0.035 0.195,0.098 l -0.098,0.07 c -0.109,0 -0.375,0.028 -0.543,0.051 -0.363,0.047 -0.472,0.316 -0.5,0.668 -0.035,0.508 -0.035,1.016 -0.035,1.211 l 0,1.043 c 0,0.398 0,0.773 0.184,1.211 0.218,0.523 1.914,3.371 2.316,3.855 0.266,0.328 0.399,0.473 0.641,0.618 0.195,0.121 0.425,0.171 0.558,0.171 0.098,0 0.157,0.036 0.157,0.098 0,0.047 -0.075,0.07 -0.157,0.07 -0.23,0 -1.105,-0.035 -1.175,-0.035 -0.098,0 -0.489,0.035 -0.801,0.035 -0.121,0 -0.196,-0.023 -0.196,-0.07 0,-0.062 0.075,-0.086 0.184,-0.121 0.145,-0.039 0.191,-0.172 0.191,-0.34 0,-0.16 -0.046,-0.363 -0.203,-0.617 -0.246,-0.402 -1.781,-3.059 -2.015,-3.566 -0.215,0.351 -2.035,3.48 -2.231,3.832 -0.094,0.179 -0.156,0.328 -0.156,0.472 0,0.098 0.062,0.168 0.156,0.219 0.11,0.047 0.184,0.059 0.184,0.105 0,0.051 -0.024,0.086 -0.16,0.086 -0.469,0 -0.93,-0.035 -1.016,-0.035 -0.062,0 -0.973,0.035 -1.199,0.035 -0.11,0 -0.16,-0.035 -0.16,-0.086 L 94.012,9.37 c 0.109,0 0.34,-0.074 0.523,-0.195 0.219,-0.144 0.52,-0.449 0.824,-0.898 C 95.781,7.648 97.406,4.98 97.492,4.788 97.648,4.437 97.77,4.167 97.77,3.515 l 0,-1.043 m -7.176,6.547 1.527,-0.024 c 1.164,-0.027 1.442,-0.304 1.492,-0.668 l 0.012,-0.132 c 0.012,-0.172 0.035,-0.207 0.098,-0.207 0.047,0 0.082,0.046 0.082,0.156 0,0.133 0.039,0.972 0.039,1.336 l -0.063,0.144 c -0.047,0 -0.156,-0.023 -0.34,-0.062 C 93.25,9.538 92.969,9.503 92.582,9.503 l -4.547,0 c -0.144,0 -0.605,0.024 -0.957,0.059 C 86.75,9.589 86.629,9.71 86.543,9.71 L 86.426,9.48 c -0.028,-0.098 -0.27,-1.141 -0.27,-1.262 0,-0.074 0.024,-0.109 0.063,-0.109 0.047,0 0.082,0.023 0.121,0.121 0.035,0.086 0.07,0.172 0.203,0.375 0.195,0.293 0.488,0.379 1.238,0.39 l 1.793,0.024 0,-5.129 c 0,-1.164 0,-2.121 -0.058,-2.629 C 89.465,0.909 89.406,0.64 89.164,0.593 89.055,0.57 88.91,0.542 88.801,0.542 l -0.098,-0.07 c 0,-0.074 0.059,-0.098 0.192,-0.098 0.367,0 1.128,0.035 1.191,0.035 0.059,0 0.824,-0.035 1.488,-0.035 0.137,0 0.196,0.035 0.196,0.098 l -0.098,0.07 c -0.109,0 -0.375,0.028 -0.543,0.051 -0.363,0.047 -0.438,0.316 -0.477,0.668 -0.058,0.508 -0.058,1.465 -0.058,2.629 l 0,5.129 z M 84.566,6.023 c 0,1.89 0,2.23 0.024,2.621 0.027,0.422 0.125,0.629 0.453,0.687 0.145,0.028 0.215,0.039 0.301,0.039 l 0.097,0.071 c 0,0.074 -0.062,0.097 -0.195,0.097 -0.363,0 -1.129,-0.035 -1.187,-0.035 -0.059,0 -0.825,0.035 -1.223,0.035 -0.137,0 -0.195,-0.023 -0.195,-0.097 L 82.738,9.37 c 0.082,0 0.242,-0.011 0.375,-0.05 0.266,-0.059 0.387,-0.266 0.41,-0.676 0.028,-0.391 0.028,-0.731 0.028,-2.621 l 0,-2.133 c 0,-1.164 0,-2.121 -0.063,-2.629 C 83.438,0.909 83.379,0.64 83.137,0.593 83.027,0.57 82.883,0.542 82.773,0.542 l -0.097,-0.07 c 0,-0.074 0.062,-0.098 0.195,-0.098 0.363,0 1.129,0.035 1.188,0.035 0.058,0 0.824,-0.035 1.492,-0.035 0.133,0 0.191,0.035 0.191,0.098 l -0.097,0.07 c -0.106,0 -0.375,0.028 -0.543,0.051 -0.364,0.047 -0.438,0.316 -0.473,0.668 -0.063,0.508 -0.063,1.465 -0.063,2.629 l 0,2.133 z M 78.691,0.202 c 0.657,0 1.313,0.149 1.832,0.512 0.836,0.594 1.032,1.516 1.032,2.012 0,0.969 -0.34,1.723 -1.77,2.848 l -0.34,0.269 c -1.14,0.934 -1.48,1.344 -1.48,2.035 0,0.887 0.656,1.406 1.492,1.406 1.113,0 1.441,-0.507 1.516,-0.64 0.074,-0.133 0.144,-0.461 0.16,-0.61 0.008,-0.093 0.019,-0.156 0.094,-0.156 0.062,0 0.086,0.086 0.086,0.278 0,0.828 0.046,1.226 0.046,1.285 0,0.062 -0.023,0.086 -0.121,0.086 -0.097,0 -0.191,0.011 -0.425,0.062 -0.301,0.07 -0.653,0.121 -1.125,0.121 -1.54,0 -2.508,-0.886 -2.508,-2.183 0,-0.825 0.289,-1.578 1.574,-2.629 l 0.547,-0.449 c 1.043,-0.864 1.394,-1.348 1.394,-2.184 0,-0.777 -0.57,-1.613 -1.734,-1.613 -0.813,0 -1.613,0.339 -1.793,1.238 -0.039,0.168 -0.039,0.34 -0.039,0.445 0,0.102 -0.012,0.137 -0.086,0.137 -0.059,0 -0.082,-0.063 -0.098,-0.195 -0.011,-0.192 -0.058,-0.68 -0.058,-1.286 0,-0.328 0.011,-0.375 0.179,-0.46 0.5,-0.243 1.059,-0.329 1.625,-0.329 m -9,8.731 c 0,0.074 0.036,0.121 0.098,0.144 0.121,0.039 0.449,0.075 0.813,0.075 1.296,0 2.097,-0.911 2.097,-2.426 0,-0.922 -0.316,-1.574 -0.738,-1.867 -0.281,-0.196 -0.621,-0.231 -0.91,-0.231 -0.535,0 -1.094,0.086 -1.274,0.196 l -0.086,0.144 0,3.965 z M 68.723,3.89 c 0,-1.164 0,-2.121 -0.063,-2.629 C 68.613,0.909 68.551,0.64 68.309,0.593 68.199,0.57 68.055,0.542 67.945,0.542 l -0.097,-0.07 c 0,-0.074 0.062,-0.098 0.195,-0.098 0.363,0 1.129,0.035 1.141,0.035 0.058,0 0.824,-0.035 1.492,-0.035 0.133,0 0.191,0.035 0.191,0.098 l -0.097,0.07 c -0.106,0 -0.375,0.028 -0.543,0.051 -0.368,0.047 -0.438,0.316 -0.473,0.668 -0.063,0.508 -0.063,1.465 -0.063,2.629 l 0,0.289 0.086,0.098 1.493,-0.024 0.156,-0.074 c 0.242,-0.313 0.812,-1.125 1.32,-1.793 0.692,-0.91 1.117,-1.504 1.637,-1.781 0.316,-0.168 0.621,-0.231 1.297,-0.231 l 0.863,0 c 0.219,0 0.289,0.024 0.289,0.098 l -0.109,0.07 c -0.071,0 -0.243,0 -0.473,0.039 -0.305,0.047 -0.824,0.18 -1.477,0.871 -0.707,0.75 -1.531,1.832 -2.523,3.106 1.09,1.004 1.469,1.902 1.469,2.801 0,0.836 -0.535,1.429 -0.84,1.648 -0.641,0.461 -1.453,0.531 -2.215,0.531 -0.379,0 -1.301,-0.035 -1.434,-0.035 -0.058,0 -0.824,0.035 -1.371,0.035 -0.132,0 -0.191,-0.023 -0.191,-0.097 L 67.766,9.37 c 0.109,0 0.312,-0.011 0.41,-0.039 0.398,-0.082 0.5,-0.277 0.519,-0.687 0.028,-0.391 0.028,-0.731 0.028,-2.621 l 0,-2.133 z m -6.274,0 c 0,-1.164 0,-2.121 -0.062,-2.629 C 62.34,0.909 62.277,0.64 62.035,0.593 61.926,0.57 61.781,0.542 61.672,0.542 l -0.098,-0.07 c 0,-0.074 0.063,-0.098 0.196,-0.098 0.179,0 0.46,0.012 0.703,0.024 0.254,0 0.461,0.011 0.484,0.011 0.352,0 1.164,-0.07 2.992,-0.07 0.477,0 0.571,0 0.656,0.313 0.063,0.257 0.157,1.078 0.157,1.175 0,0.086 0,0.184 -0.071,0.184 -0.062,0 -0.086,-0.051 -0.109,-0.184 C 66.496,1.331 66.352,1.089 66.035,0.956 65.723,0.824 65.188,0.824 64.871,0.824 c -1.187,0 -1.367,0.156 -1.406,0.992 -0.012,0.254 0,1.66 0,2.074 l 0,1.066 0.086,0.086 c 0.207,0 1.406,-0.023 1.734,-0.062 0.473,-0.047 0.582,-0.254 0.629,-0.422 0.051,-0.16 0.051,-0.281 0.051,-0.402 l 0.082,-0.11 c 0.086,0 0.086,0.133 0.086,0.231 0,0.086 0.023,0.535 0.051,0.777 0.035,0.398 0.093,0.605 0.093,0.68 L 66.219,5.827 C 66.172,5.827 66.121,5.769 66.035,5.671 65.926,5.55 65.758,5.527 65.465,5.503 65.188,5.476 63.695,5.476 63.539,5.476 c -0.059,0 -0.074,0.039 -0.074,0.125 l 0,3.344 c 0,0.086 0.023,0.121 0.074,0.121 0.133,0 1.453,-0.012 1.66,-0.035 0.656,-0.075 0.778,-0.219 0.86,-0.415 0.062,-0.144 0.074,-0.351 0.074,-0.433 0,-0.098 0.023,-0.16 0.097,-0.16 l 0.086,0.133 c 0.024,0.148 0.047,0.679 0.059,0.8 0.039,0.34 0.098,0.485 0.098,0.571 L 66.426,9.636 66.254,9.574 C 66.156,9.55 65.965,9.527 65.734,9.515 65.453,9.503 63.043,9.503 62.957,9.503 c -0.062,0 -0.824,0.035 -1.371,0.035 -0.133,0 -0.191,-0.023 -0.191,-0.097 L 61.488,9.37 c 0.11,0 0.317,-0.011 0.414,-0.039 0.403,-0.082 0.496,-0.277 0.52,-0.687 0.027,-0.391 0.027,-0.731 0.027,-2.621 l 0,-2.133 z m -8.351,4.172 c -0.184,0.472 -0.328,0.847 -0.328,1.004 0,0.086 0.023,0.183 0.156,0.242 0.113,0.051 0.328,0.062 0.461,0.062 0.086,0 0.121,0.024 0.121,0.082 0,0.063 -0.11,0.086 -0.324,0.086 -0.461,0 -1.008,-0.035 -1.129,-0.035 -0.145,0 -0.836,0.035 -1.418,0.035 -0.196,0 -0.317,-0.011 -0.317,-0.086 0,-0.046 0.024,-0.082 0.098,-0.082 0.074,0 0.277,0 0.461,-0.05 0.426,-0.121 0.605,-0.254 0.871,-0.93 l 2.973,-7.434 c 0.23,-0.582 0.289,-0.754 0.433,-0.754 0.121,0 0.172,0.196 0.512,0.922 0.277,0.598 0.824,1.907 1.562,3.672 0.618,1.492 1.227,2.949 1.36,3.289 0.328,0.824 0.508,1.031 0.668,1.141 0.226,0.144 0.496,0.144 0.578,0.144 0.098,0 0.148,0.024 0.148,0.082 0,0.063 -0.074,0.086 -0.207,0.086 -0.351,0 -0.871,-0.035 -0.945,-0.035 -0.144,0 -0.703,0.035 -1.187,0.035 -0.196,0 -0.27,-0.023 -0.27,-0.097 L 58.512,9.37 c 0.133,0 0.312,0 0.461,-0.05 0.121,-0.059 0.156,-0.18 0.156,-0.278 0,-0.109 -0.047,-0.277 -0.109,-0.461 C 58.754,7.71 57.129,3.476 56.426,1.855 L 54.098,8.062 Z M 49.93,6.023 c 0,1.89 0,2.23 0.023,2.621 0.024,0.422 0.121,0.629 0.449,0.687 0.145,0.028 0.219,0.039 0.305,0.039 l 0.094,0.071 c 0,0.074 -0.059,0.097 -0.192,0.097 -0.367,0 -1.129,-0.035 -1.187,-0.035 -0.063,0 -0.828,0.035 -1.227,0.035 -0.132,0 -0.191,-0.023 -0.191,-0.097 L 48.098,9.37 c 0.086,0 0.242,-0.011 0.375,-0.05 0.269,-0.059 0.39,-0.266 0.414,-0.676 C 48.91,8.253 48.91,7.913 48.91,6.023 l 0,-2.133 c 0,-1.164 0,-2.121 -0.058,-2.629 C 48.801,0.909 48.742,0.64 48.5,0.593 48.391,0.57 48.242,0.542 48.137,0.542 l -0.098,-0.07 c 0,-0.074 0.059,-0.098 0.191,-0.098 0.364,0 1.129,0.035 1.192,0.035 0.058,0 0.82,-0.035 1.488,-0.035 0.133,0 0.195,0.035 0.195,0.098 l -0.097,0.07 c -0.11,0 -0.375,0.028 -0.547,0.051 C 50.098,0.64 50.027,0.909 49.988,1.261 49.93,1.769 49.93,2.726 49.93,3.89 l 0,2.133 z M 38.66,7.831 c 0.387,-0.437 1.758,-1.965 3.164,-3.48 1.285,-1.383 3.031,-3.164 3.164,-3.285 0.641,-0.645 0.789,-0.778 0.887,-0.778 0.082,0 0.105,0.063 0.105,0.864 l 0.028,7.101 c 0,0.731 0.047,0.996 0.449,1.078 0.145,0.039 0.227,0.039 0.289,0.039 0.086,0 0.133,0.036 0.133,0.082 0,0.075 -0.086,0.086 -0.219,0.086 -0.496,0 -0.898,-0.035 -1.031,-0.035 -0.133,0 -0.715,0.035 -1.262,0.035 -0.144,0 -0.238,-0.011 -0.238,-0.086 0,-0.046 0.012,-0.082 0.094,-0.082 0.097,0 0.379,-0.011 0.593,-0.062 0.379,-0.098 0.461,-0.363 0.477,-1.152 l 0.133,-6.157 c -0.391,0.399 -1.711,1.879 -2.91,3.164 -1.868,2 -3.676,3.953 -3.856,4.157 -0.121,0.121 -0.328,0.39 -0.426,0.39 -0.097,0 -0.132,-0.136 -0.132,-0.605 L 38.09,2.156 c 0,-1.102 -0.063,-1.454 -0.363,-1.54 -0.184,-0.058 -0.403,-0.074 -0.5,-0.074 l -0.094,-0.07 c 0,-0.086 0.07,-0.098 0.191,-0.098 0.547,0 1.055,0.035 1.164,0.035 0.11,0 0.598,-0.035 1.285,-0.035 0.149,0 0.219,0.024 0.219,0.098 l -0.097,0.07 c -0.106,0 -0.375,0.016 -0.606,0.074 -0.328,0.098 -0.449,0.411 -0.473,1.407 L 38.66,7.831 Z M 28.867,4.253 c 0,-1.769 0.465,-2.617 1.059,-3.187 0.859,-0.813 2.082,-0.864 2.496,-0.864 0.715,0 1.625,0.122 2.496,0.899 0.973,0.859 1.117,2.316 1.117,3.625 l 0,1.297 c 0,1.89 0,2.23 0.024,2.621 0.023,0.422 0.121,0.629 0.449,0.687 0.144,0.039 0.219,0.039 0.301,0.039 l 0.097,0.071 c 0,0.074 -0.058,0.097 -0.191,0.097 -0.367,0 -0.934,-0.035 -1.02,-0.035 -0.074,0 -0.738,0.035 -1.285,0.035 -0.133,0 -0.195,-0.023 -0.195,-0.097 L 34.313,9.37 c 0.109,0 0.316,-0.011 0.414,-0.039 C 35.125,9.249 35.223,9.054 35.246,8.644 35.27,8.253 35.27,7.913 35.27,6.023 l 0,-1.516 C 35.27,3.261 35.125,2.23 34.566,1.538 34.133,1.015 33.402,0.663 32.664,0.663 c -0.691,0 -1.238,0.11 -1.828,0.668 -0.523,0.496 -0.91,1.25 -0.91,2.996 l 0,1.696 c 0,1.89 0,2.23 0.023,2.621 0.024,0.422 0.121,0.64 0.449,0.687 0.145,0.028 0.215,0.039 0.301,0.039 l 0.098,0.071 c 0,0.074 -0.063,0.097 -0.195,0.097 -0.364,0 -1.09,-0.035 -1.2,-0.035 -0.109,0 -0.847,0.035 -1.394,0.035 -0.133,0 -0.192,-0.023 -0.192,-0.097 L 27.91,9.37 c 0.11,0 0.317,-0.011 0.414,-0.039 0.399,-0.082 0.496,-0.277 0.52,-0.687 0.023,-0.391 0.023,-0.731 0.023,-2.621 l 0,-1.77 z" /></g></g></svg>