<?xml version="1.0" encoding="UTF-8" standalone="no"?>
<svg role="img" viewBox="0 0 24 24" version="1.1" xmlns="http://www.w3.org/2000/svg" xmlns:svg="http://www.w3.org/2000/svg" xmlns:rdf="http://www.w3.org/1999/02/22-rdf-syntax-ns#"><title>Blackboard</title>
<path d="M 0.60219292,5.2096234 H 5.9433484 q 1.5859404,0 2.3606813,0.136719 0.7838556,0.1276044 1.3945338,0.546876 0.6197925,0.4192716 1.0299495,1.1210957 0.410157,0.6927096 0.410157,1.5585966 0,0.9388038 -0.510417,1.7226593 -0.501303,0.783856 -1.3671903,1.175783 1.2213563,0.35547 1.8776073,1.212242 0.656251,0.856773 0.656251,2.014327 0,0.91146 -0.428386,1.777347 -0.419271,0.856772 -1.157554,1.376304 -0.7291679,0.510418 -1.8046907,0.628908 -0.6744804,0.07292 -3.2539121,0.09115 H 0.60219292 Z M 3.3001145,7.4335857 v 3.0898493 h 1.7682323 q 1.5768258,0 1.959639,-0.04557 0.6927095,-0.08203 1.0846373,-0.473959 0.4010424,-0.4010425 0.4010424,-1.0481791 0,-0.6197928 -0.3463548,-1.002606 Q 7.8300705,7.5611901 7.1555902,7.4791587 6.7545478,7.4335857 4.8495964,7.4335857 Z m 0,5.3138113 v 3.572924 h 2.4974003 q 1.458336,0 1.8502638,-0.08203 0.6015635,-0.109375 0.9752621,-0.528647 0.3828132,-0.428386 0.3828132,-1.139325 0,-0.601563 -0.2916672,-1.020835 Q 8.4225195,13.130211 7.8665289,12.938804 7.319653,12.747397 5.4785038,12.747397 Z" />
<path d="M 13.945967,18.571627 V 5.2096234 h 2.561203 v 4.8125086 q 1.184898,-1.3489607 2.807297,-1.3489607 1.768232,0 2.925786,1.2851586 1.157554,1.2760441 1.157554,3.6731841 0,2.479171 -1.184898,3.819017 -1.175783,1.339846 -2.861984,1.339846 -0.829428,0 -1.640628,-0.410157 -0.802085,-0.419272 -1.385419,-1.230471 v 1.421878 z m 2.542974,-5.049489 q 0,1.503909 0.473959,2.223963 0.665366,1.020835 1.768232,1.020835 0.847658,0 1.440107,-0.720053 0.601564,-0.729168 0.601564,-2.287765 0,-1.658857 -0.601564,-2.388025 -0.601563,-0.738283 -1.540367,-0.738283 -0.920575,0 -1.531253,0.720054 -0.610678,0.710938 -0.610678,2.169274 z" />
</svg>
