<?xml version="1.0" encoding="UTF-8" standalone="yes"?>
<svg version="1.1" width="403.17334" height="386.49332" viewBox="0 0 403.17334 386.49332" xmlns="http://www.w3.org/2000/svg" xmlns:svg="http://www.w3.org/2000/svg">
  <g transform="matrix(1.3333333,0,0,-1.3333333,0,386.49333)">
    <g transform="scale(0.1)">
      <path d="m 1310.49,705.488 c 11.72,-208.027 76.18,-307.648 210.96,-307.648 117.21,0 196.32,79.109 196.32,199.242 0,172.867 -117.21,278.348 -287.14,448.288 -231.48,231.47 -395.56,401.41 -395.56,673.9 0,298.86 225.62,518.61 495.18,518.61 263.69,0 454.14,-190.45 477.59,-512.75 l -310.59,-43.95 c -11.72,178.73 -58.59,257.84 -175.8,257.84 -99.62,0 -169.93,-73.25 -169.93,-190.46 0,-187.52 137.7,-313.5 319.36,-489.3 219.75,-213.89 357.46,-369.178 357.46,-656.319 0,-304.722 -210.95,-515.6715 -495.16,-515.6715 -310.59,0 -512.76,208.0195 -527.41,571.3395 l 304.72,46.879" />
      <path d="m 176.848,2489.06 v -46.67 h 874.372 v 46.67 H 176.848" />
      <path d="m 1993.39,2489.06 v -46.67 h 905.74 v 46.67 h -905.74" />
      <path d="m 1051.22,2489.06 v -46.67 h 942.17 v 46.67 h -942.17" />
      <path d="M 625.297,90.1992 C 303,90.1992 135.988,286.5 135.988,664.469 V 1725.13 c 0,322.3 184.59,521.53 501.028,521.53 216.175,0 377.034,-109.04 444.954,-302.84 -30.02,-67.02 -46.9,-142.83 -46.9,-224.55 0,-73.83 12.05,-140.14 34.21,-202.17 H 789.379 v 228.53 c 0,143.57 -55.676,213.9 -164.082,213.9 -108.41,0 -164.074,-70.33 -164.074,-213.9 V 591.219 c 0,-143.559 55.664,-216.821 164.074,-216.821 108.406,0 164.082,73.262 164.082,216.821 V 872.5 H 1117.54 V 675.809 l -111.77,-17.2 c 4.48,-110.937 26.44,-207.41 63.63,-287.89 C 996.215,187.352 842.199,90.1992 625.297,90.1992" />
      <path d="m 1069.4,370.719 c -37.19,80.48 -59.15,176.953 -63.63,287.89 l 111.77,17.2 V 655.68 c 0,-110.469 -16.53,-205.758 -48.14,-284.961 m 48.14,1146.381 h -48.26 c -22.16,62.03 -34.21,128.34 -34.21,202.17 0,81.72 16.88,157.53 46.9,224.55 23.22,-66.25 35.57,-142.39 35.57,-227.48 V 1517.1" />
      <path d="m 2409.08,90.1992 c -212.6,0 -361.72,88.6208 -436.69,261.4098 35.97,72.61 55.95,157.52 55.95,251.332 0,154.911 -40.07,271.43 -111.49,379.489 v 729.82 l 90.99,12.88 c -8.75,120.15 -40.69,221.96 -90.99,302.43 v 175.15 h 325.23 V 600.012 c 0,-125.992 73.24,-196.313 169.94,-196.313 96.69,0 161.15,70.321 161.15,196.313 V 2202.71 H 2898.4 V 655.68 c 0,-366.25 -178.73,-565.4808 -489.32,-565.4808" />
      <path d="m 1972.39,351.609 c -36.62,84.379 -55.54,188.84 -55.54,312.86 V 982.43 c 71.42,-108.059 111.49,-224.578 111.49,-379.489 0,-93.812 -19.98,-178.722 -55.95,-251.332 m -55.54,1360.641 v 315.31 c 50.3,-80.47 82.24,-182.28 90.99,-302.43 l -90.99,-12.88" />
    </g>
  </g>
</svg>
